<svg width="20" height="20" viewBox="0 0 20 20" fill="none" xmlns="http://www.w3.org/2000/svg">
<path d="M19.1031 8.086H17.6563V5.89303C17.6563 5.72046 17.5343 5.586 17.3618 5.586H15.6809C15.6736 5.586 15.6664 5.58659 15.6593 5.5871C15.6521 5.58659 15.645 5.586 15.6377 5.586H13.9568C13.8733 5.58435 13.7925 5.61564 13.7319 5.67309C13.6712 5.73055 13.6357 5.80955 13.6328 5.89303V7.65631H6.36719V5.89303C6.36432 5.80952 6.3287 5.7305 6.26803 5.67304C6.20736 5.61559 6.12651 5.58432 6.04297 5.586H4.36223C4.35493 5.586 4.34782 5.58659 4.34063 5.5871C4.33348 5.58659 4.32633 5.586 4.31903 5.586H2.63817C2.46555 5.586 2.34375 5.72046 2.34375 5.89303V8.086H0.896958C0.724341 8.086 0.585942 8.24198 0.585942 8.41456V11.1299C0.585484 11.2129 0.617962 11.2927 0.676259 11.3519C0.734556 11.411 0.813919 11.4446 0.896958 11.4454H2.34375V14.1071C2.34375 14.2797 2.46555 14.4141 2.63817 14.4141H4.31903C4.32633 14.4141 4.33348 14.4135 4.34063 14.413C4.34782 14.4135 4.35493 14.4141 4.36223 14.4141H6.04297C6.12651 14.4158 6.20736 14.3845 6.26803 14.3271C6.3287 14.2696 6.36432 14.1906 6.36719 14.1071V11.8751H13.6328V14.1071C13.6357 14.1906 13.6712 14.2696 13.7319 14.327C13.7925 14.3845 13.8733 14.4158 13.9568 14.4141H15.6377C15.645 14.4141 15.6521 14.4135 15.6593 14.413C15.6664 14.4135 15.6736 14.4141 15.6809 14.4141H17.3618C17.5343 14.4141 17.6563 14.2797 17.6563 14.1071V11.4454H19.1031C19.1861 11.4446 19.2655 11.411 19.3237 11.3519C19.382 11.2927 19.4145 11.2129 19.4141 11.1299V8.41456C19.4141 8.24198 19.2757 8.086 19.1031 8.086ZM1.21094 10.8204V8.711H2.34375V10.8204H1.21094ZM4.02344 13.7891H2.96875V6.211H4.02344V13.7891ZM4.6875 13.7891V6.211H5.74219V7.88245C5.72753 7.89452 5.71623 7.91017 5.70938 7.92789C5.70254 7.9456 5.70039 7.96479 5.70313 7.98358V11.5609C5.70039 11.5797 5.70254 11.5989 5.70938 11.6166C5.71623 11.6343 5.72753 11.6499 5.74219 11.662V13.7891H4.6875ZM13.6328 11.2501H6.36719V8.28131H13.6328V11.2501ZM15.3125 13.7891H14.2578V6.211H15.3125V13.7891ZM17.0313 13.7891H15.9766V6.211H17.0313V13.7891ZM18.7891 10.8204H17.6563V8.711H18.7891V10.8204Z" fill="#1E1E1E"/>
</svg>
