<svg width="20" height="20" viewBox="0 0 20 20" fill="none" xmlns="http://www.w3.org/2000/svg">
<path d="M17.725 7.65004C17.4833 7.26671 17.225 6.90838 16.9583 6.57504C16.65 6.18338 16.0667 6.15004 15.7167 6.50004L13.2167 9.00004C13.4 9.55004 13.4333 10.1834 13.2667 10.8417C12.975 12.0167 12.025 12.9667 10.85 13.2584C10.1917 13.425 9.55833 13.3917 9.00833 13.2084C9.00833 13.2084 7.81666 14.4 6.95833 15.2584C6.54166 15.675 6.67499 16.4084 7.23333 16.625C8.12499 16.9667 9.04999 17.1417 9.99999 17.1417C11.4833 17.1417 12.925 16.7084 14.2417 15.9C15.5833 15.0667 16.7917 13.8417 17.7667 12.2834C18.5583 11.025 18.5167 8.90838 17.725 7.65004Z" fill="#848484"/>
<path d="M11.6833 8.3167L8.31667 11.6834C7.89167 11.25 7.61667 10.65 7.61667 10C7.61667 8.6917 8.68334 7.6167 10 7.6167C10.65 7.6167 11.25 7.8917 11.6833 8.3167Z" fill="#848484"/>
<path d="M15.2083 4.79161L12.3833 7.61661C11.775 6.99994 10.9333 6.63328 10 6.63328C8.13334 6.63328 6.63334 8.14161 6.63334 9.99994C6.63334 10.9333 7.00834 11.7749 7.61667 12.3833L4.80001 15.2083H4.79167C3.86667 14.4583 3.01667 13.4999 2.29167 12.3666C1.45834 11.0583 1.45834 8.93328 2.29167 7.62494C3.25834 6.10828 4.44167 4.91661 5.75834 4.09994C7.07501 3.29994 8.51667 2.85828 10 2.85828C11.8583 2.85828 13.6583 3.54161 15.2083 4.79161Z" fill="#848484"/>
<path d="M12.3833 9.99994C12.3833 11.3083 11.3167 12.3833 10 12.3833C9.95 12.3833 9.90834 12.3833 9.85834 12.3666L12.3667 9.85828C12.3833 9.90828 12.3833 9.94994 12.3833 9.99994Z" fill="#848484"/>
<path d="M18.1417 1.85828C17.8917 1.60828 17.4833 1.60828 17.2333 1.85828L1.85834 17.2416C1.60834 17.4916 1.60834 17.8999 1.85834 18.1499C1.98334 18.2666 2.14167 18.3333 2.30834 18.3333C2.475 18.3333 2.63334 18.2666 2.75834 18.1416L18.1417 2.75828C18.4 2.50828 18.4 2.10828 18.1417 1.85828Z" fill="#848484"/>
</svg>
