<svg width="120" height="120" viewBox="0 0 120 120" fill="none" xmlns="http://www.w3.org/2000/svg">
<path d="M39.2875 72.5001L57.3381 54.4495L72.4125 39.3751M20.8812 90.9065L16.4617 95.3259C14.021 97.7666 14.021 101.724 16.4617 104.165C18.9025 106.606 22.8599 106.606 25.3006 104.165L29.72 99.7453M48.125 81.3403L80.7151 48.7501M90 21.7876L95.9497 15.8379C98.3905 13.3971 102.348 13.3971 104.788 15.8379C107.229 18.2786 107.229 22.236 104.788 24.6768L98.125 31.3403M46.041 97.5656L23.06 74.5846C20.6191 72.1439 16.6619 72.1439 14.2211 74.5846C11.7803 77.0254 11.7803 80.9826 14.2211 83.4234L25.3036 94.506L37.2021 106.404C39.6429 108.845 43.6001 108.845 46.041 106.404C48.4817 103.964 48.4817 100.006 46.041 97.5656Z" stroke="#1E1E1E" stroke-width="5"/>
<path d="M96.423 47.1821L73.442 24.2011C71.0013 21.7603 71.0013 17.8031 73.442 15.3623C75.8829 12.9216 79.8401 12.9216 82.2809 15.3623L93.3634 26.4448L105.262 38.3433C107.703 40.7841 107.703 44.7413 105.262 47.1821C102.821 49.6228 98.8638 49.6228 96.423 47.1821ZM58.415 92.2627L28.363 62.2106C25.9223 59.7698 21.965 59.7698 19.5241 62.2106C17.0834 64.6514 17.0834 68.6087 19.5241 71.0494L34.0516 85.5768L49.5763 101.101C52.017 103.542 55.9743 103.542 58.415 101.101C60.8559 98.6607 60.8559 94.7034 58.415 92.2627ZM91.1191 59.5575L61.067 29.5056C58.6263 27.0648 58.6263 23.1074 61.067 20.6667C63.5078 18.2259 67.4651 18.2259 69.9059 20.6667L84.4333 35.1941L99.9579 50.7187C102.399 53.1596 102.399 57.1168 99.9579 59.5575C97.5171 61.9983 93.5599 61.9983 91.1191 59.5575Z" stroke="#1E1E1E" stroke-width="5"/>
</svg>
