<svg width="20" height="20" viewBox="0 0 20 20" fill="none" xmlns="http://www.w3.org/2000/svg">
<path d="M10 10.8333C9.74629 10.8303 9.49776 10.9052 9.28787 11.0477C9.07797 11.1903 8.91679 11.3937 8.82601 11.6306C8.73523 11.8676 8.71922 12.1266 8.78012 12.3729C8.84103 12.6192 8.97593 12.841 9.16667 13.0083V14.1666C9.16667 14.3876 9.25446 14.5996 9.41074 14.7559C9.56702 14.9122 9.77899 15 10 15C10.221 15 10.433 14.9122 10.5893 14.7559C10.7455 14.5996 10.8333 14.3876 10.8333 14.1666V13.0083C11.0241 12.841 11.159 12.6192 11.2199 12.3729C11.2808 12.1266 11.2648 11.8676 11.174 11.6306C11.0832 11.3937 10.922 11.1903 10.7121 11.0477C10.5022 10.9052 10.2537 10.8303 10 10.8333ZM14.1667 7.49996V5.83329C14.1667 4.72822 13.7277 3.66842 12.9463 2.88701C12.1649 2.10561 11.1051 1.66663 10 1.66663C8.89493 1.66663 7.83512 2.10561 7.05372 2.88701C6.27232 3.66842 5.83333 4.72822 5.83333 5.83329V7.49996C5.17029 7.49996 4.53441 7.76335 4.06557 8.23219C3.59672 8.70103 3.33333 9.33692 3.33333 9.99996V15.8333C3.33333 16.4963 3.59672 17.1322 4.06557 17.6011C4.53441 18.0699 5.17029 18.3333 5.83333 18.3333H14.1667C14.8297 18.3333 15.4656 18.0699 15.9344 17.6011C16.4033 17.1322 16.6667 16.4963 16.6667 15.8333V9.99996C16.6667 9.33692 16.4033 8.70103 15.9344 8.23219C15.4656 7.76335 14.8297 7.49996 14.1667 7.49996ZM7.5 5.83329C7.5 5.17025 7.76339 4.53437 8.23223 4.06553C8.70107 3.59668 9.33696 3.33329 10 3.33329C10.663 3.33329 11.2989 3.59668 11.7678 4.06553C12.2366 4.53437 12.5 5.17025 12.5 5.83329V7.49996H7.5V5.83329ZM15 15.8333C15 16.0543 14.9122 16.2663 14.7559 16.4225C14.5996 16.5788 14.3877 16.6666 14.1667 16.6666H5.83333C5.61232 16.6666 5.40036 16.5788 5.24408 16.4225C5.0878 16.2663 5 16.0543 5 15.8333V9.99996C5 9.77894 5.0878 9.56698 5.24408 9.4107C5.40036 9.25442 5.61232 9.16663 5.83333 9.16663H14.1667C14.3877 9.16663 14.5996 9.25442 14.7559 9.4107C14.9122 9.56698 15 9.77894 15 9.99996V15.8333Z" fill="#28A228"/>
</svg>
