<svg width="24" height="24" viewBox="0 0 24 24" fill="none" xmlns="http://www.w3.org/2000/svg">
<path fill-rule="evenodd" clip-rule="evenodd" d="M23.5195 12.2724C23.5195 11.4215 23.4431 10.6033 23.3013 9.81787H11.9998V14.4596H18.4578C18.1796 15.9595 17.3342 17.2304 16.0633 18.0813V21.0921H19.9414C22.2104 19.0031 23.5195 15.9268 23.5195 12.2724Z" fill="#4285F4"/>
<path fill-rule="evenodd" clip-rule="evenodd" d="M11.9993 23.9992C15.2392 23.9992 17.9555 22.9247 19.9409 21.092L16.0628 18.0811C14.9883 18.8011 13.6138 19.2266 11.9993 19.2266C8.87388 19.2266 6.22848 17.1157 5.28487 14.2794H1.27587V17.3884C3.25037 21.3102 7.30846 23.9992 11.9993 23.9992Z" fill="#34A853"/>
<path fill-rule="evenodd" clip-rule="evenodd" d="M5.28533 14.2797C5.04534 13.5598 4.90898 12.7907 4.90898 11.9998C4.90898 11.2089 5.04534 10.4398 5.28533 9.71985V6.61084H1.27633C0.463625 8.2308 0 10.0635 0 11.9998C0 13.9361 0.463625 15.7688 1.27633 17.3888L5.28533 14.2797Z" fill="#FBBC05"/>
<path fill-rule="evenodd" clip-rule="evenodd" d="M11.9993 4.77261C13.761 4.77261 15.3428 5.37805 16.5864 6.56711L20.0282 3.12538C17.95 1.18906 15.2337 0 11.9993 0C7.30846 0 3.25037 2.68902 1.27587 6.61074L5.28487 9.71976C6.22848 6.88347 8.87388 4.77261 11.9993 4.77261Z" fill="#EA4335"/>
</svg>
