<svg width="20" height="20" viewBox="0 0 20 20" fill="none" xmlns="http://www.w3.org/2000/svg">
<g clip-path="url(#clip0_57_1495)">
<path d="M19.8047 20H0.195312C0.0859375 20 0 19.9141 0 19.8047V19.0234C0 18.9141 0.0859375 18.8281 0.195312 18.8281H15.8203V19.2188H0.390625V19.6094H19.6094V19.2188H16.6016V18.8281H19.8047C19.9141 18.8281 20 18.9141 20 19.0234V19.8047C20 19.9141 19.9141 20 19.8047 20Z" fill="#1E1E1E"/>
<path d="M15.8203 19.2185H14.6172C14.5977 19.2185 14.5781 19.2146 14.5586 19.2107L11.957 18.4021C11.8945 18.3826 11.8438 18.3318 11.8281 18.2693L11.457 16.9724C11.4414 16.9177 11.4492 16.8591 11.4844 16.8084L11.6367 16.5818C11.957 16.1052 12.5625 15.9412 13.082 16.1873C13.2813 16.281 13.4453 16.4294 13.5625 16.613C13.7891 16.9763 14.1094 17.2732 14.4883 17.4724L15.918 18.2263C15.9805 18.2615 16.0235 18.3279 16.0235 18.3982V19.0232C16.0156 19.1326 15.9297 19.2185 15.8203 19.2185ZM14.6445 18.8279H15.625V18.5154L14.3008 17.8201C13.8633 17.5896 13.4922 17.2459 13.2266 16.824C13.1485 16.7029 13.0391 16.6052 12.9102 16.5427C12.5703 16.3787 12.168 16.4919 11.957 16.8044L11.8555 16.9568L12.1719 18.0662L14.6445 18.8279Z" fill="#1E1E1E"/>
<path d="M6.28906 19.2188C4.94922 19.2188 3.79688 18.2617 3.55078 16.9414L2.39063 10.6875C2.30859 10.2422 2.26562 9.78906 2.26562 9.33594C2.26562 7.59766 2.88281 5.90625 4 4.57422L4.02734 4.53906L4.32812 4.78906L4.30078 4.82422C3.23828 6.08594 2.65625 7.6875 2.65625 9.33594C2.65625 9.76562 2.69531 10.1953 2.77344 10.6172L3.93359 16.8711C4.14453 18 5.125 18.8203 6.27344 18.8281L11.7617 18.0547L11.4922 17.0938L7.375 16.4688L6.81641 16.4648C6.71875 16.4648 6.63672 16.3906 6.625 16.2969L6.09375 12.293C6.08203 12.2109 6.125 12.1328 6.19531 12.0938C6.54688 11.9063 6.77734 11.5469 6.79688 11.1484C6.82812 10.5625 6.75781 9.98047 6.58594 9.41797L6.41797 8.87109C6.19922 8.16016 6.45703 7.38672 7.05469 6.94922L9.01562 5.51953C9.04297 5.5 9.07812 5.48437 9.11328 5.48437L11.2383 5.29688L11.2734 5.6875L9.20312 5.87109L7.28906 7.26953C6.82422 7.60938 6.625 8.20703 6.79297 8.76172L6.96094 9.30859C7.14844 9.91406 7.22266 10.543 7.1875 11.1758C7.16016 11.6602 6.89844 12.1094 6.49609 12.3711L6.98828 16.082L7.39062 16.0859C7.39844 16.0859 7.41016 16.0859 7.41797 16.0898L11.6758 16.7344C11.75 16.7461 11.8125 16.8008 11.8359 16.875L12.1992 18.1719C12.2148 18.2266 12.207 18.2852 12.1758 18.332C12.1445 18.3789 12.0938 18.4102 12.0391 18.418L6.31641 19.2188C6.30859 19.2188 6.29688 19.2188 6.28906 19.2188Z" fill="#1E1E1E"/>
<path d="M14.9844 17.6641C14.9531 17.6641 14.918 17.6562 14.8867 17.6406L13.1484 16.6562C13.0977 16.6289 13.0625 16.582 13.0547 16.5234L11.9453 10.9883C11.9414 10.9727 11.9414 10.9609 11.9414 10.9453L11.9727 9.62891L11.082 5.58984L10.75 5.28125C10.2695 4.83594 10.1016 4.14844 10.3242 3.53125L10.3359 3.5C10.5664 2.85547 11.1836 2.42188 11.8711 2.42188C12.375 2.42188 12.8398 2.64844 13.1523 3.04297C13.5313 3.52344 13.7031 4.14453 13.625 4.74609L13.5 5.72266L13.7383 9.98438L14.0039 14.75L14.4805 15.3828C14.4961 15.4023 14.5039 15.4219 14.5117 15.4453L14.7305 16.1875L15.4883 17.0664C15.5234 17.1055 15.5391 17.1602 15.5352 17.2148C15.5312 17.2695 15.5039 17.3164 15.4609 17.3477L15.1133 17.6172C15.0703 17.6523 15.0273 17.6641 14.9844 17.6641ZM13.418 16.3594L14.9648 17.2383L15.0469 17.1758L14.3984 16.418C14.3789 16.3984 14.3672 16.3711 14.3594 16.3438L14.1406 15.5938L13.6523 14.9414C13.6289 14.9102 13.6172 14.875 13.6133 14.8359L13.3438 10.0117L13.1016 5.73047C13.1016 5.71875 13.1016 5.70703 13.1016 5.69531L13.2305 4.69922C13.2969 4.19922 13.1523 3.68359 12.8398 3.28516C12.6016 2.98437 12.25 2.8125 11.8672 2.8125C11.3477 2.8125 10.8789 3.14062 10.6992 3.63281L10.6875 3.66406C10.5195 4.13281 10.6445 4.65625 11.0117 4.99609L11.3867 5.34375C11.4141 5.37109 11.4375 5.40625 11.4453 5.44531L12.3516 9.57031C12.3555 9.58594 12.3555 9.60156 12.3555 9.61719L12.3242 10.9336L13.418 16.3594Z" fill="#1E1E1E"/>
<path d="M6.42968 6.75015L4.05859 4.81656C3.98047 4.75406 3.96484 4.64078 4.01953 4.55875L4.03515 4.53922C4.80859 3.36734 5.96093 2.48453 7.28906 2.03922C7.39843 1.55875 7.71875 1.1564 8.16797 0.945465C8.65625 0.71109 9.22656 0.699372 9.72656 0.902497L11.6289 1.68765C11.6523 1.69547 11.6719 1.71109 11.6914 1.72672L12.5859 2.60172L12.3125 2.88297L11.4414 2.0314L9.57422 1.26187C9.17578 1.09781 8.72265 1.10953 8.33203 1.29312C7.96484 1.4689 7.71093 1.81265 7.64843 2.215C7.63672 2.28922 7.58593 2.35172 7.51172 2.37125C6.26953 2.76187 5.18359 3.55875 4.4375 4.62515L6.67187 6.44547L6.42968 6.75015Z" fill="#1E1E1E"/>
<path d="M14.4414 3.99613C14.3086 3.99613 14.1758 3.95316 14.0664 3.85941C13.6758 3.53519 13.4688 3.03519 13.5195 2.53129L13.5547 2.16801L13.9453 2.20707L13.9102 2.57035C13.875 2.94926 14.0273 3.32035 14.3164 3.56254C14.3945 3.62894 14.5156 3.62113 14.5859 3.54301C14.6133 3.51566 14.6289 3.48051 14.6328 3.44144L14.7109 2.94144C14.7227 2.87894 14.7617 2.82426 14.8164 2.79691C14.8711 2.76957 14.9375 2.76957 14.9961 2.79691L15.625 3.12894L16.6836 2.55863L16.3711 2.20316C16.3555 2.18363 16.3398 2.16019 16.332 2.13676L16.0195 1.2266L15.5586 1.39066C15.4961 1.4141 15.4258 1.40238 15.3711 1.35941L14.2695 0.4766L13.4023 1.7891C13.3711 1.83598 13.3164 1.87113 13.2617 1.87504L11.582 2.05473L11.5391 1.66801L13.1289 1.50004L14.0625 0.0859753C14.0938 0.0391003 14.1406 0.00785027 14.1953 3.77656e-05C14.25 -0.00777473 14.3047 0.00785027 14.3477 0.0391003L15.5313 0.988319L16.0742 0.796913C16.125 0.781288 16.1758 0.781288 16.2227 0.804725C16.2695 0.828163 16.3047 0.867225 16.3242 0.918006L16.6875 1.9766L17.1367 2.48441C17.1758 2.52738 17.1914 2.58988 17.1836 2.64848C17.1719 2.70707 17.1367 2.75785 17.082 2.78519L15.7148 3.51957C15.6562 3.55082 15.5898 3.55082 15.5313 3.51957L15.0508 3.26566L15.0156 3.49613C14.9961 3.60941 14.9453 3.71488 14.8711 3.80082C14.7578 3.92973 14.6016 3.99613 14.4414 3.99613Z" fill="#1E1E1E"/>
<path d="M14.707 6.17188C14.6602 6.17188 14.6133 6.15625 14.5781 6.12109L13.2812 4.97266L13.5391 4.67969L14.7461 5.75391L15.8359 5.33984C16.3203 5.15625 16.7344 4.8125 17.0039 4.37109L17.0547 4.28906C17.2422 3.97656 17.3438 3.62109 17.3438 3.25781C17.3438 3.03516 17.1797 2.84375 16.9609 2.8125L17.0156 2.42578C17.4258 2.48438 17.7344 2.84375 17.7344 3.25781C17.7344 3.69141 17.6133 4.11719 17.3906 4.49219L17.3398 4.57422C17.0273 5.08984 16.543 5.49219 15.9766 5.70703L14.7773 6.16016C14.7539 6.16797 14.7305 6.17188 14.707 6.17188Z" fill="#1E1E1E"/>
<path d="M14.707 6.95313C14.168 6.95313 13.7305 6.51563 13.7305 5.97656C13.7305 5.73828 13.8164 5.50781 13.9766 5.32812L14.2695 5.58594C14.1758 5.69141 14.1211 5.83203 14.1211 5.97656C14.1211 6.30078 14.3828 6.5625 14.707 6.5625C15.0312 6.5625 15.293 6.30078 15.293 5.97656C15.293 5.90625 15.2812 5.83594 15.2539 5.76953L15.6211 5.63281C15.6641 5.74219 15.6836 5.85938 15.6836 5.97656C15.6836 6.51563 15.2461 6.95313 14.707 6.95313Z" fill="#1E1E1E"/>
<path d="M16.3453 2.10827L16.0236 1.88672L15.7201 2.32747L16.0418 2.54902L16.3453 2.10827Z" fill="#1E1E1E"/>
<path d="M6.82153 16.0825L5.45044 16.0742L5.44807 16.4648L6.81916 16.4732L6.82153 16.0825Z" fill="#1E1E1E"/>
</g>
<defs>
<clipPath id="clip0_57_1495">
<rect width="20" height="20" fill="white"/>
</clipPath>
</defs>
</svg>
