<svg width="20" height="20" viewBox="0 0 20 20" fill="none" xmlns="http://www.w3.org/2000/svg">
<g clip-path="url(#clip0_169_2399)">
<path d="M3.70348 18.75C3.70348 18.9142 3.73541 19.0767 3.79745 19.2284C3.85949 19.38 3.95042 19.5178 4.06505 19.6339C4.17969 19.75 4.31577 19.842 4.46555 19.9049C4.61533 19.9677 4.77585 20 4.93797 20C5.26538 20 5.57937 19.8683 5.81089 19.6339C5.92552 19.5178 6.01645 19.38 6.07849 19.2284C6.14053 19.0767 6.17246 18.9142 6.17246 18.75C6.17246 18.4185 6.0424 18.1005 5.81089 17.8661C5.57937 17.6317 5.26538 17.5 4.93797 17.5C4.61056 17.5 4.29656 17.6317 4.06505 17.8661C3.83354 18.1005 3.70348 18.4185 3.70348 18.75ZM14.8139 18.75C14.8139 18.9142 14.8458 19.0767 14.9079 19.2284C14.9699 19.38 15.0608 19.5178 15.1755 19.6339C15.2901 19.75 15.4262 19.842 15.576 19.9049C15.7258 19.9677 15.8863 20 16.0484 20C16.3758 20 16.6898 19.8683 16.9213 19.6339C17.0359 19.5178 17.1269 19.38 17.1889 19.2284C17.251 19.0767 17.2829 18.9142 17.2829 18.75C17.2829 18.4185 17.1528 18.1005 16.9213 17.8661C16.6898 17.6317 16.3758 17.5 16.0484 17.5C15.721 17.5 15.407 17.6317 15.1755 17.8661C14.944 18.1005 14.8139 18.4185 14.8139 18.75ZM-0.0357971 3.125C-0.0357971 3.29076 0.029234 3.44973 0.14499 3.56694C0.260746 3.68415 0.417745 3.75 0.581449 3.75H1.86409L2.63071 7.07L3.70348 12.5C3.70348 12.545 3.72446 12.5838 3.7294 12.6275L3.10105 15.49C3.08073 15.5813 3.08101 15.6762 3.10186 15.7674C3.12271 15.8586 3.1636 15.9439 3.22148 16.0169C3.27937 16.0899 3.35276 16.1488 3.43621 16.1892C3.51965 16.2295 3.61101 16.2503 3.70348 16.25H17.7076C17.8713 16.25 18.0283 16.1842 18.144 16.0669C18.2598 15.9497 18.3248 15.7908 18.3248 15.625C18.3248 15.4592 18.2598 15.3003 18.144 15.1831C18.0283 15.0658 17.8713 15 17.7076 15H4.4738L4.7565 13.7125C4.81822 13.7225 4.87378 13.75 4.93797 13.75H16.1904C16.8718 13.75 17.2829 13.6137 17.6113 12.8125L19.6161 6.585C19.9642 5.46875 19.2001 5 18.5174 5H3.70348C3.60719 5 3.52324 5.03375 3.43312 5.055L2.95414 2.9825C2.92239 2.84519 2.84571 2.72279 2.73656 2.6352C2.62741 2.5476 2.49222 2.49995 2.35294 2.5H0.581449C0.417745 2.5 0.260746 2.56585 0.14499 2.68306C0.029234 2.80027 -0.0357971 2.95924 -0.0357971 3.125ZM3.72817 6.25H18.4248L16.4545 12.3738C16.4311 12.4275 16.4113 12.4663 16.3965 12.4925C16.3558 12.4963 16.2916 12.5 16.1904 12.5H4.93797V12.3763L4.91451 12.255L3.72817 6.25Z" fill="#28A228"/>
</g>
<defs>
<clipPath id="clip0_169_2399">
<rect width="20" height="20" fill="white"/>
</clipPath>
</defs>
</svg>
