<svg width="72" height="72" viewBox="0 0 72 72" fill="none" xmlns="http://www.w3.org/2000/svg">
<path d="M32.94 12.6C36.2206 12.6 38.88 9.94054 38.88 6.65997C38.88 3.3794 36.2206 0.719971 32.94 0.719971C29.6594 0.719971 27 3.3794 27 6.65997C27 9.94054 29.6594 12.6 32.94 12.6Z" fill="#848484"/>
<path d="M47.3947 46.0799L38.8858 22.6986L38.8368 22.4581C38.8368 22.1169 39.1234 21.8404 39.4805 21.8404C39.7843 21.8404 40.0392 22.0434 40.1069 22.3141L45.8914 37.4399C46.2758 38.3053 47.857 38.8799 48.8966 38.8799C50.2862 38.8799 50.4302 36.1511 50.4 35.9999L44.6155 21.0858C44.113 17.7436 40.7376 14.3999 36.8856 14.3999H29.3472C25.4952 14.3999 21.8693 17.7436 21.3667 21.0858L15.8414 35.9999C15.7162 36.2865 15.8414 38.8799 17.3434 38.8799C18.5112 38.8799 20.065 38.4724 20.3486 37.4399L25.9286 22.2493C25.9763 22.1277 26.0598 22.0235 26.168 21.9504C26.2763 21.8774 26.4043 21.839 26.5349 21.8404C26.8906 21.8404 27.1771 22.1169 27.1771 22.4567L27.1368 22.677L18.8467 46.0799C18.8309 46.149 18.8467 47.4493 18.8467 47.5199C18.8467 48.0181 20.0491 48.9599 20.5718 48.9599H25.92V67.8167C25.92 69.3143 27.239 70.5599 28.8 70.5599C30.361 70.5599 31.68 69.3129 31.68 67.8167V48.9469C31.68 48.5394 34.56 48.5524 34.56 48.9599V67.6799C34.56 69.1775 35.8805 70.5599 37.44 70.5599C39.0038 70.5599 40.32 69.1761 40.32 67.6799V48.9599H45.8914C46.4126 48.9599 47.3947 48.0181 47.3947 47.5199C47.3947 47.4047 47.4365 46.1793 47.3947 46.0799Z" fill="#848484"/>
</svg>
