<svg width="17" height="16" viewBox="0 0 17 16" fill="none" xmlns="http://www.w3.org/2000/svg">
<path d="M7.00199 3.68848C7.16672 3.68848 7.32478 3.62346 7.44182 3.50754C7.55886 3.39163 7.62541 3.2342 7.62699 3.06948C7.6286 2.90465 7.56503 2.74587 7.45013 2.62769C7.33523 2.50951 7.17829 2.4415 7.01349 2.43848M6.94799 4.93248C6.78326 4.93248 6.6252 4.86746 6.50816 4.75155C6.39112 4.63563 6.32457 4.4782 6.32299 4.31348C6.32138 4.14865 6.38495 3.98987 6.49985 3.87169C6.61475 3.75351 6.77169 3.6855 6.93649 3.68248M7.00199 6.18248C7.16672 6.18248 7.32478 6.11746 7.44182 6.00155C7.55886 5.88563 7.62541 5.7282 7.62699 5.56348C7.6286 5.39865 7.56503 5.23987 7.45013 5.12169C7.33523 5.00351 7.17829 4.9355 7.01349 4.93248M9.50199 3.68848C9.66672 3.68848 9.82478 3.62346 9.94182 3.50754C10.0589 3.39163 10.1254 3.2342 10.127 3.06948C10.1286 2.90465 10.065 2.74587 9.95013 2.62769C9.83523 2.50951 9.67829 2.4415 9.51349 2.43848M9.44799 4.93248C9.28326 4.93248 9.1252 4.86746 9.00816 4.75155C8.89112 4.63563 8.82457 4.4782 8.82299 4.31348C8.82138 4.14865 8.88495 3.98987 8.99985 3.87169C9.11475 3.75351 9.27169 3.6855 9.43649 3.68248M9.50199 6.18248C9.66672 6.18248 9.82478 6.11746 9.94182 6.00155C10.0589 5.88563 10.1254 5.7282 10.127 5.56348C10.1286 5.39865 10.065 5.23987 9.95013 5.12169C9.83523 5.00351 9.67829 4.9355 9.51349 4.93248M4.69549 3.68848C4.86022 3.68848 5.01828 3.62346 5.13532 3.50754C5.25236 3.39163 5.31891 3.2342 5.32049 3.06948C5.3221 2.90474 5.2586 2.74603 5.14381 2.62786C5.02901 2.50969 4.87221 2.44163 4.70749 2.43848M4.64199 4.93248C4.47726 4.93248 4.3192 4.86746 4.20216 4.75155C4.08512 4.63563 4.01857 4.4782 4.01699 4.31348C4.01538 4.14874 4.07888 3.99003 4.19367 3.87186C4.30847 3.75369 4.46527 3.68563 4.62999 3.68248M4.69549 6.18248C4.86022 6.18248 5.01828 6.11746 5.13532 6.00155C5.25236 5.88563 5.31891 5.7282 5.32049 5.56348C5.3221 5.39874 5.2586 5.24003 5.14381 5.12186C5.02901 5.00369 4.87221 4.93563 4.70749 4.93248" stroke="white" stroke-linecap="round" stroke-linejoin="round"/>
<path d="M4.93899 13.5612H9.43799V12.0732C8.47949 12.4962 7.92099 12.5622 7.14399 12.5782C6.17249 12.5982 5.51399 12.4302 4.93899 12.2862V13.5612Z" stroke="white" stroke-linecap="round" stroke-linejoin="round"/>
<path d="M12.851 8.17432C12.011 11.3113 8.80049 13.1728 5.66349 12.3323C4.66796 12.0665 3.76012 11.5429 3.03151 10.8143C2.3029 10.0857 1.7793 9.17785 1.51349 8.18232L12.851 8.17432Z" fill="white" stroke="white" stroke-linecap="round" stroke-linejoin="round"/>
<path d="M1.51049 7.17188H12.853V8.20138H1.51049V7.17188Z" stroke="white" stroke-linecap="round" stroke-linejoin="round"/>
<path d="M8.83699 7.16901C12.737 7.32301 11.7565 4.54401 14.639 4.29301C14.924 4.26801 15.074 4.26251 15.474 4.28801L15.489 4.28301C14.9915 3.98701 14.0745 3.486 13.309 3.6985C12.9175 3.8075 12.3075 4.22851 11.899 5.03101C10.8705 7.28301 9.86899 7.1645 9.05399 7.1685L8.83699 7.16901Z" stroke="white" stroke-linecap="round" stroke-linejoin="round"/>
<path d="M11.237 9.05811C10.883 10.1381 9.93549 10.8881 8.83549 11.0921" stroke="white" stroke-linecap="round" stroke-linejoin="round"/>
</svg>
