<svg width="25" height="24" viewBox="0 0 25 24" fill="none" xmlns="http://www.w3.org/2000/svg">
<path d="M22.05 11.25H21.3V9C21.3 8.40326 21.0629 7.83097 20.641 7.40901C20.219 6.98705 19.6467 6.75 19.05 6.75H16.8C16.2033 6.75 15.631 6.98705 15.209 7.40901C14.787 7.83097 14.55 8.40326 14.55 9V11.25H10.05V9C10.05 8.40326 9.81294 7.83097 9.39099 7.40901C8.96903 6.98705 8.39673 6.75 7.8 6.75H5.55C4.95326 6.75 4.38096 6.98705 3.95901 7.40901C3.53705 7.83097 3.3 8.40326 3.3 9V11.25H2.55C2.35108 11.25 2.16032 11.329 2.01967 11.4697C1.87901 11.6103 1.8 11.8011 1.8 12C1.8 12.1989 1.87901 12.3897 2.01967 12.5303C2.16032 12.671 2.35108 12.75 2.55 12.75H3.3V15C3.3 15.5967 3.53705 16.169 3.95901 16.591C4.38096 17.0129 4.95326 17.25 5.55 17.25H7.8C8.39673 17.25 8.96903 17.0129 9.39099 16.591C9.81294 16.169 10.05 15.5967 10.05 15V12.75H14.55V15C14.55 15.5967 14.787 16.169 15.209 16.591C15.631 17.0129 16.2033 17.25 16.8 17.25H19.05C19.6467 17.25 20.219 17.0129 20.641 16.591C21.0629 16.169 21.3 15.5967 21.3 15V12.75H22.05C22.2489 12.75 22.4397 12.671 22.5803 12.5303C22.721 12.3897 22.8 12.1989 22.8 12C22.8 11.8011 22.721 11.6103 22.5803 11.4697C22.4397 11.329 22.2489 11.25 22.05 11.25ZM8.55 15C8.55 15.1989 8.47098 15.3897 8.33033 15.5303C8.18967 15.671 7.99891 15.75 7.8 15.75H5.55C5.35108 15.75 5.16032 15.671 5.01967 15.5303C4.87901 15.3897 4.8 15.1989 4.8 15V9C4.8 8.80109 4.87901 8.61032 5.01967 8.46967C5.16032 8.32902 5.35108 8.25 5.55 8.25H7.8C7.99891 8.25 8.18967 8.32902 8.33033 8.46967C8.47098 8.61032 8.55 8.80109 8.55 9V15ZM19.8 15C19.8 15.1989 19.721 15.3897 19.5803 15.5303C19.4397 15.671 19.2489 15.75 19.05 15.75H16.8C16.6011 15.75 16.4103 15.671 16.2697 15.5303C16.129 15.3897 16.05 15.1989 16.05 15V9C16.05 8.80109 16.129 8.61032 16.2697 8.46967C16.4103 8.32902 16.6011 8.25 16.8 8.25H19.05C19.2489 8.25 19.4397 8.32902 19.5803 8.46967C19.721 8.61032 19.8 8.80109 19.8 9V15Z" fill="#848484"/>
</svg>
