<svg width="20" height="20" viewBox="0 0 20 20" fill="none" xmlns="http://www.w3.org/2000/svg">
<path d="M9.99992 1.66699C8.23181 1.66699 6.53612 2.36937 5.28587 3.61961C4.03563 4.86986 3.33325 6.56555 3.33325 8.33366C3.33325 12.8337 9.20825 17.917 9.45825 18.1337C9.6092 18.2628 9.80129 18.3337 9.99992 18.3337C10.1985 18.3337 10.3906 18.2628 10.5416 18.1337C10.8333 17.917 16.6666 12.8337 16.6666 8.33366C16.6666 6.56555 15.9642 4.86986 14.714 3.61961C13.4637 2.36937 11.768 1.66699 9.99992 1.66699ZM9.99992 16.3753C8.22492 14.7087 4.99992 11.117 4.99992 8.33366C4.99992 7.00758 5.5267 5.73581 6.46438 4.79813C7.40207 3.86044 8.67384 3.33366 9.99992 3.33366C11.326 3.33366 12.5978 3.86044 13.5355 4.79813C14.4731 5.73581 14.9999 7.00758 14.9999 8.33366C14.9999 11.117 11.7749 14.717 9.99992 16.3753ZM9.99992 5.00033C9.34065 5.00033 8.69618 5.19582 8.14802 5.56209C7.59985 5.92836 7.17261 6.44896 6.92032 7.05805C6.66803 7.66713 6.60202 8.33736 6.73063 8.98396C6.85925 9.63056 7.17672 10.2245 7.6429 10.6907C8.10907 11.1569 8.70301 11.4743 9.34962 11.6029C9.99622 11.7316 10.6664 11.6656 11.2755 11.4133C11.8846 11.161 12.4052 10.7337 12.7715 10.1856C13.1378 9.6374 13.3333 8.99293 13.3333 8.33366C13.3333 7.4496 12.9821 6.60176 12.3569 5.97664C11.7318 5.35152 10.884 5.00033 9.99992 5.00033ZM9.99992 10.0003C9.67028 10.0003 9.34805 9.90258 9.07397 9.71944C8.79989 9.53631 8.58627 9.27601 8.46012 8.97146C8.33397 8.66692 8.30097 8.33181 8.36528 8.00851C8.42958 7.68521 8.58832 7.38824 8.82141 7.15515C9.05449 6.92206 9.35147 6.76333 9.67477 6.69902C9.99807 6.63471 10.3332 6.66771 10.6377 6.79386C10.9423 6.92001 11.2026 7.13363 11.3857 7.40771C11.5688 7.68179 11.6666 8.00402 11.6666 8.33366C11.6666 8.77569 11.491 9.19961 11.1784 9.51217C10.8659 9.82473 10.4419 10.0003 9.99992 10.0003Z" fill="#28A228"/>
</svg>
