<svg width="52" height="72" viewBox="0 0 52 72" fill="none" xmlns="http://www.w3.org/2000/svg">
<path d="M21.2041 69.7166C20.1198 69.3616 19.2612 68.5627 19.0159 67.6811C18.9182 67.3298 18.8716 60.1428 18.8711 45.3319L18.8704 23.5005H17.7717V31.7414C17.7717 39.8202 17.7661 39.9922 17.4877 40.4809C17.1272 41.1138 16.7222 41.4104 15.9298 41.622C14.7582 41.9348 13.4768 41.3375 13.0167 40.2641C12.7207 39.5734 12.74 21.1524 13.038 20.0104C13.7096 17.4366 15.8846 15.3278 18.4213 14.7912C19.7575 14.5086 32.1121 14.5051 33.4444 14.787C34.8015 15.0741 35.9672 15.7236 36.9986 16.7674C38.0594 17.841 38.5546 18.7119 38.9241 20.1536C39.1815 21.1585 39.1957 21.6966 39.1957 30.4498C39.1957 38.4513 39.1674 39.7533 38.9844 40.1905C38.6999 40.8703 38.4071 41.176 37.7537 41.4755C36.6694 41.9725 35.2912 41.6527 34.6501 40.7554L34.3204 40.2939L34.283 31.8972L34.2455 23.5005H33.153V45.4391C33.153 69.4879 33.2075 67.8911 32.3561 68.7866C31.6835 69.494 30.9976 69.7616 29.857 69.7616C28.7164 69.7616 28.0306 69.494 27.358 68.7866C26.5231 67.9085 26.561 68.5891 26.561 54.487V41.5962H25.4624V54.487C25.4624 64.9921 25.4281 67.4594 25.2772 67.8189C25.0005 68.478 24.3986 69.1278 23.7668 69.4495C23.1578 69.7597 21.7753 69.9038 21.2041 69.7167L21.2041 69.7166ZM24.2932 13.2543C22.6331 12.6625 21.6069 11.75 20.8806 10.2199C20.4786 9.37295 20.4497 9.21025 20.4497 7.80098C20.4497 6.3751 20.4746 6.23956 20.8938 5.38968C22.9872 1.14485 29.031 1.13445 31.1209 5.37209C31.5536 6.24948 31.5737 6.36004 31.5737 7.86954C31.5737 9.32122 31.5427 9.51204 31.1898 10.2293C30.5971 11.4341 29.7216 12.3127 28.5258 12.9026C27.5974 13.3607 27.3616 13.4177 26.2363 13.4565C25.2919 13.4891 24.8115 13.4391 24.2932 13.2543Z" fill="#848484"/>
</svg>
