<svg width="250" height="250" viewBox="0 0 250 250" fill="none" xmlns="http://www.w3.org/2000/svg">
<path d="M205.455 137.75L212.13 137.61L215.42 137.555C216.515 137.53 217.6 137.555 218.695 137.525L218.47 137.75L218.445 132.155L218.695 132.405L212.075 132.37C209.865 132.37 207.66 132.315 205.455 132.29L205.59 132.155C205.59 133.07 205.545 133.99 205.525 134.92L205.455 137.75ZM205.455 137.75L205.38 134.98C205.38 134.045 205.325 133.105 205.315 132.155V132H205.455C207.66 132 209.865 131.925 212.075 131.92L218.695 131.89H218.945V132.14L218.915 137.735V138H218.695C217.575 138 216.46 138 215.345 137.975L212.015 137.92L205.455 137.75Z" fill="#EBEBEB"/>
<path d="M212.84 144.805L219.515 144.665L222.805 144.61C223.9 144.585 224.99 144.61 226.08 144.58L225.855 144.805V139.21L226.105 139.46L219.485 139.425C217.275 139.425 215.07 139.37 212.865 139.345L213 139.21C213 140.125 212.955 141.045 212.935 141.975L212.84 144.805ZM212.84 144.805L212.77 142.035C212.745 141.1 212.71 140.16 212.7 139.21V139.075H212.84C215.045 139.05 217.25 139 219.46 138.995L226.08 138.965H226.33V139.215L226.3 144.81V145.035H226.08C224.965 145.035 223.845 145.035 222.73 145.01L219.4 144.955L212.84 144.805Z" fill="#EBEBEB"/>
<path d="M198.04 144.8H211.28V139.205H198.04V144.8Z" fill="#EBEBEB"/>
<path d="M23.92 183.425L30.6 183.285L33.89 183.23C34.98 183.23 36.07 183.23 37.16 183.2L36.94 183.425L36.91 177.83L37.16 178.08L30.54 178.045C28.335 178.045 26.13 177.99 23.92 177.965L24.055 177.83C24.055 178.745 24.015 179.665 23.99 180.595L23.92 183.425ZM23.92 183.425L23.85 180.655C23.825 179.72 23.795 178.78 23.785 177.83V177.695H23.92C26.13 177.67 28.335 177.62 30.54 177.615L37.16 177.585H37.41V177.835V183.43V183.655H37.185C36.07 183.655 34.95 183.655 33.84 183.63L30.5 183.565L23.92 183.425Z" fill="#EBEBEB"/>
<path d="M31.3101 190.475H44.55V184.88H31.3101V190.475Z" fill="#EBEBEB"/>
<path d="M58.225 78.9302L64.905 78.7902L68.195 78.7352C69.285 78.7102 70.375 78.7352 71.465 78.7102L71.245 78.9302L71.215 73.3352L71.465 73.5852L64.845 73.5552C62.64 73.5552 60.43 73.5002 58.225 73.4702L58.36 73.3352C58.36 74.2502 58.32 75.1752 58.295 76.1052L58.225 78.9302ZM58.225 78.9302L58.155 76.1652C58.155 75.2302 58.1 74.2852 58.09 73.3352V73.2002H58.225C60.43 73.1752 62.64 73.1202 64.845 73.1202L71.465 73.0852H71.715V73.3352L71.69 78.9302V79.1552H71.47C70.355 79.1552 69.235 79.1552 68.125 79.1252L64.795 79.0702L58.225 78.9302Z" fill="#EBEBEB"/>
<path d="M31.24 30.5701H44.48V24.9751H31.24V30.5701Z" fill="#EBEBEB"/>
<path d="M23.86 37.625L30.535 37.5L33.825 37.445C34.92 37.445 36.005 37.445 37.1 37.445L36.875 37.665V32.07L37.125 32.32L30.5 32.25C28.29 32.25 26.085 32.195 23.88 32.165L24.015 32.03C24.015 32.945 23.97 33.865 23.95 34.8L23.86 37.625ZM23.86 37.625L23.785 34.86C23.785 33.925 23.73 32.98 23.72 32.03V31.895H23.86C26.065 31.895 28.27 31.815 30.48 31.81L37.1 31.78H37.35V32.03L37.32 37.625V37.85H37.1C35.98 37.85 34.865 37.85 33.75 37.82L30.42 37.765L23.86 37.625Z" fill="#EBEBEB"/>
<path d="M205.455 30.5701L212.13 30.4301L215.42 30.3751C216.515 30.3751 217.6 30.3751 218.695 30.3751L218.47 30.5951L218.445 25.0001L218.695 25.2501L212.075 25.2201C209.865 25.2201 207.66 25.1651 205.455 25.1351L205.59 25.0001C205.59 25.9151 205.545 26.8351 205.525 27.7701L205.455 30.5701ZM205.455 30.5701L205.38 27.8051C205.38 26.8701 205.325 25.9251 205.315 24.9751V24.8401H205.455C207.66 24.8401 209.865 24.7601 212.075 24.7551L218.695 24.7251H218.945V25.0001L218.915 30.5951V30.8201H218.695C217.575 30.8201 216.46 30.8201 215.345 30.7901L212 30.7101L205.455 30.5701Z" fill="#EBEBEB"/>
<path d="M184.525 100.535H197.765V94.9402H184.525V100.535Z" fill="#EBEBEB"/>
<path d="M43.615 59.7002C43.8634 59.5481 44.1489 59.4677 44.44 59.4677C44.7312 59.4677 45.0167 59.5481 45.265 59.7002L45.69 59.9452C45.835 60.0202 45.98 60.0952 46.13 60.1652C46.394 60.2862 46.6195 60.4776 46.7818 60.7184C46.9441 60.9592 47.0369 61.2401 47.05 61.5302L47.11 63.5602L53.73 63.3552L53.665 61.3252C53.6584 61.0335 53.7323 60.7457 53.8788 60.4934C54.0252 60.2411 54.2385 60.0341 54.495 59.8952C54.7839 59.7439 55.0643 59.5769 55.335 59.3952C55.5728 59.2274 55.8523 59.1288 56.1427 59.1103C56.4331 59.0918 56.7229 59.154 56.98 59.2902L58.765 60.2452L61.895 54.4102L60.11 53.4502C59.8541 53.3123 59.6414 53.1061 59.4957 52.8545C59.3501 52.6029 59.2771 52.3158 59.285 52.0252C59.2957 51.6915 59.2857 51.3576 59.255 51.0252C59.2229 50.7318 59.2743 50.4352 59.4035 50.1698C59.5327 49.9044 59.7343 49.6809 59.985 49.5252L61.71 48.5002L58.21 42.8752L56.5 43.9302C56.2527 44.0823 55.9679 44.1629 55.6775 44.1629C55.3871 44.1629 55.1024 44.0823 54.855 43.9302C54.72 43.8452 54.575 43.7652 54.435 43.6902C54.295 43.6152 54.145 43.5352 53.995 43.4702C53.7303 43.3488 53.5043 43.1566 53.342 42.9148C53.1796 42.6731 53.0872 42.3911 53.075 42.1002L53 40.0552L46.38 40.2602L46.445 42.2602C46.454 42.5523 46.381 42.841 46.2343 43.0937C46.0876 43.3465 45.8731 43.5531 45.615 43.6902C45.3262 43.8416 45.0458 44.0085 44.775 44.1902C44.5378 44.359 44.2581 44.4582 43.9675 44.4768C43.6769 44.4953 43.3868 44.4324 43.13 44.2952L41.345 43.3402L38.215 49.2202L40 50.1802C40.2558 50.3178 40.4681 50.5241 40.613 50.7759C40.7579 51.0276 40.8296 51.3149 40.82 51.6052C40.8137 51.9389 40.8254 52.2727 40.855 52.6052C40.8866 52.8985 40.8348 53.1948 40.7057 53.4602C40.5766 53.7255 40.3754 53.949 40.125 54.1052L38.4 55.1752L41.9 60.8002L43.615 59.7002ZM45.27 49.2502C45.7753 48.3036 46.55 47.5281 47.4961 47.0218C48.4421 46.5155 49.5171 46.3011 50.585 46.4058C51.6529 46.5105 52.6657 46.9294 53.4955 47.6098C54.3253 48.2901 54.9346 49.2012 55.2465 50.2279C55.5585 51.2546 55.5589 52.3507 55.2479 53.3776C54.9368 54.4046 54.3282 55.3162 53.499 55.9972C52.6698 56.6782 51.6572 57.0981 50.5894 57.2036C49.5216 57.3092 48.4465 57.0957 47.5 56.5902C46.2321 55.9115 45.2851 54.7574 44.8671 53.3814C44.449 52.0053 44.5939 50.5195 45.27 49.2502Z" fill="#EBEBEB"/>
<path d="M217 127.77C217.104 127.594 217.255 127.45 217.436 127.354C217.617 127.259 217.821 127.216 218.025 127.23H218.71C218.91 127.22 219.108 127.264 219.285 127.358C219.461 127.452 219.608 127.593 219.71 127.765L220.42 129L224.42 126.68L223.71 125.45C223.608 125.273 223.558 125.071 223.565 124.867C223.572 124.663 223.636 124.465 223.75 124.295C223.877 124.098 223.992 123.898 224.095 123.695C224.188 123.51 224.331 123.355 224.508 123.247C224.684 123.139 224.888 123.083 225.095 123.085H226.515V118.445H225.095C224.888 118.448 224.685 118.393 224.508 118.286C224.331 118.179 224.188 118.025 224.095 117.84C223.992 117.634 223.877 117.433 223.75 117.24C223.636 117.071 223.572 116.872 223.565 116.668C223.558 116.464 223.608 116.262 223.71 116.085L224.42 114.85L220.42 112.535L219.705 113.77C219.604 113.943 219.457 114.085 219.281 114.18C219.104 114.275 218.905 114.32 218.705 114.31C218.59 114.31 218.475 114.31 218.36 114.31C218.245 114.31 218.135 114.31 218.02 114.31C217.816 114.323 217.613 114.279 217.432 114.184C217.251 114.089 217.1 113.945 216.995 113.77L216.285 112.535L212.285 114.85L212.995 116.08C213.097 116.257 213.147 116.459 213.14 116.663C213.133 116.867 213.069 117.066 212.955 117.235C212.832 117.432 212.717 117.632 212.61 117.835C212.518 118.021 212.375 118.176 212.198 118.284C212.021 118.392 211.817 118.448 211.61 118.445H210.19V123.085H211.61C211.817 123.083 212.021 123.139 212.198 123.247C212.374 123.355 212.517 123.51 212.61 123.695C212.713 123.902 212.828 124.102 212.955 124.295C213.069 124.465 213.133 124.663 213.14 124.867C213.147 125.071 213.097 125.273 212.995 125.45L212.285 126.68L216.285 129L217 127.77ZM214.565 120.77C214.564 120.018 214.786 119.283 215.203 118.658C215.62 118.032 216.213 117.544 216.907 117.256C217.602 116.967 218.366 116.892 219.103 117.038C219.841 117.184 220.518 117.545 221.05 118.076C221.582 118.608 221.945 119.285 222.092 120.022C222.239 120.759 222.164 121.524 221.876 122.218C221.589 122.913 221.102 123.507 220.477 123.924C219.852 124.342 219.117 124.565 218.365 124.565C217.359 124.563 216.396 124.162 215.685 123.451C214.973 122.74 214.573 121.776 214.57 120.77H214.565Z" fill="#EBEBEB"/>
<path d="M24.69 68.8352C24.8669 68.9384 25.0112 69.0892 25.1067 69.2704C25.2021 69.4516 25.2449 69.6559 25.23 69.8602C25.23 69.9702 25.23 70.0852 25.23 70.2002C25.23 70.3152 25.23 70.4302 25.23 70.5452C25.2406 70.7448 25.1964 70.9436 25.1021 71.1198C25.0078 71.2961 24.867 71.4432 24.695 71.5452L23.46 72.2552L25.78 76.2552L27 75.5802C27.1775 75.4796 27.3793 75.4301 27.5832 75.4372C27.787 75.4442 27.985 75.5076 28.155 75.6202C28.35 75.7452 28.55 75.8652 28.755 75.9702C28.9371 76.0601 29.0906 76.199 29.1983 76.3712C29.3061 76.5433 29.3638 76.7421 29.365 76.9452V78.3652H34V76.9452C34.0002 76.7425 34.057 76.5439 34.1638 76.3716C34.2707 76.1994 34.4235 76.0604 34.605 75.9702C34.8117 75.8654 35.0121 75.7486 35.205 75.6202C35.3751 75.5076 35.573 75.4442 35.7769 75.4372C35.9807 75.4301 36.1826 75.4796 36.36 75.5802L37.595 76.2902L39.91 72.2902L38.675 71.5752C38.5033 71.4726 38.3624 71.3256 38.2673 71.1495C38.1723 70.9735 38.1266 70.7751 38.135 70.5752C38.135 70.4602 38.135 70.3502 38.135 70.2352C38.135 70.1202 38.135 70.0052 38.135 69.8952C38.1219 69.6912 38.1654 69.4875 38.2607 69.3066C38.356 69.1258 38.4994 68.9747 38.675 68.8702L39.91 68.1602L37.595 64.1602L36.365 64.8702C36.1879 64.9719 35.9859 65.022 35.7818 65.015C35.5777 65.0079 35.3797 64.9439 35.21 64.8302C35.0167 64.7069 34.8167 64.5919 34.61 64.4852C34.4245 64.3929 34.2688 64.2501 34.1608 64.0731C34.0529 63.8962 33.9972 63.6924 34 63.4852V62.0652H29.375V63.4852C29.3773 63.6923 29.3213 63.8959 29.2134 64.0727C29.1056 64.2495 28.9502 64.3924 28.765 64.4852C28.5584 64.5882 28.358 64.7034 28.165 64.8302C27.9944 64.9438 27.7956 65.0077 27.5907 65.0148C27.3858 65.0218 27.1831 64.9718 27.005 64.8702L25.78 64.1602L23.46 68.1602L24.69 68.8352ZM31.69 66.4002C32.4418 66.3992 33.177 66.6212 33.8026 67.0382C34.4281 67.4551 34.9159 68.0482 35.2043 68.7425C35.4927 69.4368 35.5687 70.201 35.4226 70.9385C35.2766 71.6759 34.915 72.3535 34.3838 72.8854C33.8526 73.4174 33.1755 73.7798 32.4382 73.9268C31.7009 74.0738 30.9366 73.9989 30.242 73.7114C29.5473 73.4239 28.9536 72.9369 28.5358 72.3119C28.118 71.6869 27.895 70.952 27.895 70.2002C27.8963 69.1936 28.2964 68.2286 29.0077 67.5164C29.719 66.8042 30.6835 66.4028 31.69 66.4002Z" fill="#EBEBEB"/>
<path d="M65.98 236.485C86.0279 236.485 102.28 234.159 102.28 231.29C102.28 228.421 86.0279 226.095 65.98 226.095C45.9321 226.095 29.68 228.421 29.68 231.29C29.68 234.159 45.9321 236.485 65.98 236.485Z" fill="#EBEBEB"/>
<path d="M198.08 175.615C194.38 168.01 187.905 164.115 180.58 166.26C173.255 168.405 172.15 178.595 177.58 181.165C183.01 183.735 188.475 176.235 191.355 174.69C194.235 173.145 198.08 175.615 198.08 175.615Z" fill="#28A228"/>
<path d="M201.665 195.865C201.665 194.95 201.61 194.03 201.575 193.115C201.51 191.285 201.45 189.455 201.385 187.615C201.26 184.27 200.885 180.98 199.51 177.895C198.285 175.097 196.238 172.737 193.64 171.13C192.677 170.547 191.639 170.098 190.555 169.795C189.574 168.791 188.321 168.096 186.95 167.795C185.261 167.452 183.524 167.408 181.82 167.665C181.755 167.665 181.76 167.77 181.82 167.76C183.447 167.554 185.099 167.671 186.68 168.105C187.355 168.295 188.01 168.551 188.635 168.87C189.028 169.081 189.406 169.32 189.765 169.585C188.292 169.281 186.771 169.296 185.305 169.63C184.777 169.754 184.26 169.921 183.76 170.13C183.359 170.043 182.95 170.008 182.54 170.025C182.007 170.045 181.477 170.12 180.96 170.25C179.904 170.548 178.895 170.99 177.96 171.565C177.905 171.595 177.96 171.675 178.01 171.645C178.931 171.143 179.917 170.771 180.94 170.54C181.434 170.429 181.935 170.356 182.44 170.32C182.72 170.305 183 170.305 183.28 170.32C181.2 171.281 179.527 172.948 178.56 175.025C178.535 175.08 178.62 175.13 178.645 175.07C179.22 173.868 180.058 172.811 181.096 171.977C182.135 171.143 183.348 170.553 184.645 170.25C184.805 170.21 184.97 170.19 185.145 170.155C185.09 170.39 185.1 170.655 185.07 170.89C185.02 171.26 184.96 171.63 184.885 171.995C184.732 172.75 184.533 173.494 184.29 174.225C184.043 174.962 183.747 175.682 183.405 176.38C183.079 177.122 182.664 177.822 182.17 178.465C182.164 178.47 182.16 178.476 182.157 178.483C182.154 178.49 182.153 178.498 182.153 178.506C182.154 178.513 182.156 178.521 182.16 178.527C182.163 178.534 182.169 178.539 182.175 178.544C182.181 178.548 182.188 178.551 182.196 178.552C182.203 178.553 182.211 178.552 182.218 178.55C182.225 178.548 182.232 178.544 182.238 178.539C182.243 178.534 182.247 178.527 182.25 178.52C182.685 177.835 183.195 177.2 183.595 176.49C183.984 175.809 184.318 175.099 184.595 174.365C184.876 173.625 185.093 172.862 185.245 172.085C185.33 171.675 185.39 171.26 185.44 170.845C185.487 170.596 185.503 170.343 185.485 170.09C186.343 169.961 187.213 169.944 188.075 170.04C187.755 171.855 187.405 173.745 186.39 175.32C186.355 175.375 186.445 175.425 186.475 175.365C186.951 174.53 187.368 173.663 187.725 172.77C188.062 171.904 188.274 170.995 188.355 170.07C189.862 170.272 191.316 170.759 192.64 171.505C195.132 172.957 197.122 175.133 198.345 177.745C199.633 180.56 200.351 183.602 200.46 186.695C200.7 190.58 200.75 194.495 201.14 198.37C201.165 198.625 201.565 198.71 201.64 198.42C201.726 197.571 201.734 196.716 201.665 195.865Z" fill="#263238"/>
<path d="M193.11 170.525C192.866 170.229 192.584 169.966 192.27 169.745C191.965 169.495 191.655 169.245 191.33 169.035C190.689 168.589 189.98 168.251 189.23 168.035C189.17 168.035 189.145 168.12 189.23 168.13C189.983 168.317 190.69 168.657 191.305 169.13C191.615 169.36 191.91 169.6 192.2 169.855C192.457 170.125 192.742 170.366 193.05 170.575C193.08 170.645 193.15 170.58 193.11 170.525Z" fill="#263238"/>
<path d="M181.3 173.28C180.688 173.993 180.12 174.743 179.6 175.525C179.097 176.314 178.674 177.151 178.34 178.025C178.34 178.05 178.37 178.065 178.385 178.025C179.237 176.369 180.242 174.796 181.385 173.325C181.41 173.3 181.34 173.235 181.3 173.28Z" fill="#263238"/>
<path d="M189.26 172.53C189.182 173.005 189.043 173.467 188.845 173.905C188.64 174.329 188.405 174.736 188.14 175.125C188.14 175.15 188.14 175.175 188.18 175.155C188.82 174.422 189.229 173.515 189.355 172.55C189.365 172.5 189.27 172.465 189.26 172.53Z" fill="#263238"/>
<path d="M201.15 175.805C201.15 175.805 206.39 169.215 216.5 171.55C226.115 173.77 230.55 191.4 220.84 193.505C211.13 195.61 212.84 179.305 209.295 176.535C206.7 174.5 202.965 174.94 201.15 175.805Z" fill="#28A228"/>
<path d="M224.315 181.18C223.656 180.602 222.959 180.068 222.23 179.58C221.543 179.112 220.797 178.738 220.01 178.47C219.614 177.872 219.173 177.305 218.69 176.775C217.797 175.818 216.768 174.997 215.635 174.34H215.935C216.47 174.313 217.005 174.313 217.54 174.34C218.62 174.408 219.678 174.671 220.665 175.115C220.72 175.115 220.76 175.05 220.705 175.03C219.706 174.598 218.661 174.283 217.59 174.09C217.069 173.998 216.54 173.953 216.01 173.955C215.726 173.957 215.442 173.973 215.16 174.005H214.995C214.068 173.538 213.089 173.179 212.08 172.935L212.365 172.855C212.861 172.748 213.361 172.666 213.865 172.61C214.873 172.495 215.891 172.51 216.895 172.655C216.905 172.652 216.914 172.645 216.92 172.637C216.926 172.628 216.929 172.618 216.929 172.608C216.929 172.597 216.926 172.587 216.92 172.578C216.914 172.57 216.905 172.563 216.895 172.56C215.88 172.44 214.857 172.4 213.835 172.44C212.978 172.464 212.125 172.574 211.29 172.77C210.682 172.657 210.068 172.587 209.45 172.56C205.92 172.41 202.075 173.725 199.905 176.625C197.735 179.525 197.31 183.395 196.905 186.895C196.312 191.774 196.183 196.697 196.52 201.6C196.52 201.885 196.95 201.835 196.955 201.56C197.09 197.405 197.235 193.245 197.635 189.105C197.82 187.185 198.02 185.26 198.34 183.36C198.574 181.724 199.044 180.131 199.735 178.63C200.486 177.096 201.674 175.819 203.15 174.96C204.63 174.107 206.282 173.595 207.985 173.46C209.51 173.332 211.045 173.476 212.52 173.885C212.467 174.181 212.459 174.482 212.495 174.78C212.53 175.155 212.605 175.526 212.72 175.885C212.827 176.231 212.968 176.566 213.14 176.885C213.33 177.23 213.565 177.54 213.775 177.885C213.805 177.935 213.89 177.885 213.85 177.83C213.435 177.234 213.166 176.549 213.065 175.83C213.005 175.489 212.965 175.145 212.945 174.8C212.945 174.54 212.945 174.275 212.945 174.015C214.549 174.509 216.047 175.3 217.36 176.345C217.605 176.545 217.86 176.75 218.075 176.965C217.742 177.276 217.453 177.631 217.215 178.02C216.869 178.526 216.568 179.062 216.315 179.62C215.851 180.741 215.537 181.917 215.38 183.12C215.38 183.18 215.47 183.2 215.475 183.12C215.664 181.951 216.055 180.825 216.63 179.79C216.896 179.271 217.195 178.77 217.525 178.29C217.695 178.05 217.87 177.79 218.055 177.575C218.155 177.45 218.265 177.32 218.355 177.185C219.545 178.35 220.517 179.718 221.225 181.225C220.742 181.751 220.346 182.35 220.05 183C219.688 183.643 219.372 184.312 219.105 185C218.616 186.347 218.212 187.723 217.895 189.12C217.895 189.18 217.98 189.2 217.99 189.12C218.3 187.711 218.782 186.346 219.425 185.055C219.73 184.425 220.05 183.8 220.385 183.185C220.734 182.613 221.051 182.022 221.335 181.415C222.008 182.891 222.4 184.48 222.49 186.1C222.49 186.16 222.59 186.155 222.585 186.1C222.399 183.559 221.622 181.097 220.315 178.91C220.935 179.175 221.555 179.41 222.15 179.75C222.91 180.16 223.616 180.664 224.25 181.25C224.295 181.295 224.36 181.22 224.315 181.18Z" fill="#263238"/>
<path d="M216.895 181.55C216.595 182.55 216.21 183.52 215.935 184.55C215.663 185.51 215.516 186.502 215.5 187.5C215.5 187.53 215.545 187.53 215.55 187.5C215.824 185.481 216.31 183.497 217 181.58C217.002 181.573 217.003 181.566 217.002 181.559C217.001 181.552 216.999 181.545 216.995 181.539C216.992 181.532 216.987 181.527 216.981 181.522C216.976 181.518 216.969 181.515 216.962 181.513C216.956 181.511 216.948 181.51 216.941 181.511C216.934 181.512 216.927 181.514 216.921 181.517C216.915 181.521 216.909 181.526 216.905 181.531C216.9 181.537 216.897 181.543 216.895 181.55Z" fill="#263238"/>
<path d="M223.305 179.075C222.908 178.692 222.456 178.371 221.965 178.12C221.465 177.892 220.947 177.708 220.415 177.57C220.355 177.57 220.335 177.65 220.415 177.665C220.941 177.799 221.446 178.006 221.915 178.28C222.393 178.528 222.853 178.811 223.29 179.125C223.295 179.124 223.3 179.121 223.304 179.118C223.308 179.114 223.311 179.11 223.312 179.104C223.314 179.099 223.314 179.094 223.313 179.089C223.311 179.084 223.309 179.079 223.305 179.075Z" fill="#263238"/>
<path d="M206.13 167C206.13 167 207.095 155.17 215.89 151.335C223.235 148.135 227.44 156.385 222.25 161.44C218.05 165.53 211.315 163.685 206.13 167Z" fill="#28A228"/>
<path d="M220.625 153.63C219.285 154.172 217.978 154.791 216.71 155.485C215.658 156.088 214.644 156.756 213.675 157.485C213.82 157.185 213.945 156.875 214.095 156.58C214.325 156.125 214.57 155.675 214.84 155.245C215.381 154.348 216.033 153.523 216.78 152.79C216.825 152.75 216.75 152.68 216.71 152.725C215.965 153.459 215.283 154.253 214.67 155.1C214.367 155.529 214.088 155.975 213.835 156.435C213.576 156.861 213.376 157.32 213.24 157.8L213.145 157.87C211.609 159.094 210.202 160.471 208.945 161.98C208.97 161.865 208.99 161.75 209.025 161.64C209.19 161.065 209.365 160.49 209.555 159.92C209.936 158.707 210.47 157.547 211.145 156.47C211.18 156.42 211.095 156.37 211.06 156.425C210.37 157.503 209.755 158.627 209.22 159.79C208.974 160.358 208.771 160.943 208.61 161.54C208.483 161.928 208.388 162.326 208.325 162.73C207.94 163.23 207.565 163.705 207.21 164.23C203.435 169.605 201.54 176.105 201.085 182.615C200.952 184.554 200.918 186.498 200.985 188.44C200.994 190.4 201.161 192.357 201.485 194.29C201.51 194.415 201.7 194.375 201.7 194.255C201.655 192.545 201.48 190.845 201.445 189.135C201.412 187.42 201.468 185.704 201.61 183.995C201.886 180.581 202.53 177.206 203.53 173.93C204.551 170.573 206.057 167.382 208 164.46C208.37 164.385 208.74 164.285 209.105 164.19C209.47 164.095 209.985 163.965 210.42 163.845C211.264 163.627 212.085 163.325 212.87 162.945C212.875 162.942 212.88 162.937 212.883 162.932C212.887 162.927 212.89 162.922 212.891 162.916C212.892 162.91 212.893 162.903 212.892 162.897C212.891 162.891 212.888 162.885 212.885 162.88C212.882 162.875 212.877 162.87 212.872 162.867C212.867 162.863 212.862 162.86 212.856 162.859C212.85 162.858 212.843 162.857 212.837 162.858C212.831 162.86 212.825 162.862 212.82 162.865C212.04 163.288 211.195 163.577 210.32 163.72C209.63 163.86 208.915 163.945 208.225 164.105C208.865 163.175 209.545 162.275 210.27 161.415C211.946 161.567 213.635 161.442 215.27 161.045C216.14 160.834 216.995 160.567 217.83 160.245C218.715 159.905 219.545 159.47 220.415 159.105C220.426 159.1 220.435 159.09 220.439 159.078C220.443 159.067 220.443 159.054 220.438 159.043C220.432 159.031 220.423 159.023 220.411 159.018C220.399 159.014 220.386 159.015 220.375 159.02C218.801 159.878 217.082 160.441 215.305 160.68C213.736 160.932 212.149 161.062 210.56 161.07C211.185 160.355 211.83 159.655 212.52 159C214.83 156.8 217.575 154.78 220.615 153.725C220.71 153.705 220.68 153.61 220.625 153.63Z" fill="#263238"/>
<path d="M213.465 153.67C213.067 154.168 212.706 154.694 212.385 155.245C212.057 155.825 211.797 156.441 211.61 157.08C211.61 157.08 211.61 157.115 211.645 157.08C211.94 156.5 212.185 155.895 212.485 155.32C212.775 154.75 213.128 154.213 213.535 153.72C213.575 153.685 213.5 153.62 213.465 153.67Z" fill="#263238"/>
<path d="M221.645 157.605C221.073 157.923 220.468 158.177 219.84 158.36C219.238 158.561 218.626 158.728 218.005 158.86C217.975 158.86 217.98 158.915 218.005 158.91C218.653 158.842 219.292 158.703 219.91 158.495C220.518 158.263 221.113 157.996 221.69 157.695C221.75 157.66 221.7 157.575 221.645 157.605Z" fill="#263238"/>
<path d="M199.29 164.88C199.235 165.38 197.96 160.58 190.52 156.315C183.77 152.44 175.705 142.36 182.33 135.99C187.675 130.85 201.76 142.055 199.29 164.88Z" fill="#28A228"/>
<path d="M204.41 192.435C204.301 187.438 203.907 182.452 203.23 177.5C202.642 172.943 201.588 168.457 200.085 164.115C199.535 162.55 198.9 161.015 198.215 159.5C198.253 158.91 198.243 158.318 198.185 157.73C198.15 156.97 198.08 156.23 198.01 155.46C197.94 154.69 197.865 153.96 197.775 153.195C197.685 152.43 197.525 151.695 197.495 150.94C197.498 150.933 197.498 150.925 197.497 150.917C197.496 150.909 197.493 150.901 197.488 150.895C197.483 150.889 197.477 150.883 197.47 150.88C197.463 150.876 197.455 150.874 197.448 150.874C197.44 150.874 197.432 150.876 197.425 150.88C197.418 150.883 197.412 150.889 197.407 150.895C197.402 150.901 197.399 150.909 197.398 150.917C197.397 150.925 197.398 150.933 197.4 150.94C197.548 151.731 197.637 152.531 197.665 153.335C197.725 154.065 197.765 154.795 197.785 155.525C197.81 156.26 197.785 156.99 197.785 157.725C197.785 157.985 197.785 158.265 197.76 158.55C197.065 157.05 196.315 155.615 195.5 154.2C196 151.115 195.35 147.89 194.72 144.875C194.72 144.815 194.615 144.845 194.63 144.905C194.942 146.48 195.109 148.08 195.13 149.685C195.16 150.95 195.1 152.215 195.095 153.48C194.915 153.18 194.74 152.875 194.555 152.575C193.59 151 192.555 149.455 191.465 147.96C191.554 147.229 191.531 146.489 191.395 145.765C191.273 144.951 191.092 144.148 190.855 143.36C190.615 142.575 190.355 141.8 190.03 141.04C189.705 140.28 189.28 139.515 188.97 138.735C188.94 138.665 188.845 138.735 188.88 138.77C189.277 139.511 189.589 140.294 189.81 141.105C190.058 141.864 190.262 142.637 190.42 143.42C190.58 144.2 190.705 144.985 190.815 145.78C190.89 146.28 190.935 146.845 191.025 147.37C189.433 145.231 187.694 143.207 185.82 141.31C185.775 141.265 185.71 141.335 185.75 141.38C188.586 144.567 191.119 148.012 193.315 151.67L193.55 152.08C193.14 151.825 192.67 151.62 192.285 151.405L190.12 150.215L188.01 149.065C187.65 148.865 187.295 148.655 186.925 148.465C186.486 148.269 186.065 148.037 185.665 147.77C185.655 147.763 185.643 147.76 185.63 147.762C185.618 147.763 185.607 147.77 185.6 147.78C185.593 147.79 185.59 147.802 185.592 147.815C185.593 147.827 185.6 147.838 185.61 147.845C186.325 148.24 186.96 148.845 187.65 149.265C188.34 149.685 189.05 150.135 189.775 150.54C191.095 151.275 192.53 151.805 193.835 152.57C194.735 154.15 195.568 155.768 196.335 157.425C195.545 156.925 194.74 156.425 193.92 155.975C193.395 155.68 192.865 155.39 192.33 155.11C191.799 154.864 191.296 154.56 190.83 154.205C190.82 154.2 190.81 154.199 190.799 154.201C190.789 154.203 190.779 154.208 190.772 154.216C190.764 154.224 190.76 154.234 190.759 154.244C190.758 154.255 190.76 154.266 190.765 154.275C191.631 155.058 192.592 155.73 193.625 156.275C194.58 156.835 195.545 157.375 196.54 157.86C197.333 159.607 198.05 161.382 198.69 163.185C201.82 172.05 202.97 181.46 203.52 190.805C203.685 193.59 203.77 196.375 203.805 199.165C203.84 201.955 203.69 204.735 203.695 207.52C203.695 207.6 203.83 207.62 203.845 207.52C204.18 205.05 204.235 202.52 204.345 200.05C204.455 197.58 204.465 194.97 204.41 192.435Z" fill="#263238"/>
<path d="M190.895 152.305C189.538 151.707 188.218 151.026 186.945 150.265C185.653 149.535 184.4 148.739 183.19 147.88C183.19 147.88 183.15 147.88 183.165 147.915C184.308 148.83 185.513 149.665 186.77 150.415C188.088 151.151 189.451 151.804 190.85 152.37C190.91 152.415 190.955 152.33 190.895 152.305Z" fill="#263238"/>
<path d="M193.05 142.285C192.94 141.855 192.805 141.43 192.66 141.01C192.664 141.002 192.667 140.994 192.667 140.985C192.667 140.976 192.664 140.968 192.66 140.96C192.565 140.72 192.465 140.46 192.37 140.245L192.335 140.155C192.335 140.11 192.295 140.065 192.28 140.02C192.265 139.975 192.25 140.02 192.255 140.02C192.26 140.02 192.3 140.185 192.325 140.265C192.336 140.311 192.349 140.356 192.365 140.4C192.858 142.054 193.227 143.742 193.47 145.45C193.47 145.505 193.56 145.505 193.555 145.45C193.486 144.382 193.317 143.322 193.05 142.285Z" fill="#263238"/>
<path d="M212.27 194.235L211.74 200.525L210.115 219.71H192.71L191.085 200.525L190.555 194.235H212.27Z" fill="#37474F"/>
<path d="M212.27 194.235L211.74 200.525H191.085L190.555 194.235H212.27Z" fill="#263238"/>
<path d="M213.975 191.71H188.845V197.745H213.975V191.71Z" fill="#37474F"/>
<path d="M23.72 219.71L49.04 219.59L74.36 219.545L125 219.46L175.64 219.54L200.96 219.585L226.28 219.71L200.96 219.83L175.64 219.875L125 219.96L74.36 219.875L49.04 219.83L23.72 219.71Z" fill="#263238"/>
<path d="M167.255 28.2849H82.755C81.6191 28.2921 80.4959 28.5234 79.4496 28.9657C78.4033 29.4079 77.4547 30.0524 76.658 30.862C75.8614 31.6717 75.2324 32.6307 74.8071 33.6839C74.3819 34.7372 74.1688 35.8641 74.18 36.9999V211C74.16 213.289 75.05 215.493 76.6542 217.126C78.2585 218.759 80.4457 219.689 82.735 219.71H167.235C168.371 219.702 169.494 219.471 170.54 219.028C171.586 218.586 172.535 217.943 173.332 217.134C174.129 216.325 174.76 215.367 175.186 214.314C175.613 213.262 175.829 212.136 175.82 211V36.9999C175.83 35.8653 175.616 34.7398 175.191 33.6878C174.766 32.6357 174.138 31.6777 173.343 30.8684C172.547 30.0592 171.6 29.4145 170.556 28.9712C169.511 28.5279 168.39 28.2947 167.255 28.2849ZM170.47 205.62C170.47 210.2 167.04 213.905 162.81 213.905H87.195C82.955 213.905 79.525 210.2 79.525 205.62V43.5899C79.525 34.2599 82.955 33.8049 87.195 33.8049H102.34C103.22 33.8049 103.94 34.8049 103.94 36.0449V36.5799C103.94 39.4999 105.53 39.4999 107.5 39.4999H142.5C144.465 39.4999 146.045 39.4999 146.045 36.5849V36.0449C146.045 34.8049 146.75 33.8049 147.645 33.8049H162.795C167.025 33.8049 170.455 35.0449 170.455 43.5899L170.47 205.62Z" fill="#263238"/>
<path d="M129.775 35.8648H120.22C120.143 35.8648 120.066 35.8496 119.994 35.8199C119.923 35.7903 119.858 35.7468 119.803 35.692C119.748 35.6372 119.705 35.5722 119.675 35.5006C119.645 35.429 119.63 35.3523 119.63 35.2748C119.63 35.1183 119.692 34.9683 119.803 34.8576C119.913 34.747 120.064 34.6848 120.22 34.6848H129.775C129.931 34.6848 130.082 34.747 130.192 34.8576C130.303 34.9683 130.365 35.1183 130.365 35.2748C130.365 35.3523 130.35 35.429 130.32 35.5006C130.29 35.5722 130.247 35.6372 130.192 35.692C130.137 35.7468 130.072 35.7903 130.001 35.8199C129.929 35.8496 129.852 35.8648 129.775 35.8648Z" fill="white"/>
<path d="M170.5 43.5899V205.62C170.5 210.2 167.07 213.905 162.84 213.905H87.195C82.955 213.905 79.525 210.2 79.525 205.62V43.5899C79.525 34.2599 82.955 33.8049 87.195 33.8049H102.34C103.22 33.8049 103.94 34.8049 103.94 36.0449V36.5799C103.94 39.4999 105.53 39.4999 107.5 39.4999H142.5C144.47 39.4999 146.045 39.4999 146.045 36.5849V36.0449C146.045 34.8049 146.755 33.8049 147.65 33.8049H162.8C167.045 33.8049 170.5 35.0449 170.5 43.5899Z" fill="white"/>
<path d="M88.73 49.775L86.04 47.26L88.73 44.74L89.145 45.185L86.935 47.26L89.145 49.335L88.73 49.775Z" fill="#C7C7C7"/>
<path d="M163.43 45.6899C163.43 45.7948 163.399 45.8972 163.341 45.9844C163.282 46.0715 163.2 46.1395 163.103 46.1796C163.006 46.2197 162.899 46.2302 162.797 46.2098C162.694 46.1893 162.599 46.1388 162.525 46.0647C162.451 45.9906 162.401 45.8961 162.38 45.7933C162.36 45.6905 162.37 45.584 162.41 45.4871C162.45 45.3903 162.518 45.3075 162.606 45.2493C162.693 45.191 162.795 45.1599 162.9 45.1599C162.97 45.1593 163.039 45.1725 163.104 45.1989C163.168 45.2253 163.227 45.2643 163.276 45.3137C163.326 45.363 163.365 45.4217 163.391 45.4863C163.417 45.5509 163.431 45.6201 163.43 45.6899Z" fill="#C7C7C7"/>
<path d="M163.43 47.5698C163.43 47.6746 163.399 47.7771 163.341 47.8643C163.282 47.9514 163.2 48.0194 163.103 48.0595C163.006 48.0996 162.899 48.1101 162.797 48.0896C162.694 48.0692 162.599 48.0187 162.525 47.9446C162.451 47.8705 162.401 47.776 162.38 47.6732C162.36 47.5704 162.37 47.4638 162.41 47.367C162.45 47.2701 162.518 47.1874 162.606 47.1291C162.693 47.0709 162.795 47.0398 162.9 47.0398C162.97 47.0392 163.039 47.0524 163.104 47.0788C163.168 47.1052 163.227 47.1442 163.276 47.1936C163.326 47.2429 163.365 47.3016 163.391 47.3662C163.417 47.4308 163.431 47.5 163.43 47.5698Z" fill="#C7C7C7"/>
<path d="M163.43 49.4499C163.43 49.5548 163.399 49.6572 163.341 49.7444C163.282 49.8316 163.2 49.8995 163.103 49.9396C163.006 49.9797 162.899 49.9902 162.797 49.9698C162.694 49.9493 162.599 49.8988 162.525 49.8247C162.451 49.7506 162.401 49.6562 162.38 49.5533C162.36 49.4505 162.37 49.344 162.41 49.2471C162.45 49.1503 162.518 49.0675 162.606 49.0093C162.693 48.951 162.795 48.9199 162.9 48.9199C162.97 48.9193 163.039 48.9325 163.104 48.9589C163.168 48.9853 163.227 49.0243 163.276 49.0737C163.326 49.123 163.365 49.1817 163.391 49.2463C163.417 49.3109 163.431 49.3802 163.43 49.4499Z" fill="#C7C7C7"/>
<path d="M99.725 37.4449L99.58 37.5899L99.495 37.6699C99.1202 37.2974 98.6133 37.0883 98.085 37.0883C97.5566 37.0883 97.0497 37.2974 96.675 37.6699L96.595 37.5849L96.45 37.4399L96.635 37.2749C96.7691 37.171 96.9131 37.0805 97.065 37.0049C97.2447 36.9142 97.4367 36.8502 97.635 36.8149C97.7275 36.7963 97.8209 36.7829 97.915 36.7749H98.165H98.355C98.5342 36.7964 98.7103 36.8383 98.88 36.8999C99.0008 36.9457 99.1178 37.0008 99.23 37.0649C99.3486 37.1328 99.4607 37.2115 99.565 37.2999L99.72 37.4399L99.725 37.4449Z" fill="#C7C7C7"/>
<path d="M97.14 38.1298L96.905 37.8998C97.2187 37.5883 97.6429 37.4136 98.085 37.4136C98.5271 37.4136 98.9512 37.5883 99.265 37.8998L99.03 38.1298C98.7789 37.88 98.4391 37.7398 98.085 37.7398C97.7308 37.7398 97.3911 37.88 97.14 38.1298Z" fill="#C7C7C7"/>
<path d="M98.8 38.3649L98.57 38.5899C98.504 38.5252 98.4258 38.4742 98.34 38.4399C98.2542 38.4056 98.1624 38.3886 98.07 38.3899C97.977 38.3881 97.8847 38.4053 97.7987 38.4406C97.7127 38.4759 97.6349 38.5284 97.57 38.5949C97.495 38.5149 97.415 38.4399 97.34 38.3649C97.4335 38.265 97.5466 38.1853 97.6721 38.1309C97.7977 38.0764 97.9331 38.0483 98.07 38.0483C98.2068 38.0483 98.3422 38.0764 98.4678 38.1309C98.5934 38.1853 98.7064 38.265 98.8 38.3649Z" fill="#C7C7C7"/>
<path d="M98.2949 38.7998C98.2949 38.8555 98.2728 38.9089 98.2334 38.9483C98.1941 38.9877 98.1406 39.0098 98.0849 39.0098C98.0576 39.0098 98.0305 39.0043 98.0053 38.9937C97.9801 38.9831 97.9573 38.9676 97.9382 38.948C97.9191 38.9284 97.9041 38.9052 97.8941 38.8798C97.8841 38.8543 97.8793 38.8271 97.8799 38.7998C97.8799 38.7454 97.9015 38.6933 97.94 38.6548C97.9784 38.6164 98.0306 38.5948 98.0849 38.5948C98.1123 38.5941 98.1395 38.5989 98.1649 38.6089C98.1904 38.6189 98.2136 38.6339 98.2331 38.653C98.2527 38.6721 98.2683 38.695 98.2789 38.7202C98.2895 38.7454 98.295 38.7724 98.2949 38.7998Z" fill="#C7C7C7"/>
<path d="M85.455 37.885C85.455 37.7651 85.4906 37.648 85.5573 37.5484C85.624 37.4488 85.7188 37.3712 85.8296 37.3256C85.9405 37.28 86.0624 37.2683 86.1799 37.292C86.2973 37.3158 86.4051 37.3739 86.4895 37.459C86.574 37.5441 86.6312 37.6524 86.654 37.7701C86.6767 37.8878 86.664 38.0096 86.6175 38.12C86.5709 38.2305 86.4926 38.3246 86.3924 38.3905C86.2923 38.4564 86.1748 38.491 86.055 38.49C85.9758 38.49 85.8973 38.4743 85.8242 38.4439C85.7511 38.4134 85.6847 38.3688 85.6289 38.3125C85.5732 38.2563 85.5291 38.1895 85.4992 38.1162C85.4693 38.0428 85.4543 37.9642 85.455 37.885Z" fill="#C7C7C7"/>
<path d="M87.35 37.8848C87.352 37.7656 87.3891 37.6496 87.4568 37.5514C87.5245 37.4533 87.6196 37.3773 87.7303 37.333C87.841 37.2888 87.9623 37.2782 88.079 37.3027C88.1957 37.3271 88.3026 37.3855 88.3862 37.4705C88.4698 37.5555 88.5265 37.6633 88.549 37.7804C88.5715 37.8975 88.559 38.0186 88.5129 38.1286C88.4669 38.2385 88.3893 38.3324 88.2901 38.3985C88.1908 38.4645 88.0742 38.4998 87.955 38.4998C87.8747 38.4998 87.7952 38.4838 87.7211 38.4528C87.6471 38.4218 87.5799 38.3763 87.5236 38.3191C87.4673 38.2618 87.423 38.194 87.3931 38.1194C87.3633 38.0448 87.3487 37.9651 87.35 37.8848Z" fill="#C7C7C7"/>
<path d="M89.25 37.8848C89.2519 37.7656 89.2891 37.6496 89.3567 37.5514C89.4244 37.4533 89.5196 37.3773 89.6303 37.333C89.741 37.2888 89.8623 37.2782 89.979 37.3027C90.0957 37.3271 90.2026 37.3855 90.2862 37.4705C90.3698 37.5555 90.4264 37.6633 90.449 37.7804C90.4715 37.8975 90.459 38.0186 90.4129 38.1286C90.3668 38.2385 90.2893 38.3324 90.19 38.3985C90.0908 38.4645 89.9742 38.4998 89.855 38.4998C89.7747 38.4998 89.6952 38.4838 89.6211 38.4528C89.547 38.4218 89.4799 38.3763 89.4236 38.3191C89.3673 38.2618 89.3229 38.194 89.2931 38.1194C89.2633 38.0448 89.2486 37.9651 89.25 37.8848Z" fill="#C7C7C7"/>
<path d="M91.15 37.885C91.1519 37.7656 91.1892 37.6494 91.2571 37.5512C91.325 37.4529 91.4205 37.3769 91.5315 37.3328C91.6425 37.2887 91.764 37.2784 91.8809 37.3033C91.9977 37.3282 92.1045 37.3871 92.1879 37.4726C92.2713 37.558 92.3276 37.6663 92.3496 37.7837C92.3715 37.9011 92.3583 38.0224 92.3114 38.1323C92.2646 38.2421 92.1863 38.3357 92.0864 38.4011C91.9865 38.4666 91.8694 38.501 91.75 38.5C91.6699 38.5 91.5906 38.484 91.5168 38.453C91.443 38.4219 91.3762 38.3763 91.3203 38.319C91.2644 38.2617 91.2205 38.1938 91.1913 38.1192C91.162 38.0447 91.148 37.9651 91.15 37.885Z" fill="#C7C7C7"/>
<path d="M93.05 37.885C93.052 37.7656 93.0892 37.6494 93.1571 37.5512C93.225 37.4529 93.3205 37.3769 93.4315 37.3328C93.5425 37.2887 93.6641 37.2784 93.7809 37.3033C93.8977 37.3282 94.0045 37.3871 94.088 37.4726C94.1714 37.558 94.2276 37.6663 94.2496 37.7837C94.2716 37.9011 94.2583 38.0224 94.2115 38.1323C94.1646 38.2421 94.0863 38.3357 93.9864 38.4011C93.8865 38.4666 93.7694 38.501 93.65 38.5C93.5699 38.5 93.4906 38.484 93.4169 38.453C93.3431 38.4219 93.2762 38.3763 93.2203 38.319C93.1644 38.2617 93.1205 38.1938 93.0913 38.1192C93.062 38.0447 93.048 37.9651 93.05 37.885Z" fill="#C7C7C7"/>
<path d="M163.655 39.2048H158.74V36.9248H163.655V39.2048ZM159 38.9498H163.4V37.1798H159V38.9498Z" fill="#C7C7C7"/>
<path d="M162.315 37.3149H159.15V38.8149H162.315V37.3149Z" fill="#C7C7C7"/>
<path d="M164.09 37.4548H163.655V38.6698H164.09V37.4548Z" fill="#C7C7C7"/>
<path d="M93.345 204H92.65V207.175H91.36V205.555H89.07V207.175H87.78V204H87.09L90.215 200.765L93.345 204Z" fill="#EBEBEB"/>
<path d="M162.915 200.765H155.375V201.84H162.915V200.765Z" fill="#EBEBEB"/>
<path d="M162.915 203.43H155.375V204.505H162.915V203.43Z" fill="#EBEBEB"/>
<path d="M162.915 206.095H155.375V207.17H162.915V206.095Z" fill="#EBEBEB"/>
<path d="M127.145 203.54L125 205.83L122.855 203.54L123.235 203.19L125 205.07L126.765 203.19L127.145 203.54Z" fill="#EBEBEB"/>
<path d="M125 208.195C124.23 208.195 123.477 207.966 122.836 207.538C122.196 207.11 121.696 206.502 121.401 205.79C121.107 205.079 121.03 204.295 121.18 203.54C121.33 202.784 121.701 202.09 122.246 201.546C122.791 201.001 123.485 200.63 124.24 200.48C124.996 200.329 125.779 200.406 126.491 200.701C127.202 200.996 127.811 201.495 128.239 202.136C128.667 202.776 128.895 203.529 128.895 204.3C128.892 205.332 128.481 206.321 127.751 207.051C127.021 207.781 126.032 208.192 125 208.195ZM125 200.92C124.331 200.92 123.678 201.118 123.122 201.489C122.566 201.861 122.133 202.389 121.877 203.006C121.621 203.624 121.555 204.304 121.685 204.959C121.815 205.615 122.137 206.217 122.61 206.69C123.083 207.163 123.685 207.484 124.341 207.615C124.996 207.745 125.676 207.678 126.293 207.422C126.911 207.167 127.439 206.733 127.81 206.178C128.182 205.622 128.38 204.968 128.38 204.3C128.38 203.403 128.024 202.544 127.39 201.91C126.756 201.276 125.896 200.92 125 200.92Z" fill="#EBEBEB"/>
<path d="M119.185 190.305C119.185 190.562 119.109 190.813 118.966 191.027C118.823 191.241 118.62 191.408 118.382 191.506C118.145 191.604 117.884 191.63 117.631 191.58C117.379 191.53 117.148 191.406 116.966 191.224C116.784 191.042 116.66 190.811 116.61 190.559C116.56 190.306 116.586 190.045 116.684 189.807C116.782 189.57 116.949 189.367 117.163 189.224C117.377 189.081 117.628 189.005 117.885 189.005C118.056 189.004 118.225 189.037 118.383 189.103C118.541 189.168 118.685 189.263 118.806 189.384C118.927 189.505 119.022 189.649 119.087 189.807C119.152 189.965 119.186 190.134 119.185 190.305Z" fill="#DBDBDB"/>
<path d="M127.11 190.305C127.11 190.695 126.994 191.075 126.778 191.399C126.562 191.723 126.254 191.976 125.894 192.125C125.534 192.274 125.138 192.313 124.756 192.237C124.374 192.161 124.022 191.973 123.747 191.698C123.471 191.422 123.284 191.071 123.208 190.689C123.132 190.307 123.171 189.911 123.32 189.551C123.469 189.191 123.722 188.883 124.046 188.667C124.369 188.45 124.75 188.335 125.14 188.335C125.662 188.335 126.164 188.543 126.533 188.912C126.902 189.281 127.11 189.782 127.11 190.305Z" fill="#28A228"/>
<path d="M133.695 190.305C133.695 190.562 133.619 190.813 133.476 191.027C133.333 191.241 133.13 191.408 132.892 191.506C132.655 191.604 132.394 191.63 132.141 191.58C131.889 191.53 131.658 191.406 131.476 191.224C131.294 191.042 131.17 190.811 131.12 190.559C131.07 190.306 131.096 190.045 131.194 189.807C131.292 189.57 131.459 189.367 131.673 189.224C131.887 189.081 132.138 189.005 132.395 189.005C132.566 189.004 132.735 189.037 132.893 189.103C133.051 189.168 133.195 189.263 133.316 189.384C133.437 189.505 133.532 189.649 133.597 189.807C133.662 189.965 133.696 190.134 133.695 190.305Z" fill="#DBDBDB"/>
<path d="M142.265 154.085H107.175V165.245H142.265V154.085Z" fill="#28A228"/>
<path d="M117 161.23V158.23C116.999 158.193 117.006 158.156 117.02 158.122C117.034 158.088 117.054 158.057 117.08 158.031C117.107 158.004 117.138 157.984 117.172 157.97C117.206 157.956 117.243 157.949 117.28 157.95C117.317 157.949 117.354 157.956 117.389 157.97C117.423 157.984 117.455 158.004 117.481 158.03C117.508 158.056 117.529 158.087 117.543 158.122C117.558 158.156 117.565 158.193 117.565 158.23V160.965H118.955C119.031 160.965 119.103 160.995 119.156 161.048C119.21 161.102 119.24 161.174 119.24 161.25C119.24 161.326 119.21 161.398 119.156 161.452C119.103 161.505 119.031 161.535 118.955 161.535H117.28C117.241 161.535 117.202 161.527 117.167 161.512C117.131 161.496 117.099 161.473 117.073 161.444C117.046 161.416 117.026 161.382 117.014 161.345C117.001 161.308 116.996 161.269 117 161.23Z" fill="white"/>
<path d="M122.5 158.37C122.833 158.719 123.019 159.182 123.019 159.665C123.019 160.147 122.833 160.611 122.5 160.96C122.346 161.131 122.158 161.269 121.948 161.363C121.738 161.458 121.51 161.508 121.28 161.51C121.044 161.509 120.811 161.46 120.595 161.366C120.379 161.271 120.185 161.133 120.025 160.96C119.697 160.608 119.515 160.145 119.515 159.665C119.515 159.184 119.697 158.721 120.025 158.37C120.184 158.196 120.378 158.057 120.594 157.962C120.811 157.868 121.044 157.819 121.28 157.82C121.511 157.821 121.738 157.87 121.948 157.965C122.159 158.06 122.347 158.198 122.5 158.37ZM122.435 159.665C122.435 159.333 122.31 159.014 122.085 158.77C121.983 158.657 121.859 158.566 121.721 158.503C121.582 158.44 121.432 158.407 121.28 158.405C121.124 158.404 120.969 158.436 120.826 158.499C120.683 158.562 120.555 158.654 120.45 158.77C120.223 159.013 120.098 159.333 120.1 159.665C120.097 159.996 120.222 160.315 120.45 160.555C120.555 160.671 120.683 160.764 120.826 160.828C120.969 160.892 121.123 160.925 121.28 160.925C121.432 160.922 121.583 160.888 121.721 160.824C121.86 160.76 121.984 160.669 122.085 160.555C122.303 160.31 122.421 159.992 122.415 159.665H122.435Z" fill="white"/>
<path d="M123.85 159.67C123.858 159.319 123.964 158.977 124.155 158.682C124.346 158.388 124.616 158.152 124.933 158.002C125.25 157.851 125.603 157.792 125.952 157.831C126.302 157.869 126.633 158.004 126.91 158.22C126.971 158.268 127.011 158.338 127.02 158.415C127.029 158.491 127.008 158.569 126.96 158.63C126.912 158.691 126.842 158.73 126.765 158.74C126.688 158.749 126.611 158.728 126.55 158.68C126.32 158.502 126.036 158.405 125.745 158.405C125.574 158.402 125.403 158.434 125.244 158.499C125.086 158.563 124.941 158.659 124.82 158.78C124.699 158.893 124.602 159.03 124.536 159.182C124.469 159.335 124.435 159.499 124.435 159.665C124.435 159.831 124.469 159.995 124.536 160.147C124.602 160.3 124.699 160.437 124.82 160.55C124.941 160.671 125.086 160.767 125.244 160.831C125.403 160.896 125.574 160.928 125.745 160.925C125.991 160.923 126.233 160.856 126.445 160.73V160.03H125.71C125.633 160.027 125.56 159.995 125.506 159.94C125.452 159.885 125.421 159.812 125.42 159.735C125.421 159.659 125.452 159.586 125.507 159.533C125.561 159.48 125.634 159.45 125.71 159.45H126.71C126.748 159.449 126.787 159.455 126.823 159.469C126.859 159.482 126.892 159.503 126.92 159.529C126.948 159.556 126.97 159.588 126.986 159.623C127.001 159.658 127.009 159.696 127.01 159.735V160.87C127.013 160.898 127.013 160.927 127.01 160.955C126.992 161.007 126.957 161.051 126.91 161.08C126.634 161.296 126.304 161.431 125.956 161.47C125.608 161.509 125.255 161.451 124.939 161.302C124.622 161.152 124.353 160.918 124.161 160.624C123.97 160.331 123.864 159.99 123.855 159.64L123.85 159.67Z" fill="white"/>
<path d="M128.22 158.205C128.219 158.168 128.226 158.131 128.24 158.097C128.254 158.063 128.274 158.031 128.301 158.005C128.327 157.979 128.358 157.959 128.392 157.945C128.426 157.931 128.463 157.924 128.5 157.925C128.537 157.924 128.575 157.931 128.609 157.945C128.644 157.958 128.676 157.979 128.703 158.005C128.73 158.031 128.751 158.062 128.766 158.096C128.781 158.13 128.789 158.167 128.79 158.205V161.205C128.787 161.28 128.756 161.351 128.702 161.403C128.648 161.456 128.575 161.485 128.5 161.485C128.463 161.486 128.426 161.479 128.392 161.465C128.358 161.451 128.327 161.43 128.301 161.404C128.274 161.378 128.254 161.347 128.24 161.313C128.226 161.279 128.219 161.242 128.22 161.205V158.205Z" fill="white"/>
<path d="M130.31 161.23C130.31 161.304 130.281 161.375 130.228 161.428C130.175 161.481 130.104 161.51 130.03 161.51C129.956 161.51 129.885 161.481 129.832 161.428C129.78 161.375 129.75 161.304 129.75 161.23V158.23C129.749 158.184 129.759 158.139 129.779 158.099C129.799 158.058 129.828 158.022 129.865 157.995C129.926 157.954 129.999 157.937 130.072 157.948C130.144 157.96 130.21 157.998 130.255 158.055L131.91 160.345V158.25C131.91 158.214 131.917 158.178 131.931 158.145C131.945 158.111 131.965 158.081 131.991 158.056C132.016 158.03 132.046 158.01 132.08 157.996C132.113 157.982 132.149 157.975 132.185 157.975C132.258 157.975 132.329 158.004 132.381 158.055C132.434 158.107 132.464 158.177 132.465 158.25V161.25C132.464 161.324 132.434 161.394 132.382 161.447C132.329 161.499 132.259 161.529 132.185 161.53C132.144 161.529 132.104 161.52 132.068 161.502C132.032 161.483 132 161.457 131.975 161.425L131.95 161.395L130.31 159.12V161.23Z" fill="white"/>
<path d="M133.5 67.6949V71.3499H130.915V67.6949C130.915 64.1949 128.27 61.3899 125.02 61.3899C121.77 61.3899 119.125 64.2149 119.125 67.6949V76.8449H116.5V67.6949C116.5 62.6949 120.305 58.6599 125 58.6599C129.695 58.6599 133.5 62.7149 133.5 67.6949Z" fill="#C7C7C7"/>
<path d="M116.52 71.3599L119.105 71.4649V76.8449H116.52V71.3599Z" fill="#A6A6A6"/>
<path d="M136.795 73.78H113.205V95.18H136.795V73.78Z" fill="#28A228"/>
<path opacity="0.1" d="M136.795 73.78H125V95.18H136.795V73.78Z" fill="black"/>
<path d="M126 85.2648L127 89.9448H122.81L123.81 85.2648C123.422 85.0241 123.123 84.6634 122.959 84.2376C122.794 83.8117 122.773 83.3438 122.898 82.9048C123.023 82.4658 123.288 82.0795 123.652 81.8044C124.017 81.5294 124.461 81.3806 124.918 81.3806C125.374 81.3806 125.818 81.5294 126.183 81.8044C126.547 82.0795 126.812 82.4658 126.937 82.9048C127.062 83.3438 127.041 83.8117 126.876 84.2376C126.712 84.6634 126.413 85.0241 126.025 85.2648H126Z" fill="#263238"/>
<path d="M155.38 118.795H94.625V129.195H155.38V118.795Z" fill="white"/>
<path d="M155.625 129.445H94.375V118.545H155.625V129.445ZM94.875 128.945H155.125V119.045H94.875V128.945Z" fill="#EBEBEB"/>
<path d="M100.93 121.665H100.43V126.11H100.93V121.665Z" fill="#37474F"/>
<path d="M102.905 123.635H98.46V124.135H102.905V123.635Z" fill="#37474F"/>
<path d="M102.078 122.134L98.9337 125.276L99.2871 125.63L102.431 122.488L102.078 122.134Z" fill="#37474F"/>
<path d="M99.2834 122.137L98.9299 122.49L102.073 125.633L102.427 125.28L99.2834 122.137Z" fill="#37474F"/>
<path d="M108.47 121.665H107.97V126.11H108.47V121.665Z" fill="#37474F"/>
<path d="M110.445 123.635H106V124.135H110.445V123.635Z" fill="#37474F"/>
<path d="M109.616 122.14L106.472 125.281L106.826 125.635L109.97 122.493L109.616 122.14Z" fill="#37474F"/>
<path d="M106.825 122.135L106.471 122.489L109.615 125.632L109.968 125.278L106.825 122.135Z" fill="#37474F"/>
<path d="M116.01 121.665H115.51V126.11H116.01V121.665Z" fill="#37474F"/>
<path d="M117.985 123.635H113.54V124.135H117.985V123.635Z" fill="#37474F"/>
<path d="M117.155 122.14L114.011 125.282L114.364 125.635L117.508 122.493L117.155 122.14Z" fill="#37474F"/>
<path d="M114.367 122.134L114.013 122.487L117.156 125.63L117.51 125.277L114.367 122.134Z" fill="#37474F"/>
<path d="M123.555 121.665H123.055V126.11H123.555V121.665Z" fill="#37474F"/>
<path d="M125.525 123.635H121.08V124.135H125.525V123.635Z" fill="#37474F"/>
<path d="M124.698 122.14L121.554 125.282L121.907 125.636L125.052 122.494L124.698 122.14Z" fill="#37474F"/>
<path d="M121.912 122.138L121.558 122.492L124.701 125.635L125.055 125.281L121.912 122.138Z" fill="#37474F"/>
<path d="M131.095 121.665H130.595V126.11H131.095V121.665Z" fill="#37474F"/>
<path d="M133.065 123.635H128.62V124.135H133.065V123.635Z" fill="#37474F"/>
<path d="M132.237 122.14L129.092 125.282L129.446 125.636L132.59 122.494L132.237 122.14Z" fill="#37474F"/>
<path d="M129.448 122.132L129.095 122.485L132.238 125.628L132.591 125.275L129.448 122.132Z" fill="#37474F"/>
<path d="M138.635 121.665H138.135V126.11H138.635V121.665Z" fill="#37474F"/>
<path d="M140.61 123.635H136.165V124.135H140.61V123.635Z" fill="#37474F"/>
<path d="M139.779 122.137L136.634 125.279L136.988 125.633L140.132 122.491L139.779 122.137Z" fill="#37474F"/>
<path d="M136.99 122.13L136.636 122.484L139.779 125.627L140.133 125.273L136.99 122.13Z" fill="#37474F"/>
<path d="M150.19 125.6C149.647 125.567 149.119 125.416 148.641 125.157C148.163 124.898 147.748 124.537 147.425 124.1L147.315 123.95L147.425 123.805C147.728 123.353 148.137 122.983 148.616 122.727C149.096 122.471 149.631 122.337 150.175 122.337C150.719 122.337 151.254 122.471 151.734 122.727C152.213 122.983 152.622 123.353 152.925 123.805L153.03 123.95L152.925 124.1C152.605 124.534 152.195 124.892 151.723 125.151C151.25 125.41 150.727 125.564 150.19 125.6ZM147.95 123.97C148.208 124.325 148.546 124.614 148.937 124.814C149.328 125.013 149.761 125.117 150.2 125.117C150.639 125.117 151.072 125.013 151.463 124.814C151.854 124.614 152.192 124.325 152.45 123.97C152.192 123.615 151.854 123.326 151.463 123.126C151.072 122.927 150.639 122.823 150.2 122.823C149.761 122.823 149.328 122.927 148.937 123.126C148.546 123.326 148.208 123.615 147.95 123.97Z" fill="#EBEBEB"/>
<path d="M150.185 125.095C150.806 125.095 151.31 124.591 151.31 123.97C151.31 123.349 150.806 122.845 150.185 122.845C149.564 122.845 149.06 123.349 149.06 123.97C149.06 124.591 149.564 125.095 150.185 125.095Z" fill="#EBEBEB"/>
<path d="M152.037 121.714L148.042 125.709L148.396 126.063L152.391 122.067L152.037 121.714Z" fill="#EBEBEB"/>
<path d="M108.665 107.965H107.865V109.37C107.865 109.465 107.827 109.557 107.76 109.625C107.692 109.692 107.6 109.73 107.505 109.73C107.409 109.73 107.318 109.692 107.25 109.625C107.183 109.557 107.145 109.465 107.145 109.37V105.545C107.145 105.498 107.154 105.451 107.172 105.408C107.191 105.365 107.217 105.325 107.251 105.292C107.284 105.259 107.324 105.233 107.368 105.216C107.411 105.198 107.458 105.189 107.505 105.19H108.665C108.854 105.179 109.044 105.206 109.222 105.271C109.4 105.335 109.563 105.436 109.701 105.566C109.839 105.696 109.949 105.852 110.024 106.026C110.1 106.2 110.138 106.388 110.138 106.577C110.138 106.767 110.1 106.955 110.024 107.129C109.949 107.303 109.839 107.459 109.701 107.589C109.563 107.719 109.4 107.82 109.222 107.884C109.044 107.949 108.854 107.976 108.665 107.965ZM107.865 107.245H108.665C108.757 107.253 108.851 107.242 108.939 107.212C109.026 107.182 109.107 107.134 109.176 107.071C109.244 107.009 109.299 106.932 109.336 106.847C109.373 106.762 109.393 106.67 109.393 106.577C109.393 106.485 109.373 106.393 109.336 106.308C109.299 106.223 109.244 106.146 109.176 106.084C109.107 106.021 109.026 105.973 108.939 105.943C108.851 105.913 108.757 105.902 108.665 105.91H107.865V107.245Z" fill="#28A228"/>
<path d="M112.79 108.655H111.215L110.895 109.5C110.867 109.566 110.82 109.622 110.761 109.662C110.701 109.702 110.632 109.724 110.56 109.725C110.519 109.733 110.476 109.733 110.435 109.725C110.345 109.691 110.272 109.624 110.232 109.537C110.192 109.45 110.188 109.35 110.22 109.26L111.655 105.44C111.684 105.373 111.732 105.315 111.793 105.275C111.855 105.235 111.927 105.214 112 105.215C112.073 105.213 112.145 105.234 112.205 105.274C112.266 105.314 112.313 105.372 112.34 105.44L113.775 109.26C113.807 109.35 113.803 109.45 113.763 109.537C113.723 109.624 113.65 109.691 113.56 109.725C113.519 109.734 113.476 109.734 113.435 109.725C113.364 109.725 113.294 109.703 113.235 109.663C113.176 109.623 113.131 109.566 113.105 109.5L112.79 108.655ZM112.525 107.945L112 106.55L111.5 107.945H112.525Z" fill="#28A228"/>
<path d="M114.41 108.6C114.438 108.562 114.474 108.53 114.515 108.506C114.557 108.483 114.603 108.469 114.65 108.465C114.697 108.46 114.745 108.466 114.79 108.482C114.834 108.497 114.875 108.522 114.91 108.555C115.258 108.851 115.693 109.027 116.15 109.055C116.438 109.061 116.721 108.977 116.96 108.815C117.041 108.766 117.109 108.698 117.158 108.617C117.207 108.536 117.235 108.444 117.24 108.35C117.242 108.277 117.221 108.205 117.18 108.145C117.13 108.067 117.063 108 116.985 107.95C116.71 107.794 116.408 107.69 116.095 107.645C115.805 107.595 115.523 107.51 115.255 107.39C115.011 107.284 114.803 107.111 114.655 106.89C114.555 106.731 114.502 106.547 114.505 106.36C114.509 106.174 114.557 105.991 114.643 105.826C114.73 105.661 114.854 105.519 115.005 105.41C115.334 105.182 115.725 105.063 116.125 105.07C116.636 105.092 117.129 105.266 117.54 105.57C117.576 105.594 117.607 105.625 117.632 105.661C117.656 105.698 117.672 105.738 117.681 105.781C117.689 105.824 117.689 105.868 117.68 105.911C117.672 105.953 117.654 105.994 117.63 106.03C117.607 106.067 117.577 106.1 117.541 106.126C117.505 106.151 117.464 106.169 117.421 106.178C117.378 106.188 117.334 106.188 117.291 106.18C117.247 106.172 117.206 106.155 117.17 106.13C116.872 105.888 116.507 105.744 116.125 105.715C115.866 105.71 115.613 105.787 115.4 105.935C115.328 105.977 115.268 106.037 115.225 106.109C115.183 106.18 115.158 106.261 115.155 106.345C115.15 106.408 115.166 106.471 115.2 106.525C115.247 106.592 115.306 106.65 115.375 106.695C115.624 106.841 115.899 106.938 116.185 106.98C116.493 107.035 116.793 107.125 117.08 107.25C117.343 107.365 117.568 107.553 117.73 107.79C117.831 107.956 117.884 108.146 117.885 108.34C117.878 108.539 117.823 108.734 117.726 108.907C117.628 109.081 117.491 109.23 117.325 109.34C116.976 109.588 116.558 109.717 116.13 109.71C115.52 109.682 114.937 109.453 114.47 109.06C114.404 109.005 114.36 108.927 114.349 108.842C114.338 108.756 114.36 108.67 114.41 108.6Z" fill="#28A228"/>
<path d="M118.675 108.6C118.703 108.566 118.737 108.537 118.775 108.516C118.814 108.495 118.857 108.483 118.9 108.478C118.944 108.474 118.988 108.479 119.03 108.492C119.072 108.505 119.111 108.526 119.145 108.555C119.493 108.851 119.928 109.027 120.385 109.055C120.673 109.061 120.957 108.978 121.195 108.815C121.276 108.766 121.344 108.698 121.393 108.617C121.442 108.536 121.47 108.444 121.475 108.35C121.476 108.277 121.456 108.205 121.415 108.145C121.366 108.066 121.299 107.999 121.22 107.95C120.947 107.793 120.647 107.69 120.335 107.645C120.047 107.596 119.766 107.51 119.5 107.39C119.255 107.283 119.046 107.11 118.895 106.89C118.796 106.731 118.744 106.547 118.745 106.36C118.749 106.174 118.797 105.991 118.883 105.826C118.97 105.661 119.094 105.519 119.245 105.41C119.574 105.182 119.965 105.063 120.365 105.07C120.876 105.092 121.369 105.266 121.78 105.57C121.816 105.594 121.847 105.625 121.872 105.661C121.896 105.698 121.912 105.738 121.921 105.781C121.929 105.824 121.929 105.868 121.92 105.911C121.912 105.953 121.894 105.994 121.87 106.03C121.847 106.067 121.817 106.1 121.781 106.126C121.745 106.151 121.704 106.169 121.661 106.178C121.618 106.188 121.574 106.188 121.531 106.18C121.487 106.172 121.446 106.155 121.41 106.13C121.112 105.888 120.747 105.744 120.365 105.715C120.106 105.71 119.853 105.787 119.64 105.935C119.568 105.977 119.508 106.037 119.465 106.109C119.423 106.18 119.398 106.261 119.395 106.345C119.39 106.408 119.406 106.471 119.44 106.525C119.487 106.592 119.546 106.65 119.615 106.695C119.864 106.84 120.139 106.937 120.425 106.98C120.733 107.035 121.033 107.125 121.32 107.25C121.582 107.365 121.806 107.552 121.965 107.79C122.069 107.954 122.123 108.145 122.12 108.34C122.114 108.539 122.06 108.733 121.964 108.907C121.867 109.081 121.73 109.229 121.565 109.34C121.215 109.589 120.794 109.719 120.365 109.71C119.755 109.682 119.172 109.453 118.705 109.06C118.644 109 118.607 108.92 118.602 108.836C118.596 108.751 118.622 108.667 118.675 108.6Z" fill="#28A228"/>
<path d="M128.96 105.725L127.37 109.5C127.363 109.522 127.351 109.543 127.335 109.56C127.335 109.56 127.335 109.585 127.305 109.6L127.26 109.63C127.26 109.63 127.23 109.665 127.2 109.67H127.145H126.99H126.945C126.922 109.664 126.903 109.65 126.89 109.63L126.845 109.6C126.845 109.6 126.845 109.575 126.82 109.56C126.817 109.54 126.817 109.52 126.82 109.5L125.97 107.5L125.12 109.5C125.12 109.5 125.12 109.545 125.095 109.56L125.055 109.6C125.04 109.607 125.026 109.617 125.015 109.63L124.965 109.67C124.949 109.666 124.931 109.666 124.915 109.67H124.755H124.705C124.682 109.661 124.662 109.648 124.645 109.63C124.645 109.63 124.62 109.63 124.6 109.6L124.57 109.56C124.57 109.56 124.57 109.52 124.535 109.5L122.94 105.72C122.911 105.635 122.916 105.541 122.953 105.459C122.991 105.377 123.058 105.313 123.141 105.278C123.224 105.244 123.318 105.243 123.402 105.274C123.486 105.306 123.555 105.369 123.595 105.45L124.865 108.45L125.705 106.45C125.733 106.384 125.779 106.328 125.839 106.289C125.899 106.25 125.969 106.229 126.04 106.23C126.112 106.231 126.182 106.252 126.242 106.291C126.302 106.33 126.35 106.385 126.38 106.45L127.215 108.45L128.48 105.45C128.517 105.363 128.588 105.294 128.676 105.258C128.764 105.223 128.862 105.223 128.95 105.26C129.007 105.323 129.04 105.405 129.042 105.491C129.044 105.576 129.015 105.659 128.96 105.725Z" fill="#28A228"/>
<path d="M133.5 105.75C133.921 106.193 134.156 106.781 134.156 107.392C134.156 108.004 133.921 108.592 133.5 109.035C133.303 109.25 133.064 109.423 132.797 109.541C132.53 109.66 132.242 109.722 131.95 109.725C131.652 109.723 131.358 109.661 131.084 109.543C130.811 109.424 130.565 109.251 130.36 109.035C129.949 108.587 129.721 108.001 129.721 107.392C129.721 106.784 129.949 106.198 130.36 105.75C130.564 105.532 130.81 105.359 131.084 105.24C131.357 105.122 131.652 105.06 131.95 105.06C132.242 105.061 132.531 105.123 132.798 105.242C133.064 105.361 133.304 105.534 133.5 105.75ZM133.415 107.39C133.415 106.971 133.258 106.568 132.975 106.26C132.846 106.116 132.688 106 132.511 105.921C132.335 105.842 132.144 105.8 131.95 105.8C131.752 105.798 131.557 105.839 131.376 105.918C131.195 105.997 131.033 106.114 130.9 106.26C130.615 106.567 130.458 106.971 130.46 107.39C130.456 107.809 130.613 108.214 130.9 108.52C131.033 108.666 131.195 108.783 131.376 108.863C131.557 108.943 131.752 108.984 131.95 108.985C132.144 108.982 132.335 108.939 132.511 108.859C132.687 108.779 132.845 108.664 132.975 108.52C133.252 108.209 133.402 107.806 133.395 107.39H133.415Z" fill="#28A228"/>
<path d="M138.415 109.19C138.431 109.234 138.437 109.281 138.434 109.328C138.431 109.375 138.419 109.421 138.398 109.463C138.377 109.505 138.348 109.542 138.312 109.572C138.276 109.603 138.235 109.626 138.19 109.64C138.142 109.648 138.093 109.648 138.045 109.64C137.957 109.642 137.87 109.618 137.795 109.57C137.707 109.514 137.634 109.437 137.585 109.345C137.482 109.098 137.436 108.832 137.45 108.565C137.449 108.466 137.422 108.369 137.37 108.285C137.322 108.208 137.255 108.144 137.175 108.1C137.064 108.029 136.943 107.976 136.815 107.945H136.05V109.35C136.049 109.397 136.039 109.444 136.021 109.487C136.002 109.531 135.975 109.57 135.941 109.603C135.907 109.636 135.867 109.662 135.823 109.679C135.779 109.697 135.732 109.706 135.685 109.705C135.591 109.705 135.501 109.668 135.434 109.601C135.367 109.534 135.33 109.444 135.33 109.35V105.525C135.329 105.478 135.338 105.432 135.356 105.388C135.373 105.345 135.399 105.306 135.432 105.272C135.466 105.239 135.505 105.213 135.548 105.196C135.592 105.178 135.638 105.169 135.685 105.17H136.845C137.131 105.169 137.41 105.256 137.644 105.42C137.879 105.584 138.057 105.816 138.154 106.085C138.251 106.354 138.262 106.647 138.186 106.922C138.11 107.198 137.951 107.443 137.73 107.625C137.816 107.694 137.892 107.775 137.955 107.865C138.096 108.071 138.171 108.315 138.17 108.565C138.161 108.694 138.169 108.823 138.195 108.95C138.249 108.968 138.298 108.999 138.337 109.041C138.375 109.083 138.402 109.134 138.415 109.19ZM137.5 106.58C137.501 106.492 137.484 106.404 137.45 106.323C137.417 106.241 137.368 106.167 137.305 106.105C137.243 106.042 137.169 105.993 137.087 105.96C137.006 105.926 136.918 105.909 136.83 105.91H136.035V107.245H136.83C137.007 107.245 137.176 107.175 137.302 107.05C137.427 106.926 137.499 106.757 137.5 106.58Z" fill="#28A228"/>
<path d="M139.47 109.37V105.545C139.469 105.498 139.478 105.452 139.496 105.408C139.513 105.365 139.539 105.326 139.572 105.292C139.606 105.259 139.645 105.233 139.688 105.216C139.732 105.198 139.778 105.189 139.825 105.19H140.59C141.173 105.217 141.723 105.468 142.126 105.89C142.529 106.313 142.753 106.874 142.753 107.457C142.753 108.041 142.529 108.602 142.126 109.024C141.723 109.447 141.173 109.698 140.59 109.725H139.825C139.731 109.725 139.641 109.688 139.574 109.621C139.507 109.554 139.47 109.464 139.47 109.37ZM140.19 109.005H140.59C140.985 108.982 141.357 108.81 141.629 108.522C141.901 108.234 142.052 107.853 142.052 107.457C142.052 107.062 141.901 106.681 141.629 106.393C141.357 106.105 140.985 105.932 140.59 105.91H140.19V109.005Z" fill="#28A228"/>
<path d="M217.03 50.14C217.03 50.14 213.215 80.67 206.945 87.54C199.445 95.78 193.945 94.575 190.945 98.825C187.905 94.57 182.445 95.78 174.945 87.535C168.675 80.665 164.87 50.135 164.87 50.135C181.37 42.135 190.97 33.135 190.97 33.135C191.22 33.42 200.77 42.25 217.03 50.14Z" fill="#37474F"/>
<path d="M190.925 33.145V98.825C187.885 94.57 182.425 95.78 174.925 87.535C168.655 80.665 164.85 50.135 164.85 50.135C181.35 42.135 190.95 33.135 190.95 33.135L190.925 33.145Z" fill="#455A64"/>
<path d="M213 52.6001C213 52.6001 209.78 78.3901 204.5 84.1951C198.135 91.1651 193.5 90.1401 190.955 93.7301C188.39 90.1401 183.775 91.1651 177.41 84.1951C172.12 78.3901 168.91 52.6001 168.91 52.6001C182.86 45.8251 190.96 38.2351 190.96 38.2351C190.96 38.2351 199.025 45.8251 213 52.6001Z" fill="#455A64"/>
<path d="M168.875 52.6001C168.875 52.6001 172.095 78.3851 177.375 84.1951C183.73 91.1601 188.34 90.1451 190.91 93.7251V38.2251C190.68 38.5001 182.61 45.9301 168.875 52.6001Z" fill="#37474F"/>
<path d="M198.158 73.2143C202.151 69.2212 202.151 62.7471 198.158 58.754C194.165 54.7609 187.691 54.7608 183.698 58.754C179.704 62.7471 179.704 69.2212 183.698 73.2143C187.691 77.2074 194.165 77.2074 198.158 73.2143Z" fill="#28A228"/>
<path d="M189.76 72.625L185.205 67.8899L186.895 66.2649L189.405 68.875L194.815 60.575L196.78 61.8549L189.76 72.625Z" fill="white"/>
<path d="M40.185 123.54H75.265V116.275H40.185V123.54Z" fill="#C7C7C7"/>
<path d="M65.85 123.48L66.83 132.765L78.96 219.685H82.425L72.855 132.765L72.08 123.48H65.85Z" fill="#C7C7C7"/>
<path d="M33.015 219.685H36.485L48.615 132.765L49.595 123.48H43.365L42.59 132.765L33.015 219.685Z" fill="#C7C7C7"/>
<path d="M38.87 191.29H77.565V189.11H38.87V191.29Z" fill="#C7C7C7"/>
<path d="M72.855 132.44H66.83L65.85 123.48H72.08L72.855 132.44Z" fill="#A6A6A6"/>
<path d="M42.59 132.44H48.615L49.595 123.48H43.365L42.59 132.44Z" fill="#A6A6A6"/>
<path d="M44.865 81.3599C46.365 82.1299 46.625 84.7849 51.295 84.6399C51.96 84.6399 52.505 84.3549 53.115 84.5799C54.01 84.9049 54.715 85.6199 55.51 86.1399C56.1494 86.5698 56.8774 86.85 57.64 86.9599C59.1031 87.1329 60.5808 86.7918 61.82 85.9949C62.585 85.5249 63.225 84.8749 63.965 84.3649C64.705 83.8549 69.17 82.7749 69.925 80.2649C70.425 78.6699 70.33 76.8549 68.425 74.5249C67.9862 74.1094 67.6875 73.5677 67.57 72.9749C67.5713 72.4554 67.6892 71.9428 67.915 71.4749C68.177 70.9439 68.2728 70.3463 68.19 69.7599C67.9774 69.1993 67.6347 68.6972 67.19 68.2949C66.49 67.4499 66.62 66.2299 67.19 64.7299C67.416 64.0934 67.493 63.4135 67.415 62.7426C67.337 62.0717 67.1061 61.4276 66.74 60.8599C66.2811 60.2096 65.7399 59.6214 65.13 59.1099C64.275 58.2999 64.13 57.5499 63.745 56.4049C63.02 54.2049 61.885 53.2199 60.55 52.5399C59.345 51.9349 59.385 52.1649 58.095 52.3599C56.788 51.5624 55.2494 51.231 53.73 51.4199C52.32 51.5999 51.155 52.5449 50.09 53.4499C49.14 54.2599 48.27 55.1299 48.22 56.4949C48.19 57.2799 48.38 58.0599 48.345 58.8449C48.295 59.8449 47.74 60.4799 47.075 61.1099C46.0834 61.9532 45.3994 63.1015 45.13 64.3749C44.955 65.4399 46.005 67.0949 44.775 68.6699C43.695 70.0599 41.775 71.6699 41.275 73.4099C39.75 78.8449 43.45 80.6199 44.865 81.3599Z" fill="#263238"/>
<path d="M62.95 84.2899C65.095 83.9649 68.39 84.3699 69.53 81.9799C69.9812 81.6122 70.3384 81.1425 70.5723 80.6096C70.8061 80.0767 70.9099 79.4958 70.875 78.9149C70.7278 77.6741 70.1532 76.5232 69.25 75.6599C68.726 75.1666 68.2688 74.6068 67.89 73.9949C67.769 73.5181 67.6805 73.0336 67.625 72.5449C67.7134 71.9194 67.8814 71.3077 68.125 70.7249C67.655 71.7249 67.22 72.8049 67.655 73.9049C67.7189 74.0618 67.7941 74.2138 67.88 74.3599C68.0363 74.9384 68.2507 75.4995 68.52 76.0349C69.225 77.4349 69.87 78.6999 69.775 80.3349C69.7584 80.881 69.6273 81.4176 69.39 81.9099C68.4621 82.7237 67.3031 83.2271 66.075 83.3499C66.045 83.3499 66.045 83.4049 66.075 83.3999C67.1856 83.2875 68.2509 82.901 69.175 82.2749C67.93 84.0599 65.035 83.8149 62.94 84.2299C62.885 84.2299 62.905 84.2949 62.95 84.2899ZM69.695 81.5749V81.5299C70.0663 80.205 69.971 78.7928 69.425 77.5299C69.085 76.6949 68.575 75.9449 68.24 75.1049C68.185 74.9599 68.13 74.8149 68.08 74.6649C68.58 75.3199 69.21 75.8649 69.68 76.5049C70.68 77.8949 71 79.5499 70.045 81.0549C69.9416 81.2368 69.8246 81.4106 69.695 81.5749Z" fill="#263238"/>
<path d="M64.85 58.7849C65.6505 59.4804 66.4132 60.2181 67.135 60.9949C67.6387 61.5047 67.9406 62.1796 67.985 62.8949C68.0037 63.6155 67.7762 64.3209 67.34 64.8949C67.18 65.1349 67.015 65.3949 66.87 65.6299C66.8358 66.0954 66.9093 66.5625 67.085 66.9949C67.435 67.8199 68.21 68.3299 68.585 69.1649C69.165 70.5149 68.52 71.6249 67.95 72.8299C68.365 71.8299 68.95 70.8649 68.62 69.7449C68.36 68.8299 67.69 68.3349 67.185 67.5899C66.8777 67.1167 66.7048 66.5688 66.685 66.0049C66.235 66.9149 66.08 67.8749 66.875 68.8299C66.91 68.8749 66.875 68.9349 66.815 68.8949C65.815 67.8949 66.075 66.6399 66.69 65.5649C66.7279 64.9299 66.868 64.3052 67.105 63.7149C67.105 63.6549 67.22 63.7149 67.21 63.7599C67.12 64.2299 67 64.6999 66.935 65.1649L67.04 65.0099C67.84 63.8649 68.155 62.5099 67.235 61.3099C66.545 60.3949 65.605 59.6749 64.835 58.8099C64.8 58.7999 64.83 58.7649 64.85 58.7849Z" fill="#263238"/>
<path d="M70.865 153.195C70.865 153.195 61.91 173.085 61.9 173.1C60.17 176.895 58.715 180.25 58.13 182.06C58.1262 182.069 58.1262 182.08 58.13 182.09C57.9452 182.497 57.8579 182.943 57.875 183.39C57.875 183.39 57.875 183.415 57.875 183.42C58.655 184.705 88.575 199.42 89.795 199.595C91.015 199.77 91.57 196.305 90.865 194.805C90.16 193.305 81.22 182.545 81.22 182.545L90 162.575L70.865 153.195Z" fill="#EB9481"/>
<path d="M63.74 169C63.74 169 61.91 173.07 61.9 173.085C60.17 176.88 58.715 180.235 58.13 182.045C58.1261 182.055 58.1261 182.065 58.13 182.075C57.9925 182.496 57.9069 182.933 57.875 183.375C57.875 183.375 57.875 183.4 57.875 183.405C58.655 184.69 88.575 199.405 89.795 199.58C91.015 199.755 91.57 196.29 90.865 194.79C90.16 193.29 81.22 182.53 81.22 182.53L83.145 178.41L63.74 169Z" fill="#EBEBEB"/>
<path d="M89.785 199.555C88.565 199.395 58.635 184.695 57.85 183.41C57.545 182.91 59.43 178.44 61.85 173.085L61.925 172.915L81.345 182.185L81.175 182.51C81.175 182.51 90.12 193.265 90.83 194.765C91.54 196.265 91 199.72 89.785 199.555Z" fill="#263238"/>
<path d="M90.77 198.705C91.205 199.175 90.205 200.92 89.77 200.875C89.335 200.83 56.77 184.655 56.27 184.255C55.77 183.855 56.955 181.97 57.65 182.185C58.345 182.4 90.77 198.705 90.77 198.705Z" fill="#28A228"/>
<path d="M82.79 183.365C80.985 182.02 78.41 181.13 76.195 181.8C76.11 181.8 76.15 181.95 76.225 181.96C78.4233 182.279 80.5808 182.834 82.66 183.615C82.6916 183.623 82.7248 183.62 82.7544 183.606C82.784 183.593 82.8083 183.57 82.8233 183.541C82.8383 183.512 82.8431 183.479 82.8371 183.447C82.8311 183.415 82.8145 183.386 82.79 183.365Z" fill="white"/>
<path d="M83.8001 184.935C81.9951 183.585 79.4201 182.7 77.2051 183.37C77.1201 183.395 77.16 183.515 77.235 183.53C79.4331 183.847 81.5906 184.4 83.67 185.18C83.7018 185.192 83.7367 185.191 83.7682 185.179C83.7998 185.167 83.8259 185.144 83.8418 185.114C83.8576 185.084 83.8621 185.05 83.8544 185.017C83.8468 184.984 83.8275 184.955 83.8001 184.935Z" fill="white"/>
<path d="M84.81 186.5C83.005 185.155 80.425 184.265 78.215 184.935C78.13 184.965 78.165 185.085 78.215 185.095C80.415 185.413 82.5742 185.968 84.655 186.75C84.6882 186.771 84.7281 186.777 84.7661 186.768C84.8041 186.759 84.837 186.736 84.8575 186.703C84.8781 186.669 84.8846 186.629 84.8757 186.591C84.8668 186.553 84.8432 186.521 84.81 186.5Z" fill="white"/>
<path d="M65.245 178.695C63.605 176.545 60.245 179.085 61.9 181.24C63.555 183.395 66.885 180.85 65.245 178.695Z" fill="white"/>
<path d="M76.145 135.905C75.945 141.69 64.795 166.675 64.795 166.675L84.35 175.675C84.35 175.675 100.135 147.89 98.67 135.09C97.42 124.23 70.095 104.145 65.71 98.4849C65.06 97.6449 65.28 94.2649 65.28 94.2649H47.54V98.4999C54.315 112.88 74.58 130.13 76.08 135.195C76.1392 135.427 76.1612 135.666 76.145 135.905Z" fill="#37474F"/>
<path d="M84.2401 171.5C81.0201 169.955 81.9651 170.35 78.7401 168.845C77.1551 168.11 69.2051 164.385 67.6051 163.97C67.5964 163.966 67.5866 163.965 67.5777 163.969C67.5688 163.972 67.5615 163.979 67.5576 163.987C67.5536 163.996 67.5532 164.006 67.5565 164.015C67.5597 164.024 67.5664 164.031 67.5751 164.035C68.9451 164.965 76.9801 168.5 78.5751 169.205C81.8401 170.645 80.9201 170.205 84.2001 171.595C84.2551 171.625 84.3001 171.525 84.2401 171.5Z" fill="#263238"/>
<path d="M52 101.525C57.3547 109.686 63.3414 117.415 69.905 124.64C71.515 126.395 73.17 128.1 74.825 129.81C76.225 131.255 77.655 132.86 78 134.915C78.39 137.205 77.5 139.485 76.785 141.62C76 143.97 75.21 146.315 74.375 148.65C73.475 151.15 69.795 160.245 69.19 161.47C68.885 162.08 74.06 148.97 74.9 146.55C75.74 144.13 76.59 141.725 77.305 139.275C77.7192 138.027 77.889 136.712 77.805 135.4C77.6426 134.135 77.1378 132.939 76.345 131.94C74.905 130.02 73.035 128.39 71.4 126.64C68.01 123.01 64.7784 119.24 61.705 115.33C58.2075 110.913 54.943 106.317 51.925 101.56C51.9227 101.555 51.9214 101.55 51.9212 101.544C51.9209 101.539 51.9218 101.533 51.9236 101.528C51.9255 101.523 51.9283 101.518 51.932 101.514C51.9357 101.51 51.9401 101.507 51.945 101.505C51.9499 101.503 51.9553 101.501 51.9607 101.501C51.9661 101.501 51.9716 101.502 51.9767 101.503C51.9818 101.505 51.9865 101.508 51.9905 101.512C51.9945 101.516 51.9977 101.52 52 101.525Z" fill="#263238"/>
<path d="M41.5 196.56C41.5 196.56 40.63 218.365 40.625 218.38C40.725 222.55 40.885 226.205 41.125 228.085C41.1229 228.097 41.1229 228.108 41.125 228.12C41.1481 228.57 41.2766 229.009 41.5 229.4V229.425C42.76 230.235 76.11 230.425 77.275 230.04C78.44 229.655 77.435 226.3 76.15 225.26C74.865 224.22 62.115 218.44 62.115 218.44L62.78 196.65L41.5 196.56Z" fill="#EB9481"/>
<path d="M40.785 214.065C40.785 214.065 40.615 218.365 40.61 218.38C40.71 222.55 40.87 226.205 41.11 228.085C41.108 228.097 41.108 228.108 41.11 228.12C41.19 228.56 41.3208 228.99 41.5 229.4V229.425C42.76 230.235 76.11 230.425 77.275 230.04C78.44 229.655 77.435 226.3 76.15 225.26C74.865 224.22 62.115 218.44 62.115 218.44L62.25 214.03L40.785 214.065Z" fill="#EBEBEB"/>
<path d="M77.25 230C76.085 230.385 42.75 230.23 41.47 229.42C40.97 229.12 40.725 224.26 40.58 218.375V218.19L62.08 218.05V218.415C62.08 218.415 74.82 224.185 76.12 225.225C77.42 226.265 78.42 229.62 77.25 230Z" fill="#263238"/>
<path d="M77.765 228.81C78.3601 229.045 78.2251 231.05 77.7901 231.205C77.355 231.36 41 231.035 40.38 230.895C39.76 230.755 40.0001 228.535 40.7201 228.425C41.4401 228.315 77.765 228.81 77.765 228.81Z" fill="#28A228"/>
<path d="M63.89 218.5C61.68 218.075 58.97 218.405 57.275 219.97C57.21 220.03 57.275 220.125 57.365 220.1C59.4785 219.43 61.6576 218.987 63.865 218.78C63.9022 218.783 63.9391 218.772 63.9677 218.748C63.9963 218.724 64.0142 218.69 64.0175 218.653C64.0209 218.615 64.0093 218.578 63.9854 218.55C63.9615 218.521 63.9272 218.503 63.89 218.5Z" fill="white"/>
<path d="M65.5 219.465C63.29 219.04 60.585 219.37 58.885 220.935C58.82 220.995 58.885 221.09 58.98 221.065C61.0933 220.394 63.2724 219.951 65.48 219.745C65.5172 219.748 65.5538 219.735 65.582 219.711C65.6101 219.687 65.6274 219.652 65.63 219.615C65.6327 219.578 65.6205 219.541 65.5961 219.513C65.5717 219.485 65.5372 219.468 65.5 219.465Z" fill="white"/>
<path d="M67.075 220.435C64.865 220.01 62.155 220.335 60.46 221.905C60.39 221.965 60.46 222.06 60.55 222.035C62.6633 221.364 64.8424 220.921 67.05 220.715C67.0872 220.718 67.1241 220.707 67.1527 220.683C67.1813 220.659 67.1992 220.624 67.2025 220.587C67.2058 220.55 67.1943 220.513 67.1704 220.485C67.1465 220.456 67.1122 220.438 67.075 220.435Z" fill="white"/>
<path d="M46.065 221.955C43.65 220.735 41.75 224.485 44.165 225.705C46.58 226.925 48.5 223.18 46.065 221.955Z" fill="white"/>
<path d="M62.7 211.43L40.9 211.61C40.9 211.61 44.53 122.575 42.1 119.665C36.32 112.75 37.24 103.53 41.135 94.27H61C61 94.27 60.045 108.33 60.14 108.74C66.25 135.39 62.7 211.43 62.7 211.43Z" fill="#37474F"/>
<path d="M61.5 206.965C56.745 206.595 44.22 207 42.64 207.24C42.6327 207.244 42.6265 207.249 42.6222 207.257C42.6179 207.264 42.6157 207.272 42.6157 207.28C42.6157 207.288 42.6179 207.296 42.6222 207.303C42.6265 207.31 42.6327 207.316 42.64 207.32C44.205 207.635 58.565 207.185 61.495 207.07C61.5064 207.067 61.5166 207.061 61.524 207.051C61.5314 207.042 61.5357 207.031 61.5363 207.019C61.5369 207.008 61.5336 206.996 61.5271 206.986C61.5206 206.976 61.5111 206.969 61.5 206.965Z" fill="#263238"/>
<path d="M61.47 99.7349C61.27 102.235 61.37 106.545 59.915 106.61C58.46 106.675 58.715 101.425 58.675 100.215C58.635 99.1199 58.26 99.2699 58.22 100.56C58.11 104.06 58.22 107.155 60.06 107.01C61.9 106.865 61.905 101.44 61.86 100.2C61.835 99.5599 61.53 98.9399 61.47 99.7349Z" fill="#263238"/>
<path d="M60 106.775C59.9095 107.659 59.928 108.551 60.055 109.43C60.08 109.5 60.36 109.43 60.39 109.385C60.56 109.02 60.425 107.3 60.47 106.835C60.478 106.773 60.4609 106.71 60.4224 106.66C60.4034 106.635 60.3797 106.615 60.3527 106.599C60.3257 106.584 60.2959 106.574 60.265 106.57C60.2027 106.562 60.1398 106.579 60.0901 106.618C60.0404 106.656 60.008 106.713 60 106.775Z" fill="#263238"/>
<path d="M60.625 109.875C61.245 112.075 61.88 116.285 61.73 117.375C61.73 117.475 61.57 117.51 61.55 117.405C61.35 116.225 60.47 110.55 60.38 109.955C60.29 109.36 60.45 109.26 60.625 109.875Z" fill="#263238"/>
<path d="M56.8 111.61C57.0902 111.326 57.401 111.063 57.73 110.825C58.055 110.57 58.38 110.325 58.73 110.08C59.42 109.58 60.13 109.15 60.855 108.72C61.58 108.29 62.29 107.915 63.03 107.54C63.77 107.165 64.62 106.855 65.39 106.47C65.435 106.445 65.475 106.51 65.43 106.535C64.7 106.94 64.02 107.445 63.31 107.89C62.6 108.335 61.89 108.795 61.175 109.24C60.46 109.685 59.785 110.12 59.085 110.55C58.7217 110.777 58.3517 110.997 57.975 111.21C57.6379 111.427 57.2872 111.623 56.925 111.795C56.805 111.84 56.735 111.685 56.8 111.61Z" fill="#263238"/>
<path d="M44.185 165.105C44.5 157.97 45 150 45.12 142.875C45.1767 139.305 45.2033 135.733 45.2 132.16C45.2 128.615 45.2 123.88 45.04 120.34C44.945 118.54 41.775 117.15 41.13 111.91C40.6831 108.926 40.9208 105.879 41.825 103C42.0499 102.3 42.3154 101.614 42.62 100.945C42.62 100.9 42.705 100.945 42.685 100.985C41.4162 103.927 40.8891 107.136 41.15 110.33C41.2422 111.94 41.5794 113.527 42.15 115.035C43 117.15 45.095 118.865 45.205 119.99C45.37 121.665 45.395 123.115 45.415 124.8C45.435 126.485 45.455 128.3 45.465 130.05C45.485 133.623 45.475 137.195 45.435 140.765C45.355 147.875 45.1683 154.982 44.875 162.085C44.575 169.19 42.735 204.765 42.615 205.585C42.615 205.675 42.455 205.655 42.46 205.585C42.68 202 43.865 172.24 44.185 165.105Z" fill="#263238"/>
<path d="M55.96 77.8599C60.69 87.6199 66.695 98.1899 72.315 99.8599C77.665 101.435 88.035 88.2999 91.315 84.8599C92.485 83.6099 82.98 76.4599 81.505 77.5449C78.725 79.5899 73.73 85.1599 72.89 84.9649C72.05 84.7699 65.035 78.0999 58.715 72.4999C54.885 69.1049 52.685 71.0949 55.96 77.8599Z" fill="#EB9481"/>
<path d="M99.54 78.665C100.84 78.12 110.85 77.8 110.85 75.63C110.85 73.46 98.105 74.07 98.105 74.07L99.54 78.665Z" fill="#EB9481"/>
<path d="M80.34 78.92C82.09 76.745 83.63 74.42 85.15 73.97C86.205 73.67 97.535 74.16 99.31 74.055C101.085 73.95 107.395 74.11 107.545 75.66C107.75 77.855 100.27 77.835 99.475 78.96C96.72 82.83 86.245 88.56 86.245 88.56L80.34 78.92Z" fill="#EB9481"/>
<path d="M107.71 75.6949C107.601 75.2833 107.342 74.9269 106.985 74.6949C106.21 74.1549 105.19 74.1049 104.28 74.0349C102.9 73.9059 101.512 73.8941 100.13 73.9999C100.123 73.9999 100.117 74.0025 100.112 74.0072C100.108 74.0119 100.105 74.0182 100.105 74.0249C100.105 74.0315 100.108 74.0379 100.112 74.0425C100.117 74.0472 100.123 74.0499 100.13 74.0499C101.165 74.0499 102.2 74.0749 103.235 74.1599C104.183 74.1996 105.124 74.3438 106.04 74.5899C106.454 74.7 106.829 74.9254 107.12 75.2399C107.223 75.3497 107.297 75.4838 107.335 75.6298C107.372 75.7757 107.372 75.9288 107.335 76.0749C107.03 77.0299 105.145 77.3149 104.275 77.5099C103.14 77.7649 101.96 78.0099 100.815 78.2199C100.765 78.2199 100.815 78.3099 100.84 78.2999C102.025 78.0649 103.28 77.9699 104.47 77.7549C105.435 77.5799 106.47 77.3849 107.25 76.7549C107.418 76.6386 107.55 76.4778 107.631 76.2905C107.713 76.1032 107.74 75.8969 107.71 75.6949Z" fill="#263238"/>
<path d="M90.0906 70.9685L90.4202 69.2804L110.118 73.1271C110.296 73.1619 110.454 73.2662 110.555 73.4169C110.657 73.5676 110.694 73.7524 110.659 73.9307L110.592 74.2742C110.557 74.4525 110.453 74.6097 110.302 74.7112C110.152 74.8126 109.967 74.8501 109.788 74.8152L90.0906 70.9685Z" fill="#28A228"/>
<path opacity="0.1" d="M90.4179 69.2838L90.0882 70.9719L92.4633 71.4358L92.793 69.7476L90.4179 69.2838Z" fill="black"/>
<path d="M82.885 67.1349L82.305 70.1349C82.1061 71.1494 82.3183 72.2013 82.895 73.0593C83.4717 73.9172 84.3656 74.511 85.38 74.7099C86.3945 74.9088 87.4464 74.6966 88.3044 74.1199C89.1624 73.5432 89.7561 72.6494 89.955 71.6349L90.54 68.6349C90.6385 68.1323 90.637 67.6152 90.5357 67.1131C90.4343 66.611 90.2351 66.1338 89.9493 65.7088C89.6635 65.2837 89.2968 64.9191 88.8702 64.6358C88.4435 64.3524 87.9652 64.1559 87.4625 64.0574C86.9599 63.9589 86.4428 63.9604 85.9407 64.0617C85.4387 64.1631 84.9615 64.3624 84.5364 64.6481C83.678 65.2253 83.0839 66.1198 82.885 67.1349ZM89.315 67.8799C89.2101 68.3238 88.97 68.7243 88.6279 69.0261C88.2858 69.3279 87.8586 69.5161 87.405 69.5649C87.8048 69.7835 88.1282 70.119 88.3319 70.5265C88.5357 70.9339 88.61 71.394 88.545 71.8449C88.31 73.0349 87 73.7849 85.615 73.5149C84.23 73.2449 83.295 72.0549 83.525 70.8699C83.6323 70.4263 83.8737 70.0264 84.2164 69.7249C84.559 69.4234 84.9863 69.2348 85.44 69.1849C85.0383 68.9686 84.7132 68.6334 84.5092 68.2253C84.3051 67.8172 84.2321 67.3561 84.3 66.9049C84.535 65.7099 85.845 64.9699 87.23 65.2399C88.615 65.5099 89.55 66.6899 89.315 67.8799Z" fill="#28A228"/>
<path d="M90.5668 68.52L89.9391 71.7343C89.9058 71.905 90.0171 72.0705 90.1879 72.1038L90.3449 72.1345C90.5157 72.1678 90.6811 72.0565 90.7145 71.8857L91.3422 68.6714C91.3755 68.5007 91.2641 68.3352 91.0934 68.3019L90.9363 68.2712C90.7656 68.2379 90.6001 68.3493 90.5668 68.52Z" fill="#28A228"/>
<path d="M91.3426 68.6731L90.7149 71.8874C90.6815 72.0581 90.7929 72.2236 90.9636 72.2569L91.1207 72.2876C91.2914 72.3209 91.4569 72.2095 91.4902 72.0388L92.1179 68.8245C92.1513 68.6538 92.0399 68.4883 91.8691 68.455L91.7121 68.4243C91.5413 68.391 91.3759 68.5023 91.3426 68.6731Z" fill="#28A228"/>
<path d="M105.4 71.4849L105.985 71.5999L106.315 69.8949L106.82 69.9949L106.645 70.8849L107.23 70.9999L107.405 70.1099L107.845 70.1949L107.575 71.5999L108.16 71.7149L108.435 70.3099L109.065 70.4349L108.7 72.3099L109.285 72.4249L109.65 70.5499L110.245 70.6649L109.78 73.0599L104.54 72.0399L105.005 69.6399L105.73 69.7849L105.4 71.4849Z" fill="#28A228"/>
<path d="M38.28 97.2799L66.19 97.7399L64 89.3799C64.7282 88.3308 65.2178 87.135 65.4346 85.8765C65.6514 84.6179 65.5901 83.3272 65.255 82.0949C64.585 79.6349 61.41 75.9499 59.46 73.5949C54.72 67.8949 50.6 70.4699 49.285 71.9349C44.27 77.5499 38.28 97.2799 38.28 97.2799Z" fill="#28A228"/>
<path d="M52.025 75.185V73.595L53.08 74.775L54.22 74.42L53.665 75.42L54.2 75.98L53.37 76.065V77.145L52.46 76.385L51.72 77L51.805 76.09L50.725 75.59L52.025 75.185ZM63.915 93.05L63.035 93.855L62.225 93.425L62.51 94.35L61.46 94.895L62.46 95.325L62.215 96.125L62.945 95.845L63.665 96.755L63.775 95.565L65.275 95.065L63.815 94.43L63.915 93.05ZM53.71 87.115L54.565 88.815L55.41 87.19L57.02 87.47L56.165 85.76L57.36 84.62L55.665 84.68L55.325 83.02L54.435 84.74L52.175 84.565L53.505 85.94L52.275 86.885L53.71 87.115ZM60.365 77.29L60.775 76.6L60.005 76.67L59.74 76.035L59.325 76.725L58.65 76.56L59.055 77.15L58.555 77.65L59.37 77.575L59.82 78.415L60.005 77.635L60.615 77.855L60.365 77.29ZM47.275 95.5L47.685 94.815L46.92 94.88L46.65 94.245L46.24 94.94L45.565 94.77L45.97 95.36L45.47 95.86L46.285 95.79L46.735 96.63L46.92 95.845L47.535 96.07L47.275 95.5ZM51.865 83.105L52.275 82.42L51.505 82.485L51.24 81.85L50.83 82.545L50.15 82.375L50.555 82.965L50.055 83.465L50.87 83.395L51.32 84.23L51.505 83.45L52.12 83.67L51.865 83.105ZM46.895 84.965L46.755 84.515L46.485 84.88L46.1 84.745L46.24 85.2L45.905 85.43L46.32 85.485V85.905L46.605 85.515L47.15 85.65L46.88 85.26L47.22 85.075L46.895 84.965ZM59.85 95.69L59.71 95.24L59.435 95.605L59.055 95.475L59.195 95.925L58.855 96.16L59.275 96.21V96.63L59.56 96.245L60.105 96.375L59.835 95.985L60.175 95.805L59.85 95.69ZM63.725 82.62L64.08 82.305L63.635 82.21L63.595 81.805L63.24 82.12L62.89 81.91L63.015 82.31L62.64 82.5L63.11 82.6L63.215 83.155L63.46 82.745L63.765 82.98L63.725 82.62ZM56.725 91.065L57.075 90.75L56.63 90.655L56.59 90.25L56.24 90.565L55.885 90.355L56.01 90.755L55.635 90.945L56.105 91.045L56.21 91.6L56.455 91.19L56.76 91.425L56.725 91.065ZM42.315 93.715L42.665 93.4L42.22 93.3L42.185 92.895L41.83 93.215L41.5 93L41.62 93.405L41.245 93.59L41.715 93.695L41.825 94.245L42.065 93.84L42.37 94.075L42.315 93.715Z" fill="white"/>
<path d="M56.535 88.8899C57.7285 88.7799 58.9286 88.7599 60.125 88.8299C60.72 88.8699 61.31 88.9399 61.9 89.0249C62.19 89.0649 62.485 89.0949 62.78 89.1249C63.0889 89.1624 63.4012 89.1624 63.71 89.1249C63.71 89.1249 63.745 89.1599 63.71 89.1699C63.4248 89.234 63.1359 89.2807 62.845 89.3099C62.5603 89.3274 62.2748 89.3274 61.99 89.3099C61.39 89.2699 60.785 89.2049 60.185 89.1649C58.97 89.0749 57.755 88.9899 56.535 88.9899C56.5 88.9999 56.5 88.8949 56.535 88.8899Z" fill="#263238"/>
<path d="M53.8251 90.4551C54.7736 90.1788 55.7368 89.9551 56.7101 89.7851C57.2101 89.7051 57.7101 89.6501 58.1801 89.6101L58.885 89.5601C59.1451 89.5601 59.3851 89.5601 59.6651 89.5601C59.6951 89.5601 59.7001 89.6001 59.6651 89.6051C59.4201 89.6301 59.1651 89.6951 58.9351 89.7301L58.2051 89.8451L56.7451 90.0751C55.7717 90.2151 54.7984 90.3717 53.8251 90.5451C53.7851 90.5451 53.7751 90.4701 53.8251 90.4551Z" fill="#263238"/>
<path d="M52 71.62C52.12 72.12 54.5001 75.345 56.7751 75.235C57.515 75.195 57.495 71.145 57.495 71.145L57.5601 70.845L58.5 66.65L53.5801 63.5L52.87 63.085C52.87 63.085 52.69 64.25 52.48 65.7C52.48 65.77 52.48 65.835 52.48 65.905C52.48 65.975 52.45 66.065 52.44 66.145C52.405 66.36 52.3701 66.58 52.3451 66.8C52.3201 67.02 52.3 67.135 52.28 67.3L52.2201 67.83C52.0618 69.0869 51.9883 70.3531 52 71.62Z" fill="#EB9481"/>
<path d="M52.5 65.695C52.9267 66.8713 53.6037 67.9411 54.4842 68.8302C55.3648 69.7194 56.4278 70.4068 57.6 70.845L58.5 66.65L53.58 63.5L52.87 63.085C52.87 63.085 52.69 64.245 52.5 65.695Z" fill="#263238"/>
<path d="M64.415 59.8049C65.88 67.2049 61.61 68.9149 60.015 69.2299C58.57 69.5149 53.6 70.2949 51.38 63.0899C49.16 55.8849 52.14 52.8649 55.42 52.0399C58.7 51.2149 62.955 52.4099 64.415 59.8049Z" fill="#EB9481"/>
<path d="M62.255 58.675C62.0901 58.7125 61.9231 58.7408 61.755 58.76C61.5796 58.8176 61.3904 58.8176 61.215 58.76C61.1644 58.7293 61.1251 58.6829 61.1035 58.6278C61.0818 58.5727 61.0788 58.5119 61.095 58.455C61.1447 58.3471 61.2224 58.2545 61.32 58.1868C61.4176 58.1191 61.5316 58.0787 61.65 58.07C61.886 58.0148 62.1341 58.0505 62.345 58.17C62.3884 58.2014 62.422 58.2444 62.442 58.294C62.462 58.3437 62.4677 58.398 62.4583 58.4507C62.4489 58.5034 62.4248 58.5524 62.3889 58.592C62.3529 58.6317 62.3066 58.6604 62.255 58.675Z" fill="#263238"/>
<path d="M57 60.1899C57.1685 60.1641 57.3354 60.1291 57.5 60.0849C57.6849 60.0742 57.8609 60.0021 58 59.8799C58.0378 59.8342 58.0585 59.7767 58.0585 59.7174C58.0585 59.6581 58.0378 59.6006 58 59.5549C57.9159 59.4709 57.8104 59.4115 57.6949 59.3833C57.5794 59.3551 57.4584 59.3591 57.345 59.3949C57.1043 59.4259 56.8844 59.5475 56.73 59.7349C56.6954 59.7801 56.6751 59.8346 56.6717 59.8914C56.6683 59.9482 56.6821 60.0048 56.7111 60.0537C56.7402 60.1027 56.7832 60.1418 56.8347 60.1661C56.8862 60.1903 56.9438 60.1986 57 60.1899Z" fill="#263238"/>
<path d="M58.11 61.1399C58.11 61.1399 58.075 61.1399 58.08 61.1899C58.17 61.6899 58.19 62.2899 57.76 62.5249C57.76 62.5249 57.76 62.5599 57.76 62.5549C58.315 62.3899 58.28 61.5999 58.11 61.1399Z" fill="#263238"/>
<path d="M57.58 60.6749C56.755 60.7349 56.935 62.3849 57.7 62.3249C58.465 62.265 58.27 60.6249 57.58 60.6749Z" fill="#263238"/>
<path d="M57.265 60.8C57.13 60.905 57.01 61.085 56.835 61.125C56.66 61.165 56.47 61.01 56.335 60.86C56.365 61.175 56.5201 61.485 56.8651 61.495C57.2101 61.505 57.3651 61.2 57.4101 60.875C57.3801 60.835 57.32 60.755 57.265 60.8Z" fill="#263238"/>
<path d="M61.245 60.6599C61.245 60.6599 61.285 60.6599 61.285 60.6999C61.325 61.1999 61.45 61.7949 61.93 61.9149V61.9449C61.355 61.9249 61.195 61.1499 61.245 60.6599Z" fill="#263238"/>
<path d="M61.645 60.0798C62.46 59.9348 62.69 61.5798 61.935 61.7098C61.18 61.8398 60.96 60.2048 61.645 60.0798Z" fill="#263238"/>
<path d="M62 60.1399C62.145 60.2099 62.295 60.3499 62.45 60.3349C62.605 60.3199 62.7401 60.1249 62.8301 59.9399C62.8301 59.9399 62.83 59.9399 62.86 59.9399C62.91 60.2499 62.86 60.5949 62.56 60.6949C62.26 60.7949 62.06 60.5499 61.935 60.2449C61.915 60.2049 61.945 60.1099 62 60.1399Z" fill="#263238"/>
<path d="M59.04 65.45C59.17 65.565 59.305 65.72 59.49 65.725C59.681 65.7076 59.8664 65.6515 60.035 65.56C60.035 65.56 60.065 65.56 60.035 65.56C59.9686 65.6652 59.875 65.7504 59.7641 65.8068C59.6532 65.8631 59.5291 65.8884 59.405 65.88C59.3094 65.8593 59.2212 65.813 59.1499 65.7461C59.0786 65.6791 59.0268 65.5941 59 65.5C59 65.5 59 65.435 59.04 65.45Z" fill="#263238"/>
<path d="M60.945 63.3499C60.945 63.3499 61.145 64.0949 61.19 64.4549C61.19 64.4899 61.11 64.5149 60.985 64.5399C60.6829 64.6333 60.361 64.6422 60.0542 64.5655C59.7475 64.4888 59.4676 64.3295 59.245 64.1049C59.245 64.0749 59.245 64.0299 59.295 64.0499C59.7916 64.3074 60.3583 64.3969 60.91 64.3049C60.91 64.2049 60.525 63.0349 60.58 63.0249C60.8625 63.0157 61.145 63.0443 61.42 63.1099C61.055 61.5399 60.42 60.0399 60.095 58.4699C60.095 58.4149 60.165 58.3849 60.185 58.4349C60.8961 60.0206 61.4455 61.674 61.825 63.3699C61.87 63.5699 61.1 63.3899 60.945 63.3499Z" fill="#263238"/>
<path d="M60.9351 64.4099C60.7718 64.728 60.5289 64.9985 60.23 65.1949C60.0641 65.2981 59.8701 65.347 59.675 65.3349C59.255 65.2999 59.175 64.9299 59.175 64.5999C59.188 64.4302 59.2199 64.2625 59.2701 64.0999C59.7772 64.3798 60.3611 64.4885 60.9351 64.4099Z" fill="#263238"/>
<path d="M60.23 65.195C60.0641 65.2982 59.8701 65.3472 59.675 65.335C59.255 65.3 59.175 64.93 59.175 64.6C59.3924 64.5638 59.6156 64.6031 59.8075 64.7114C59.9995 64.8196 60.1486 64.9903 60.23 65.195Z" fill="#FF9ABB"/>
<path d="M52.205 63.74C53.62 63.74 53.525 60.49 53.525 60.49C53.525 60.49 59.305 58.6449 59.125 53.7599C60.1495 55.6138 61.8489 57.0016 63.87 57.6349C63.87 57.6349 62.915 52.385 58.58 51.95C58.58 51.95 53.115 50.795 50.775 55.335C48.435 59.875 51.255 63.755 52.205 63.74Z" fill="#263238"/>
<path d="M59.095 53.3999C59.2675 54.1334 59.2829 54.8951 59.14 55.6349C59.0102 56.3876 58.724 57.1046 58.3 57.7399C58.1951 57.899 58.0798 58.051 57.955 58.1949L57.78 58.4199C57.715 58.4899 57.645 58.5549 57.575 58.6199C57.505 58.6849 57.305 58.8849 57.165 59.0099L56.705 59.3499C56.63 59.4049 56.555 59.4599 56.475 59.5099L56.23 59.6499L55.73 59.9249C55.39 60.0749 55.04 60.2049 54.69 60.3299C55.01 60.1349 55.34 59.9749 55.65 59.7799L56.11 59.4699L56.335 59.3149C56.41 59.2599 56.475 59.1999 56.545 59.1399L56.96 58.7899C57.095 58.6649 57.215 58.5299 57.34 58.3999L57.53 58.2049L57.695 57.9899C57.8088 57.8515 57.914 57.7062 58.01 57.5549C58.4157 56.9441 58.7117 56.2673 58.885 55.5549C58.9745 55.2019 59.0364 54.8425 59.07 54.4799C59.107 54.1211 59.1154 53.76 59.095 53.3999Z" fill="#263238"/>
<path d="M50 59.2949L49.65 60.0049L51.99 61.7149L52.74 60.1199L50 59.2949ZM51.825 60.9849L50.21 59.9349L50.285 59.7699L52.1 60.4249L51.825 60.9849Z" fill="#28A228"/>
<path d="M50.1 58.04L50.045 58.83L52.86 59.535L52.955 57.77L50.1 58.04ZM52.43 58.915L50.535 58.555V58.37L52.465 58.295L52.43 58.915Z" fill="#28A228"/>
<path d="M53.29 63.1048C53.29 63.1048 51.395 60.9398 50.4 61.6398C49.405 62.3398 51 65.5998 52.295 65.9248C52.4584 65.9792 52.6311 65.9999 52.8027 65.9855C52.9743 65.971 53.1411 65.9219 53.2931 65.841C53.4451 65.7601 53.5791 65.6491 53.6868 65.5148C53.7946 65.3805 53.8739 65.2257 53.92 65.0598L53.29 63.1048Z" fill="#EB9481"/>
<path d="M50.88 62.5649C50.88 62.5649 50.88 62.5899 50.88 62.5949C51.3021 62.7512 51.6866 62.9945 52.0088 63.3089C52.3309 63.6232 52.5834 64.0017 52.75 64.4199C52.6899 64.338 52.6127 64.2702 52.5237 64.2211C52.4348 64.1721 52.3362 64.143 52.2349 64.1358C52.1335 64.1287 52.0319 64.1437 51.9369 64.1798C51.842 64.2159 51.756 64.2722 51.685 64.3449C51.685 64.3449 51.685 64.3949 51.715 64.3899C51.8625 64.3238 52.0268 64.3051 52.1854 64.3365C52.3439 64.3678 52.4888 64.4476 52.6 64.5649C52.7891 64.7633 52.9567 64.9812 53.1 65.2149C53.145 65.2899 53.285 65.2149 53.245 65.1449C53.125 63.9999 52.09 62.5449 50.88 62.5649Z" fill="#263238"/>
<path d="M47.6251 73.5999C41.2651 84.5699 31.7601 109.75 30.0401 113.35C28.8751 115.795 41.6551 122.24 42.2001 120.46C42.8901 118.185 51.7601 88.8549 52.3401 75.7699C52.6101 69.7099 49.6601 70.0899 47.6251 73.5999Z" fill="#EB9481"/>
<path d="M37 126.06C37.675 125.47 38 125.82 37.695 127.38C37.39 128.94 34.92 134.88 37.06 135.555C39.2 136.23 42.56 127.835 42.87 125.2C43.18 122.565 42.7 118.2 42.7 118.2C41.715 119.71 39 123.13 37 126.06Z" fill="#EB9481"/>
<path d="M40.75 135.23L24.75 132.35C24.25 132.31 23.945 131.98 24.03 131.61L25.495 125.07C25.5752 124.877 25.7176 124.716 25.8996 124.612C26.0817 124.509 26.293 124.47 26.5 124.5L42.5 127.365C43 127.41 43.305 127.74 43.22 128.105L41.755 134.645C41.6797 134.843 41.5388 135.009 41.3559 135.115C41.1731 135.222 40.9592 135.262 40.75 135.23Z" fill="#A6A6A6"/>
<path d="M40.935 134.46L24.905 131.58C24.405 131.535 24.105 131.205 24.185 130.84L25.655 124.3C25.7294 124.103 25.8693 123.937 26.0514 123.83C26.2334 123.724 26.4465 123.683 26.655 123.715L42.685 126.595C43.185 126.635 43.485 126.965 43.405 127.33L41.95 133.875C41.8736 134.074 41.731 134.241 41.5462 134.347C41.3614 134.454 41.1456 134.494 40.935 134.46Z" fill="#C7C7C7"/>
<path d="M40.635 132.385C40.265 132.245 39.915 132.385 39.855 132.695C39.847 132.873 39.8981 133.048 40.0003 133.194C40.1025 133.339 40.2501 133.447 40.42 133.5C40.79 133.64 41.14 133.5 41.2 133.195C41.2092 133.016 41.1586 132.84 41.0563 132.693C40.954 132.546 40.8058 132.438 40.635 132.385Z" fill="#263238"/>
<path d="M30.895 112.2C27.63 116.6 24.74 121.78 24.67 127.505C24.6489 128.141 24.8407 128.766 25.215 129.28C25.14 131.84 26.325 132.65 26.325 132.65C26.985 135.055 28.325 135.715 28.325 135.715C28.325 135.715 28.515 137.78 29.97 137.75C31.425 137.72 32.225 134.335 33.47 131.865C36.385 126.195 41.685 119.755 42.685 118.205L30.895 112.2Z" fill="#EB9481"/>
<path d="M31.935 124.58C31.0653 126.23 30.3086 127.937 29.67 129.69C29.0887 131.655 28.6542 133.661 28.37 135.69C28.37 135.703 28.3648 135.716 28.3554 135.725C28.346 135.735 28.3333 135.74 28.32 135.74C28.3068 135.74 28.294 135.735 28.2847 135.725C28.2753 135.716 28.27 135.703 28.27 135.69C28.4292 131.725 29.6707 127.879 31.86 124.57C31.91 124.465 32 124.5 31.935 124.58Z" fill="#263238"/>
<path d="M28.7701 122.325C28.0601 124.01 26.8301 126.975 26.3851 132.655C26.3851 132.655 26.3551 132.655 26.3501 132.655C26.1555 129.05 26.9656 125.462 28.6901 122.29C28.7451 122.19 28.8201 122.21 28.7701 122.325Z" fill="#263238"/>
<path d="M27.05 121.145C25.95 124.055 25.62 126.03 25.23 129.265H25.195C25.255 125.54 25.695 124.19 26.955 121.09C27 121 27.09 121.03 27.05 121.145Z" fill="#263238"/>
</svg>
