<svg width="25" height="24" viewBox="0 0 25 24" fill="none" xmlns="http://www.w3.org/2000/svg">
<path d="M4.96281 14.2549C5.07845 14.2549 5.18964 14.301 5.27141 14.3828C5.35313 14.4646 5.39934 14.5758 5.39934 14.6914V22.2002C5.39925 22.3156 5.35291 22.4262 5.27141 22.5078C5.18964 22.5896 5.07845 22.6357 4.96281 22.6357H2.49992C2.38431 22.6357 2.27308 22.5896 2.19133 22.5078C2.10986 22.4262 2.06446 22.3155 2.06438 22.2002V15.1152C2.06438 14.9997 2.10964 14.8884 2.19133 14.8066C2.27308 14.7249 2.38431 14.6787 2.49992 14.6787C2.61556 14.6787 2.72675 14.7249 2.80852 14.8066C2.89025 14.8884 2.93645 14.9996 2.93645 15.1152V21.7637H4.52727V14.6914C4.52727 14.5758 4.57253 14.4646 4.65422 14.3828C4.73597 14.3011 4.8472 14.2549 4.96281 14.2549ZM10.9423 12.126C11.0578 12.1261 11.1682 12.1722 11.2499 12.2539C11.3316 12.3356 11.3777 12.446 11.3779 12.5615V22.2002C11.3778 22.3157 11.3316 22.4261 11.2499 22.5078C11.1682 22.5895 11.0578 22.6357 10.9423 22.6357H8.47942C8.36378 22.6357 8.25259 22.5896 8.17082 22.5078C8.08924 22.4261 8.04298 22.3156 8.04289 22.2002V13.6211C8.04289 13.5055 8.08906 13.3943 8.17082 13.3125C8.25259 13.2307 8.36379 13.1846 8.47942 13.1846C8.59484 13.1847 8.70536 13.2309 8.78703 13.3125C8.8688 13.3943 8.91496 13.5055 8.91496 13.6211V21.7637H10.5058V12.5615C10.5059 12.4461 10.5521 12.3356 10.6337 12.2539C10.7155 12.1721 10.8267 12.126 10.9423 12.126ZM16.9208 8.25293C17.0365 8.25293 17.1477 8.29909 17.2294 8.38086C17.3111 8.46261 17.3573 8.5739 17.3573 8.68945V22.2002C17.3573 22.3156 17.3109 22.4262 17.2294 22.5078C17.1477 22.5896 17.0365 22.6357 16.9208 22.6357H14.4579C14.3423 22.6357 14.2311 22.5896 14.1493 22.5078C14.0679 22.4262 14.0225 22.3155 14.0224 22.2002V10.543C14.0224 10.4274 14.0677 10.3161 14.1493 10.2344C14.2311 10.1526 14.3423 10.1065 14.4579 10.1064C14.5736 10.1064 14.6848 10.1526 14.7665 10.2344C14.8482 10.3161 14.8945 10.4274 14.8945 10.543V21.7637H16.4853V8.68945C16.4853 8.57392 16.5306 8.4626 16.6122 8.38086C16.694 8.2991 16.8052 8.25294 16.9208 8.25293ZM22.9003 1.36426C23.0157 1.36434 23.1263 1.40974 23.2079 1.49121C23.2897 1.57296 23.3358 1.68419 23.3359 1.7998V22.2002C23.3358 22.3157 23.2896 22.4261 23.2079 22.5078C23.1262 22.5895 23.0158 22.6357 22.9003 22.6357H20.4374C20.3218 22.6357 20.2106 22.5896 20.1288 22.5078C20.0472 22.4261 20.001 22.3156 20.0009 22.2002V5.17383C20.0009 5.05819 20.0471 4.947 20.1288 4.86523C20.2106 4.78356 20.3219 4.7373 20.4374 4.7373C20.5528 4.73739 20.6634 4.78374 20.745 4.86523C20.8268 4.947 20.873 5.05819 20.873 5.17383V21.7637H22.4638V1.7998C22.4638 1.68419 22.51 1.57296 22.5917 1.49121C22.6735 1.40957 22.7848 1.36426 22.9003 1.36426Z" fill="#848484" stroke="#848484" stroke-width="0.2"/>
<mask id="path-2-inside-1_477_188" fill="white">
<path d="M8.4791 13.9572C8.40045 13.9571 8.32432 13.9295 8.26395 13.8791C8.20358 13.8287 8.16281 13.7587 8.14873 13.6813C8.13466 13.6039 8.14817 13.5241 8.18692 13.4556C8.22566 13.3872 8.28719 13.3345 8.36078 13.3068C9.18374 12.9969 10.0029 12.6446 10.7953 12.2601C10.8352 12.2389 10.879 12.2258 10.924 12.2219C10.969 12.2179 11.0144 12.2231 11.0574 12.237C11.1004 12.251 11.1401 12.2735 11.1742 12.3032C11.2083 12.3329 11.236 12.3692 11.2558 12.4098C11.2755 12.4505 11.2869 12.4947 11.2891 12.5399C11.2914 12.585 11.2845 12.6302 11.2689 12.6726C11.2533 12.715 11.2292 12.7538 11.1983 12.7868C11.1673 12.8197 11.13 12.846 11.0886 12.8642C10.2779 13.2578 9.43982 13.6183 8.59742 13.9353C8.55961 13.9497 8.51953 13.9571 8.4791 13.9572ZM20.4369 5.51014C20.3729 5.51003 20.3104 5.49169 20.2565 5.45728C20.2027 5.42287 20.1597 5.37381 20.1328 5.31586C20.1058 5.25791 20.096 5.19348 20.1043 5.13011C20.1127 5.06675 20.139 5.00709 20.1801 4.95814C21.0671 3.90302 21.881 2.78841 22.6158 1.62214C22.6637 1.54757 22.7392 1.49496 22.8257 1.47576C22.9122 1.45655 23.0028 1.47231 23.0778 1.5196C23.1527 1.5669 23.206 1.64189 23.2259 1.72825C23.2458 1.81461 23.2308 1.90535 23.1841 1.9807C22.4329 3.1728 21.6009 4.3121 20.6941 5.39062C20.6626 5.42809 20.6232 5.45821 20.5787 5.47886C20.5343 5.49951 20.4859 5.51018 20.4369 5.51014ZM14.4582 10.8789C14.3862 10.8789 14.3161 10.8558 14.2582 10.813C14.2004 10.7701 14.1578 10.7098 14.1368 10.6409C14.1158 10.572 14.1175 10.4982 14.1416 10.4304C14.1657 10.3625 14.211 10.3042 14.2708 10.2641C15.1142 9.69737 15.9267 9.08585 16.7046 8.43214C16.7732 8.37808 16.8601 8.35284 16.9469 8.36176C17.0338 8.37067 17.1138 8.41304 17.1699 8.4799C17.2261 8.54675 17.254 8.63284 17.2478 8.71992C17.2416 8.80701 17.2017 8.88826 17.1366 8.94646C16.3404 9.61585 15.5087 10.2419 14.6452 10.8218C14.59 10.8591 14.5248 10.879 14.4582 10.8789ZM2.49998 15.4514C2.41087 15.4546 2.32414 15.4223 2.25888 15.3615C2.19361 15.3007 2.15516 15.2165 2.15198 15.1274C2.1488 15.0383 2.18114 14.9516 2.24191 14.8863C2.30267 14.821 2.38687 14.7826 2.47598 14.7794C2.4851 14.7794 3.41198 14.706 4.88798 14.3633C4.9748 14.3431 5.06608 14.3582 5.14174 14.4053C5.2174 14.4525 5.27124 14.5277 5.29142 14.6145C5.3116 14.7014 5.29646 14.7926 5.24933 14.8683C5.20221 14.944 5.12696 14.9978 5.04014 15.018C3.50798 15.3744 2.5643 15.4476 2.52398 15.4505C2.51654 15.4512 2.5079 15.4514 2.49998 15.4514ZM4.24886 11.7312C3.87535 11.7314 3.50864 11.6313 3.18711 11.4412C2.86558 11.2511 2.60106 10.9781 2.42122 10.6507C2.24139 10.3234 2.15285 9.95367 2.16489 9.58036C2.17692 9.20704 2.28909 8.84382 2.48963 8.52872C2.69018 8.21361 2.97174 7.95821 3.30484 7.78923C3.63794 7.62026 4.01034 7.54393 4.38306 7.56823C4.75578 7.59253 5.11512 7.71658 5.42346 7.92737C5.7318 8.13817 5.97781 8.42798 6.13574 8.76646C6.28331 9.08393 6.34859 9.43344 6.32556 9.78278C6.30253 10.1321 6.19193 10.47 6.00395 10.7654C5.81598 11.0607 5.55668 11.304 5.24996 11.4728C4.94323 11.6416 4.59895 11.7304 4.24886 11.7312ZM4.2455 8.23558C3.94021 8.23604 3.6433 8.33549 3.39932 8.51901C3.15535 8.70253 2.97746 8.96023 2.89237 9.25342C2.80727 9.54661 2.81955 9.8595 2.92736 10.1451C3.03517 10.4307 3.2327 10.6737 3.4903 10.8375C3.74791 11.0014 4.0517 11.0773 4.35609 11.0538C4.66048 11.0303 4.94905 10.9088 5.17851 10.7074C5.40796 10.506 5.56592 10.2357 5.62869 9.9369C5.69146 9.63813 5.65564 9.32706 5.52662 9.05038C5.4139 8.80586 5.23313 8.59898 5.00594 8.45448C4.77875 8.30999 4.51474 8.23399 4.2455 8.23558ZM10.5481 8.79334C10.0348 8.79409 9.5392 8.60527 9.1565 8.26308C8.77381 7.92089 8.53094 7.44945 8.47449 6.93919C8.41805 6.42893 8.552 5.9158 8.85065 5.49824C9.1493 5.08068 9.59162 4.7881 10.0927 4.67664C10.5939 4.56517 11.1185 4.64267 11.566 4.89426C12.0135 5.14585 12.3523 5.55381 12.5175 6.03988C12.6827 6.52596 12.6625 7.0559 12.461 7.52805C12.2594 8.00019 11.8906 8.38129 11.4253 8.59822C11.1506 8.72622 10.8512 8.7928 10.5481 8.79334ZM10.5441 5.29846C10.2386 5.29844 9.94128 5.39751 9.69687 5.58081C9.45246 5.7641 9.27409 6.02173 9.18854 6.31501C9.103 6.6083 9.11489 6.92142 9.22242 7.20738C9.32996 7.49333 9.52735 7.73669 9.78496 7.90092C10.0426 8.06516 10.3465 8.14141 10.6511 8.11823C10.9557 8.09504 11.2446 7.97368 11.4744 7.77235C11.7042 7.57103 11.8625 7.3006 11.9255 7.00167C11.9886 6.70273 11.9529 6.39142 11.824 6.11446C11.7103 5.87082 11.5295 5.66466 11.3028 5.52013C11.0761 5.3756 10.8129 5.2987 10.5441 5.29846ZM16.8436 5.85814C16.5085 5.8583 16.1783 5.77766 15.8809 5.62304C15.5836 5.46842 15.328 5.24439 15.1357 4.96994C14.9434 4.69549 14.8201 4.37872 14.7763 4.04648C14.7325 3.71424 14.7694 3.37634 14.884 3.06142C15.0249 2.67426 15.2775 2.33759 15.6097 2.09396C15.942 1.85034 16.339 1.71071 16.7506 1.69272C17.1622 1.67474 17.5699 1.77922 17.9222 1.99294C18.2744 2.20666 18.5554 2.52003 18.7295 2.89342C18.8771 3.21089 18.9424 3.5604 18.9193 3.90974C18.8963 4.25908 18.7857 4.597 18.5977 4.89235C18.4097 5.1877 18.1504 5.43098 17.8437 5.59976C17.537 5.76855 17.1937 5.8574 16.8436 5.85814ZM16.8414 2.36182C16.5359 2.3618 16.2386 2.46087 15.9942 2.64417C15.7498 2.82746 15.5715 3.08509 15.4859 3.37838C15.4004 3.67166 15.4122 3.98478 15.5198 4.27074C15.6273 4.55669 15.8247 4.80005 16.0823 4.96428C16.3399 5.12852 16.6439 5.20477 16.9485 5.18159C17.2531 5.1584 17.542 5.03704 17.7718 4.83571C18.0016 4.63439 18.1599 4.36396 18.2229 4.06503C18.2859 3.76609 18.2503 3.45478 18.1213 3.17782C18.0074 2.93435 17.8266 2.72832 17.6 2.58383C17.3733 2.43933 17.1102 2.36232 16.8414 2.36182Z"/>
</mask>
<path d="M8.4791 13.9572C8.40045 13.9571 8.32432 13.9295 8.26395 13.8791C8.20358 13.8287 8.16281 13.7587 8.14873 13.6813C8.13466 13.6039 8.14817 13.5241 8.18692 13.4556C8.22566 13.3872 8.28719 13.3345 8.36078 13.3068C9.18374 12.9969 10.0029 12.6446 10.7953 12.2601C10.8352 12.2389 10.879 12.2258 10.924 12.2219C10.969 12.2179 11.0144 12.2231 11.0574 12.237C11.1004 12.251 11.1401 12.2735 11.1742 12.3032C11.2083 12.3329 11.236 12.3692 11.2558 12.4098C11.2755 12.4505 11.2869 12.4947 11.2891 12.5399C11.2914 12.585 11.2845 12.6302 11.2689 12.6726C11.2533 12.715 11.2292 12.7538 11.1983 12.7868C11.1673 12.8197 11.13 12.846 11.0886 12.8642C10.2779 13.2578 9.43982 13.6183 8.59742 13.9353C8.55961 13.9497 8.51953 13.9571 8.4791 13.9572ZM20.4369 5.51014C20.3729 5.51003 20.3104 5.49169 20.2565 5.45728C20.2027 5.42287 20.1597 5.37381 20.1328 5.31586C20.1058 5.25791 20.096 5.19348 20.1043 5.13011C20.1127 5.06675 20.139 5.00709 20.1801 4.95814C21.0671 3.90302 21.881 2.78841 22.6158 1.62214C22.6637 1.54757 22.7392 1.49496 22.8257 1.47576C22.9122 1.45655 23.0028 1.47231 23.0778 1.5196C23.1527 1.5669 23.206 1.64189 23.2259 1.72825C23.2458 1.81461 23.2308 1.90535 23.1841 1.9807C22.4329 3.1728 21.6009 4.3121 20.6941 5.39062C20.6626 5.42809 20.6232 5.45821 20.5787 5.47886C20.5343 5.49951 20.4859 5.51018 20.4369 5.51014ZM14.4582 10.8789C14.3862 10.8789 14.3161 10.8558 14.2582 10.813C14.2004 10.7701 14.1578 10.7098 14.1368 10.6409C14.1158 10.572 14.1175 10.4982 14.1416 10.4304C14.1657 10.3625 14.211 10.3042 14.2708 10.2641C15.1142 9.69737 15.9267 9.08585 16.7046 8.43214C16.7732 8.37808 16.8601 8.35284 16.9469 8.36176C17.0338 8.37067 17.1138 8.41304 17.1699 8.4799C17.2261 8.54675 17.254 8.63284 17.2478 8.71992C17.2416 8.80701 17.2017 8.88826 17.1366 8.94646C16.3404 9.61585 15.5087 10.2419 14.6452 10.8218C14.59 10.8591 14.5248 10.879 14.4582 10.8789ZM2.49998 15.4514C2.41087 15.4546 2.32414 15.4223 2.25888 15.3615C2.19361 15.3007 2.15516 15.2165 2.15198 15.1274C2.1488 15.0383 2.18114 14.9516 2.24191 14.8863C2.30267 14.821 2.38687 14.7826 2.47598 14.7794C2.4851 14.7794 3.41198 14.706 4.88798 14.3633C4.9748 14.3431 5.06608 14.3582 5.14174 14.4053C5.2174 14.4525 5.27124 14.5277 5.29142 14.6145C5.3116 14.7014 5.29646 14.7926 5.24933 14.8683C5.20221 14.944 5.12696 14.9978 5.04014 15.018C3.50798 15.3744 2.5643 15.4476 2.52398 15.4505C2.51654 15.4512 2.5079 15.4514 2.49998 15.4514ZM4.24886 11.7312C3.87535 11.7314 3.50864 11.6313 3.18711 11.4412C2.86558 11.2511 2.60106 10.9781 2.42122 10.6507C2.24139 10.3234 2.15285 9.95367 2.16489 9.58036C2.17692 9.20704 2.28909 8.84382 2.48963 8.52872C2.69018 8.21361 2.97174 7.95821 3.30484 7.78923C3.63794 7.62026 4.01034 7.54393 4.38306 7.56823C4.75578 7.59253 5.11512 7.71658 5.42346 7.92737C5.7318 8.13817 5.97781 8.42798 6.13574 8.76646C6.28331 9.08393 6.34859 9.43344 6.32556 9.78278C6.30253 10.1321 6.19193 10.47 6.00395 10.7654C5.81598 11.0607 5.55668 11.304 5.24996 11.4728C4.94323 11.6416 4.59895 11.7304 4.24886 11.7312ZM4.2455 8.23558C3.94021 8.23604 3.6433 8.33549 3.39932 8.51901C3.15535 8.70253 2.97746 8.96023 2.89237 9.25342C2.80727 9.54661 2.81955 9.8595 2.92736 10.1451C3.03517 10.4307 3.2327 10.6737 3.4903 10.8375C3.74791 11.0014 4.0517 11.0773 4.35609 11.0538C4.66048 11.0303 4.94905 10.9088 5.17851 10.7074C5.40796 10.506 5.56592 10.2357 5.62869 9.9369C5.69146 9.63813 5.65564 9.32706 5.52662 9.05038C5.4139 8.80586 5.23313 8.59898 5.00594 8.45448C4.77875 8.30999 4.51474 8.23399 4.2455 8.23558ZM10.5481 8.79334C10.0348 8.79409 9.5392 8.60527 9.1565 8.26308C8.77381 7.92089 8.53094 7.44945 8.47449 6.93919C8.41805 6.42893 8.552 5.9158 8.85065 5.49824C9.1493 5.08068 9.59162 4.7881 10.0927 4.67664C10.5939 4.56517 11.1185 4.64267 11.566 4.89426C12.0135 5.14585 12.3523 5.55381 12.5175 6.03988C12.6827 6.52596 12.6625 7.0559 12.461 7.52805C12.2594 8.00019 11.8906 8.38129 11.4253 8.59822C11.1506 8.72622 10.8512 8.7928 10.5481 8.79334ZM10.5441 5.29846C10.2386 5.29844 9.94128 5.39751 9.69687 5.58081C9.45246 5.7641 9.27409 6.02173 9.18854 6.31501C9.103 6.6083 9.11489 6.92142 9.22242 7.20738C9.32996 7.49333 9.52735 7.73669 9.78496 7.90092C10.0426 8.06516 10.3465 8.14141 10.6511 8.11823C10.9557 8.09504 11.2446 7.97368 11.4744 7.77235C11.7042 7.57103 11.8625 7.3006 11.9255 7.00167C11.9886 6.70273 11.9529 6.39142 11.824 6.11446C11.7103 5.87082 11.5295 5.66466 11.3028 5.52013C11.0761 5.3756 10.8129 5.2987 10.5441 5.29846ZM16.8436 5.85814C16.5085 5.8583 16.1783 5.77766 15.8809 5.62304C15.5836 5.46842 15.328 5.24439 15.1357 4.96994C14.9434 4.69549 14.8201 4.37872 14.7763 4.04648C14.7325 3.71424 14.7694 3.37634 14.884 3.06142C15.0249 2.67426 15.2775 2.33759 15.6097 2.09396C15.942 1.85034 16.339 1.71071 16.7506 1.69272C17.1622 1.67474 17.5699 1.77922 17.9222 1.99294C18.2744 2.20666 18.5554 2.52003 18.7295 2.89342C18.8771 3.21089 18.9424 3.5604 18.9193 3.90974C18.8963 4.25908 18.7857 4.597 18.5977 4.89235C18.4097 5.1877 18.1504 5.43098 17.8437 5.59976C17.537 5.76855 17.1937 5.8574 16.8436 5.85814ZM16.8414 2.36182C16.5359 2.3618 16.2386 2.46087 15.9942 2.64417C15.7498 2.82746 15.5715 3.08509 15.4859 3.37838C15.4004 3.67166 15.4122 3.98478 15.5198 4.27074C15.6273 4.55669 15.8247 4.80005 16.0823 4.96428C16.3399 5.12852 16.6439 5.20477 16.9485 5.18159C17.2531 5.1584 17.542 5.03704 17.7718 4.83571C18.0016 4.63439 18.1599 4.36396 18.2229 4.06503C18.2859 3.76609 18.2503 3.45478 18.1213 3.17782C18.0074 2.93435 17.8266 2.72832 17.6 2.58383C17.3733 2.43933 17.1102 2.36232 16.8414 2.36182Z" fill="#848484" stroke="#848484" stroke-width="2" mask="url(#path-2-inside-1_477_188)"/>
<path d="M8.9413 7.00586C9.00025 7.00082 9.05995 7.00772 9.1161 7.02637C9.17224 7.04506 9.22424 7.07492 9.26845 7.11426C9.31269 7.15366 9.34787 7.20218 9.37294 7.25586C9.39799 7.30955 9.41216 7.36754 9.41396 7.42676C9.41575 7.48604 9.40548 7.54543 9.38368 7.60059C9.36189 7.65558 9.32873 7.70514 9.287 7.74707C9.24627 7.78799 9.19776 7.81976 9.14442 7.8418L9.1454 7.84277L6.01552 9.30273C5.958 9.32965 5.89543 9.34359 5.83192 9.34375C5.73263 9.34387 5.63598 9.31013 5.55849 9.24805C5.4811 9.186 5.42671 9.09975 5.40517 9.00293C5.38365 8.90608 5.3965 8.80483 5.44032 8.71582C5.48418 8.62686 5.55651 8.55465 5.64638 8.5127L8.77235 7.05566L8.85439 7.02246C8.88256 7.01409 8.91187 7.0084 8.9413 7.00586ZM15.2401 4.07617C15.2972 4.07372 15.3544 4.083 15.4081 4.10254C15.4618 4.12212 15.5115 4.15182 15.5536 4.19043C15.5957 4.22902 15.63 4.27541 15.6542 4.32715C15.6784 4.37905 15.6917 4.43595 15.6942 4.49316C15.6967 4.55024 15.6884 4.60744 15.6688 4.66113C15.6493 4.7149 15.6186 4.76444 15.58 4.80664C15.5414 4.84871 15.495 4.88308 15.4433 4.90723L12.3124 6.36719V6.36621C12.2548 6.39312 12.1923 6.40808 12.1288 6.4082C12.0295 6.40841 11.9329 6.37451 11.8554 6.3125C11.7778 6.25042 11.7236 6.16335 11.702 6.06641C11.6805 5.96937 11.6932 5.86742 11.7372 5.77832C11.7812 5.68938 11.8542 5.61796 11.9442 5.57617L15.0741 4.11621C15.126 4.092 15.1829 4.07868 15.2401 4.07617Z" fill="#848484" stroke="#848484" stroke-width="0.2"/>
</svg>
