<svg width="28" height="28" viewBox="0 0 28 28" fill="none" xmlns="http://www.w3.org/2000/svg">
<path d="M3.23168 11.6668C2.73001 11.6668 2.33334 11.2702 2.33334 10.7685V8.0735C2.33334 4.91183 4.91168 2.3335 8.07334 2.3335H10.7683C11.27 2.3335 11.6667 2.73016 11.6667 3.23183C11.6667 3.7335 11.27 4.13016 10.7683 4.13016H8.07334C5.89168 4.13016 4.13001 5.9035 4.13001 8.0735V10.7685C4.13001 11.2702 3.72168 11.6668 3.23168 11.6668Z" fill="white"/>
<path d="M24.7683 11.6668C24.2783 11.6668 23.87 11.2702 23.87 10.7685V8.0735C23.87 5.89183 22.0967 4.13016 19.9267 4.13016H17.2317C16.73 4.13016 16.3333 3.72183 16.3333 3.23183C16.3333 2.74183 16.73 2.3335 17.2317 2.3335H19.9267C23.0883 2.3335 25.6667 4.91183 25.6667 8.0735V10.7685C25.6667 11.2702 25.27 11.6668 24.7683 11.6668Z" fill="white"/>
<path d="M19.9267 25.6668H18.305C17.815 25.6668 17.4067 25.2701 17.4067 24.7685C17.4067 24.2785 17.8033 23.8701 18.305 23.8701H19.9267C22.1083 23.8701 23.87 22.0968 23.87 19.9268V18.3168C23.87 17.8268 24.2667 17.4185 24.7683 17.4185C25.2583 17.4185 25.6667 17.8151 25.6667 18.3168V19.9268C25.6667 23.0885 23.0883 25.6668 19.9267 25.6668Z" fill="white"/>
<path d="M10.7683 25.6668H8.07334C4.91168 25.6668 2.33334 23.0885 2.33334 19.9268V17.2318C2.33334 16.7302 2.73001 16.3335 3.23168 16.3335C3.73334 16.3335 4.13001 16.7302 4.13001 17.2318V19.9268C4.13001 22.1085 5.90334 23.8702 8.07334 23.8702H10.7683C11.2583 23.8702 11.6667 24.2668 11.6667 24.7685C11.6667 25.2702 11.27 25.6668 10.7683 25.6668Z" fill="white"/>
<path d="M12.502 9.68848C12.6667 9.68848 12.8248 9.62346 12.9418 9.50754C13.0589 9.39163 13.1254 9.2342 13.127 9.06948C13.1286 8.90465 13.065 8.74587 12.9501 8.62769C12.8352 8.50951 12.6783 8.4415 12.5135 8.43848M12.448 10.9325C12.2833 10.9325 12.1252 10.8675 12.0082 10.7515C11.8911 10.6356 11.8246 10.4782 11.823 10.3135C11.8214 10.1487 11.885 9.98987 11.9999 9.87169C12.1148 9.75351 12.2717 9.6855 12.4365 9.68248M12.502 12.1825C12.6667 12.1825 12.8248 12.1175 12.9418 12.0015C13.0589 11.8856 13.1254 11.7282 13.127 11.5635C13.1286 11.3987 13.065 11.2399 12.9501 11.1217C12.8352 11.0035 12.6783 10.9355 12.5135 10.9325M15.002 9.68848C15.1667 9.68848 15.3248 9.62346 15.4418 9.50754C15.5589 9.39163 15.6254 9.2342 15.627 9.06948C15.6286 8.90465 15.565 8.74587 15.4501 8.62769C15.3352 8.50951 15.1783 8.4415 15.0135 8.43848M14.948 10.9325C14.7833 10.9325 14.6252 10.8675 14.5082 10.7515C14.3911 10.6356 14.3246 10.4782 14.323 10.3135C14.3214 10.1487 14.385 9.98987 14.4999 9.87169C14.6148 9.75351 14.7717 9.6855 14.9365 9.68248M15.002 12.1825C15.1667 12.1825 15.3248 12.1175 15.4418 12.0015C15.5589 11.8856 15.6254 11.7282 15.627 11.5635C15.6286 11.3987 15.565 11.2399 15.4501 11.1217C15.3352 11.0035 15.1783 10.9355 15.0135 10.9325M10.1955 9.68848C10.3602 9.68848 10.5183 9.62346 10.6353 9.50754C10.7524 9.39163 10.8189 9.2342 10.8205 9.06948C10.8221 8.90474 10.7586 8.74603 10.6438 8.62786C10.529 8.50969 10.3722 8.44163 10.2075 8.43848M10.142 10.9325C9.97727 10.9325 9.8192 10.8675 9.70216 10.7515C9.58512 10.6356 9.51858 10.4782 9.517 10.3135C9.51539 10.1487 9.57888 9.99003 9.69368 9.87186C9.80847 9.75369 9.96528 9.68563 10.13 9.68248M10.1955 12.1825C10.3602 12.1825 10.5183 12.1175 10.6353 12.0015C10.7524 11.8856 10.8189 11.7282 10.8205 11.5635C10.8221 11.3987 10.7586 11.24 10.6438 11.1219C10.529 11.0037 10.3722 10.9356 10.2075 10.9325" stroke="white" stroke-linecap="round" stroke-linejoin="round"/>
<path d="M10.439 19.5612H14.938V18.0732C13.9795 18.4962 13.421 18.5622 12.644 18.5782C11.6725 18.5982 11.014 18.4302 10.439 18.2862V19.5612Z" stroke="white" stroke-linecap="round" stroke-linejoin="round"/>
<path d="M18.351 14.1743C17.511 17.3113 14.3005 19.1728 11.1635 18.3323C10.168 18.0665 9.26012 17.5429 8.53151 16.8143C7.8029 16.0857 7.2793 15.1778 7.01349 14.1823L18.351 14.1743Z" fill="white" stroke="white" stroke-linecap="round" stroke-linejoin="round"/>
<path d="M7.0105 13.1719H18.353V14.2014H7.0105V13.1719Z" stroke="white" stroke-linecap="round" stroke-linejoin="round"/>
<path d="M14.337 13.169C18.237 13.323 17.2565 10.544 20.139 10.293C20.424 10.268 20.574 10.2625 20.974 10.288L20.989 10.283C20.4915 9.98701 19.5745 9.486 18.809 9.6985C18.4175 9.8075 17.8075 10.2285 17.399 11.031C16.3705 13.283 15.369 13.1645 14.554 13.1685L14.337 13.169Z" stroke="white" stroke-linecap="round" stroke-linejoin="round"/>
<path d="M16.737 15.0581C16.383 16.1381 15.4355 16.8881 14.3355 17.0921" stroke="white" stroke-linecap="round" stroke-linejoin="round"/>
</svg>
