<svg width="24" height="24" viewBox="0 0 24 24" fill="none" xmlns="http://www.w3.org/2000/svg">
<path d="M9.95761 15.6575C11.3415 15.6575 12.6485 15.1669 13.6887 14.2746L18.745 19.3439C18.7893 19.3887 18.8422 19.4244 18.9004 19.4487C18.9586 19.473 19.021 19.4856 19.0841 19.4857C19.1472 19.4858 19.2097 19.4734 19.268 19.4492C19.3263 19.425 19.3792 19.3896 19.4237 19.3448C19.5138 19.255 19.5645 19.133 19.5647 19.0057C19.5649 18.8784 19.5145 18.7563 19.4247 18.6661L14.364 13.593C16.2586 11.3303 16.1482 7.94196 14.0256 5.8146C12.9389 4.725 11.4941 4.125 9.95713 4.125C8.42017 4.125 6.97537 4.725 5.88865 5.8146C3.64657 8.06244 3.64657 11.7205 5.88865 13.9684C6.42129 14.5053 7.05524 14.931 7.75373 15.221C8.45222 15.511 9.20133 15.6593 9.95761 15.6575ZM6.56881 6.49236C7.47409 5.58468 8.67745 5.085 9.95761 5.085C11.2378 5.085 12.4411 5.58468 13.3464 6.49236C15.216 8.36676 15.216 11.4162 13.3464 13.2906C12.4411 14.1983 11.2378 14.698 9.95761 14.698C8.67745 14.698 7.47409 14.1983 6.56881 13.2906C4.69969 11.4162 4.69969 8.36676 6.56881 6.49236Z" fill="#848484"/>
</svg>
