<svg width="250" height="250" viewBox="0 0 250 250" fill="none" xmlns="http://www.w3.org/2000/svg">
<path d="M250 191.2H0V191.325H250V191.2Z" fill="#EBEBEB"/>
<path d="M224.95 199.245H208.39V199.37H224.95V199.245Z" fill="#EBEBEB"/>
<path d="M165.61 200.605H161.265V200.73H165.61V200.605Z" fill="#EBEBEB"/>
<path d="M207.89 194.605H198.295V194.73H207.89V194.605Z" fill="#EBEBEB"/>
<path d="M47.825 195.445H26.23V195.57H47.825V195.445Z" fill="#EBEBEB"/>
<path d="M55.445 195.445H52.28V195.57H55.445V195.445Z" fill="#EBEBEB"/>
<path d="M112.575 197.555H65.735V197.68H112.575V197.555Z" fill="#EBEBEB"/>
<path d="M118.5 168.9H21.955C21.1987 168.899 20.4738 168.597 19.9394 168.062C19.4051 167.527 19.105 166.801 19.105 166.045V30.33C19.1116 29.578 19.4146 28.859 19.9482 28.3291C20.4818 27.7992 21.203 27.5013 21.955 27.5H118.5C119.257 27.5 119.983 27.8008 120.519 28.3362C121.054 28.8716 121.355 29.5978 121.355 30.355V166.045C121.355 166.802 121.054 167.528 120.519 168.064C119.983 168.599 119.257 168.9 118.5 168.9ZM21.955 27.6C21.2318 27.6013 20.5387 27.8895 20.0278 28.4014C19.5169 28.9132 19.23 29.6068 19.23 30.33V166.045C19.23 166.768 19.5169 167.462 20.0278 167.974C20.5387 168.485 21.2318 168.774 21.955 168.775H118.5C119.224 168.774 119.917 168.486 120.429 167.974C120.941 167.462 121.229 166.769 121.23 166.045V30.33C121.229 29.6064 120.941 28.9127 120.429 28.4011C119.917 27.8894 119.224 27.6013 118.5 27.6H21.955Z" fill="#EBEBEB"/>
<path d="M226.655 168.9H130.105C129.348 168.899 128.623 168.597 128.088 168.062C127.553 167.527 127.251 166.802 127.25 166.045V30.33C127.258 29.5776 127.562 28.8585 128.096 28.3288C128.631 27.7991 129.353 27.5013 130.105 27.5H226.655C227.406 27.5026 228.126 27.8011 228.659 28.3309C229.191 28.8606 229.493 29.5789 229.5 30.33V166.045C229.5 166.8 229.201 167.525 228.667 168.06C228.134 168.595 227.41 168.897 226.655 168.9ZM130.105 27.6C129.381 27.6013 128.688 27.8894 128.176 28.4011C127.664 28.9127 127.376 29.6064 127.375 30.33V166.045C127.376 166.769 127.664 167.462 128.176 167.974C128.688 168.486 129.381 168.774 130.105 168.775H226.655C227.379 168.774 228.072 168.486 228.584 167.974C229.096 167.462 229.384 166.769 229.385 166.045V30.33C229.384 29.6064 229.096 28.9127 228.584 28.4011C228.072 27.8894 227.379 27.6013 226.655 27.6H130.105Z" fill="#EBEBEB"/>
<path d="M121.17 86.94H50.18V191.025H121.17V86.94Z" fill="#F0F0F0"/>
<path d="M118.66 90.215H52.685V109.44H118.66V90.215Z" fill="#E0E0E0"/>
<path d="M56.435 93.325H52.685V109.435H56.435V93.325Z" fill="#EBEBEB"/>
<path d="M74.56 93.325H70.81V109.435H74.56V93.325Z" fill="#EBEBEB"/>
<path d="M95.131 92.9204L91.4355 93.5574L94.172 109.433L97.8675 108.796L95.131 92.9204Z" fill="#EBEBEB"/>
<path d="M61.08 95.45H57.33V109.44H61.08V95.45Z" fill="#EBEBEB"/>
<path d="M69.695 95.45H65.945V109.44H69.695V95.45Z" fill="#EBEBEB"/>
<path d="M91.44 95.45H87.69V109.44H91.44V95.45Z" fill="#EBEBEB"/>
<path d="M79.4856 94.9646L75.8249 95.7781L78.8601 109.435L82.5207 108.621L79.4856 94.9646Z" fill="#EBEBEB"/>
<path d="M64.32 92.525H62.445V109.435H64.32V92.525Z" fill="#EBEBEB"/>
<path d="M86.61 92.525H84.735V109.435H86.61V92.525Z" fill="#EBEBEB"/>
<path d="M52.69 131.71H118.665V112.485H52.69V131.71Z" fill="#E0E0E0"/>
<path d="M114.91 131.705H118.66V115.595H114.91V131.705Z" fill="#EBEBEB"/>
<path d="M96.79 131.705H100.54V115.595H96.79V131.705Z" fill="#EBEBEB"/>
<path d="M73.4835 131.065L77.179 131.702L79.9156 115.826L76.2201 115.189L73.4835 131.065Z" fill="#EBEBEB"/>
<path d="M110.265 131.71H114.015V117.72H110.265V131.71Z" fill="#EBEBEB"/>
<path d="M101.655 131.71H105.405V117.72H101.655V131.71Z" fill="#EBEBEB"/>
<path d="M79.91 131.71H83.66V117.72H79.91V131.71Z" fill="#EBEBEB"/>
<path d="M88.8414 130.893L92.5021 131.706L95.5373 118.049L91.8766 117.236L88.8414 130.893Z" fill="#EBEBEB"/>
<path d="M107.025 131.705H108.9V114.795H107.025V131.705Z" fill="#EBEBEB"/>
<path d="M84.74 131.705H86.615V114.795H84.74V131.705Z" fill="#EBEBEB"/>
<path d="M56.435 115.595H52.685V131.705H56.435V115.595Z" fill="#EBEBEB"/>
<path d="M61.08 117.715H57.33V131.705H61.08V117.715Z" fill="#EBEBEB"/>
<path d="M69.695 117.715H65.945V131.705H69.695V117.715Z" fill="#EBEBEB"/>
<path d="M64.32 114.795H62.445V131.705H64.32V114.795Z" fill="#EBEBEB"/>
<path d="M118.66 134.75H52.685V153.975H118.66V134.75Z" fill="#E0E0E0"/>
<path d="M94.305 137.86H90.555V153.97H94.305V137.86Z" fill="#EBEBEB"/>
<path d="M114.879 137.454L111.183 138.091L113.92 153.967L117.615 153.33L114.879 137.454Z" fill="#EBEBEB"/>
<path d="M80.825 139.985H77.075V153.975H80.825V139.985Z" fill="#EBEBEB"/>
<path d="M89.44 139.985H85.69V153.975H89.44V139.985Z" fill="#EBEBEB"/>
<path d="M111.185 139.985H107.435V153.975H111.185V139.985Z" fill="#EBEBEB"/>
<path d="M99.2322 139.5L95.5715 140.314L98.6067 153.971L102.267 153.157L99.2322 139.5Z" fill="#EBEBEB"/>
<path d="M84.065 137.06H82.19V153.97H84.065V137.06Z" fill="#EBEBEB"/>
<path d="M106.355 137.06H104.48V153.97H106.355V137.06Z" fill="#EBEBEB"/>
<path d="M71.7605 137.458L68.065 138.095L70.8016 153.971L74.4971 153.334L71.7605 137.458Z" fill="#EBEBEB"/>
<path d="M68.065 139.985H64.315V153.975H68.065V139.985Z" fill="#EBEBEB"/>
<path d="M56.1142 139.5L52.4535 140.314L55.4887 153.97L59.1494 153.157L56.1142 139.5Z" fill="#EBEBEB"/>
<path d="M63.24 137.06H61.365V153.97H63.24V137.06Z" fill="#EBEBEB"/>
<path d="M37.93 191.295H50.18L50.18 86.94H37.93L37.93 191.295Z" fill="#E0E0E0"/>
<path d="M162.72 188.57H152.315L157.785 144C157.916 143.069 158.374 142.214 159.076 141.589C159.778 140.964 160.68 140.608 161.62 140.585H207L200.345 188.55L162.72 188.57Z" fill="#F5F5F5"/>
<path d="M195.72 188.57H206.125L211.6 144C211.667 143.571 211.639 143.134 211.518 142.717C211.396 142.301 211.185 141.916 210.899 141.59C210.613 141.265 210.259 141.006 209.861 140.832C209.464 140.658 209.033 140.574 208.6 140.585H205.025C204.087 140.614 203.188 140.971 202.487 141.596C201.786 142.22 201.327 143.071 201.19 144L195.72 188.57Z" fill="#F0F0F0"/>
<path d="M191.89 188.5L193.775 166.95C193.815 166.483 194.014 166.043 194.339 165.704C194.663 165.366 195.095 165.149 195.56 165.09L196.335 164.99C196.961 164.912 197.54 164.621 197.976 164.165C198.412 163.71 198.679 163.118 198.73 162.49L199.075 158.56C199.109 158.179 199.063 157.795 198.941 157.433C198.818 157.07 198.622 156.737 198.363 156.455C198.105 156.173 197.791 155.948 197.441 155.794C197.091 155.639 196.713 155.56 196.33 155.56H213.72C214.103 155.56 214.481 155.639 214.831 155.794C215.181 155.948 215.495 156.173 215.753 156.455C216.012 156.737 216.208 157.07 216.331 157.433C216.453 157.795 216.499 158.179 216.465 158.56L216.12 162.49C216.069 163.118 215.802 163.71 215.366 164.165C214.93 164.621 214.351 164.912 213.725 164.99L212.95 165.09C212.485 165.15 212.054 165.367 211.73 165.705C211.405 166.044 211.206 166.483 211.165 166.95L209.28 188.5C209.213 189.257 208.864 189.962 208.304 190.476C207.743 190.989 207.01 191.274 206.25 191.275H188.86C189.62 191.274 190.353 190.989 190.914 190.476C191.474 189.962 191.823 189.257 191.89 188.5Z" fill="#E6E6E6"/>
<path d="M144.03 161.575C143.892 159.939 143.145 158.415 141.937 157.303C140.728 156.192 139.147 155.575 137.505 155.575H152.645C154.282 155.582 155.858 156.201 157.061 157.312C158.264 158.423 159.008 159.943 159.145 161.575L160.645 178.655H145.525L144.03 161.575Z" fill="#E6E6E6"/>
<path d="M130.78 155.595H137.5C139.142 155.595 140.723 156.212 141.932 157.324C143.14 158.435 143.887 159.959 144.025 161.595L145.525 178.675H181.585L183.085 161.595C183.221 159.963 183.965 158.441 185.168 157.331C186.371 156.22 187.947 155.601 189.585 155.595H196.31C196.693 155.595 197.071 155.674 197.421 155.829C197.771 155.983 198.085 156.208 198.343 156.49C198.602 156.772 198.798 157.105 198.921 157.468C199.043 157.83 199.089 158.214 199.055 158.595L198.71 162.525C198.659 163.153 198.392 163.745 197.956 164.2C197.52 164.655 196.941 164.947 196.315 165.025L195.54 165.125C195.075 165.184 194.643 165.401 194.319 165.739C193.994 166.078 193.795 166.517 193.755 166.985L191.89 188.5C191.823 189.257 191.474 189.962 190.914 190.476C190.353 190.989 189.62 191.274 188.86 191.275H138.25C137.49 191.274 136.757 190.989 136.196 190.476C135.636 189.962 135.287 189.257 135.22 188.5L133.335 166.95C133.293 166.483 133.094 166.044 132.769 165.706C132.445 165.368 132.015 165.151 131.55 165.09L130.775 164.99C130.149 164.911 129.569 164.62 129.133 164.165C128.696 163.71 128.428 163.118 128.375 162.49L128.035 158.56C128.006 158.182 128.056 157.802 128.18 157.443C128.305 157.085 128.503 156.757 128.76 156.478C129.018 156.2 129.33 155.978 129.678 155.826C130.025 155.674 130.401 155.595 130.78 155.595Z" fill="#F0F0F0"/>
<path d="M51.08 81.74C51.08 81.74 50.525 78.085 53.19 75.74C55.855 73.395 55.62 72.005 54.855 71.825C54.09 71.645 53.395 73.985 52.225 74.63C52.225 74.63 52.185 71.29 53.375 70.065C54.565 68.84 55.19 65.665 54.055 65.61C52.92 65.555 52.81 67.49 52.555 68.865C52.3 70.24 51.055 72.17 51.055 72.17C51.055 72.17 50.81 69.17 50.055 67.955C49.3 66.74 51.335 63.915 50.555 62.69C49.775 61.465 48.36 63.8 48.475 66.435C48.59 69.07 50.35 71.88 49.94 74.63C49.94 74.63 49.165 72.695 48.47 72.52C47.775 72.345 47.07 71.07 46.605 70.595C46.14 70.12 45.55 71.76 46.605 73.28C47.66 74.8 50.35 78.875 49.94 82.165L51.08 81.74Z" fill="#E6E6E6"/>
<path d="M52.67 80.075L53.545 85.55C53.6079 85.9475 53.5838 86.3539 53.4745 86.7413C53.3653 87.1286 53.1733 87.4876 52.912 87.7937C52.6506 88.0997 52.326 88.3455 51.9606 88.514C51.5951 88.6826 51.1975 88.7699 50.795 88.77H49.865C49.4626 88.7699 49.0649 88.6826 48.6995 88.514C48.334 88.3455 48.0094 88.0997 47.748 87.7937C47.4867 87.4876 47.2947 87.1286 47.1855 86.7413C47.0762 86.3539 47.0521 85.9475 47.115 85.55L48 80.075H52.67Z" fill="#E6E6E6"/>
<path d="M105.025 87.7H107.74V76.025H105.025V87.7Z" fill="#EBEBEB"/>
<path d="M91.895 87.7H94.61V76.025H91.895V87.7Z" fill="#EBEBEB"/>
<path d="M75.0071 87.236L77.6827 87.6971L79.6659 76.1918L76.9903 75.7306L75.0071 87.236Z" fill="#EBEBEB"/>
<path d="M101.66 87.695H104.375V77.56H101.66V87.695Z" fill="#EBEBEB"/>
<path d="M95.42 87.695H98.135V77.56H95.42V87.695Z" fill="#EBEBEB"/>
<path d="M79.66 87.695H82.375V77.56H79.66V87.695Z" fill="#EBEBEB"/>
<path d="M86.1352 87.1071L88.7855 87.6961L90.9843 77.8025L88.334 77.2135L86.1352 87.1071Z" fill="#EBEBEB"/>
<path d="M99.31 87.7H100.67V75.445H99.31V87.7Z" fill="#EBEBEB"/>
<path d="M83.155 87.7H84.515V75.445H83.155V87.7Z" fill="#EBEBEB"/>
<path d="M73.475 78.43H60.24V87.565H73.475V78.43Z" fill="#EBEBEB"/>
<path d="M118.865 82.17H107.78V88.99H118.865V82.17Z" fill="#EBEBEB"/>
<path d="M116.275 76.175H110.73V82.995H116.275V76.175Z" fill="#EBEBEB"/>
<path d="M208.905 67.15H195.72V122.09H208.905V67.15Z" fill="#E0E0E0"/>
<path d="M158.18 122.24H207.49V67.155H158.18V122.24Z" fill="#E0E0E0"/>
<path d="M156.59 122.24H207.75V67.155H156.59V122.24Z" fill="#F0F0F0"/>
<path d="M158.78 119.705H205.65V68.905H158.78V119.705Z" fill="white"/>
<path d="M158.775 119.705H159.645V68.905H158.775V119.705Z" fill="#E0E0E0"/>
<path d="M159.505 105.44V106.81H205.775V105.44H159.505Z" fill="#E0E0E0"/>
<path d="M158.775 105.435H206.38V103.135H158.775V105.435Z" fill="#F0F0F0"/>
<path d="M125 213.78C178.541 213.78 221.945 211.246 221.945 208.12C221.945 204.994 178.541 202.46 125 202.46C71.4588 202.46 28.055 204.994 28.055 208.12C28.055 211.246 71.4588 213.78 125 213.78Z" fill="#F5F5F5"/>
<path d="M160.975 76.41H71.52C69.4986 76.41 67.86 78.0487 67.86 80.07V185.4C67.86 187.421 69.4986 189.06 71.52 189.06H160.975C162.996 189.06 164.635 187.421 164.635 185.4V80.07C164.635 78.0487 162.996 76.41 160.975 76.41Z" fill="#28A228"/>
<path opacity="0.6" d="M160.975 76.41H71.52C69.4986 76.41 67.86 78.0487 67.86 80.07V185.4C67.86 187.421 69.4986 189.06 71.52 189.06H160.975C162.996 189.06 164.635 187.421 164.635 185.4V80.07C164.635 78.0487 162.996 76.41 160.975 76.41Z" fill="white"/>
<path d="M148.96 128.075H83.54V139.275H148.96V128.075Z" fill="white"/>
<g opacity="0.4">
<path d="M89.39 134.765V135.06H87.12V131.85H89.32V132.14H87.46V133.285H89.12V133.57H87.46V134.765H89.39Z" fill="#263238"/>
<path d="M89.845 133.675H91.05V133.955H89.845V133.675Z" fill="#263238"/>
<path d="M95.755 133.66V135.06H95.43V133.69C95.43 133.19 95.175 132.92 94.74 132.92C94.6272 132.915 94.5147 132.934 94.4102 132.977C94.3057 133.02 94.2119 133.085 94.1352 133.168C94.0585 133.251 94.0009 133.349 93.9663 133.457C93.9317 133.564 93.921 133.678 93.935 133.79V135.06H93.605V133.69C93.605 133.19 93.35 132.92 92.91 132.92C92.7972 132.915 92.6847 132.934 92.5802 132.977C92.4757 133.02 92.3819 133.085 92.3052 133.168C92.2285 133.251 92.1709 133.349 92.1363 133.457C92.1017 133.564 92.091 133.678 92.105 133.79V135.06H91.775V132.645H92.09V133.085C92.1844 132.938 92.3158 132.818 92.4711 132.737C92.6264 132.656 92.8001 132.618 92.975 132.625C93.1517 132.61 93.3286 132.65 93.4817 132.74C93.6348 132.829 93.7564 132.964 93.83 133.125C93.9299 132.964 94.0712 132.833 94.2392 132.745C94.4072 132.657 94.5957 132.615 94.785 132.625C94.9207 132.615 95.057 132.635 95.1839 132.684C95.3107 132.734 95.4249 132.811 95.518 132.91C95.6111 133.01 95.6807 133.128 95.7217 133.258C95.7627 133.388 95.7741 133.525 95.755 133.66Z" fill="#263238"/>
<path d="M98.465 133.56V135.06H98.15V134.68C98.0605 134.815 97.9362 134.924 97.7901 134.994C97.644 135.065 97.4816 135.094 97.32 135.08C96.775 135.08 96.44 134.795 96.44 134.38C96.44 133.965 96.68 133.695 97.37 133.695H98.135V133.55C98.135 133.135 97.905 132.91 97.455 132.91C97.1614 132.907 96.8761 133.008 96.65 133.195L96.505 132.955C96.7875 132.728 97.1427 132.611 97.505 132.625C97.6326 132.61 97.7621 132.623 97.8839 132.664C98.0057 132.705 98.1168 132.773 98.2089 132.863C98.301 132.952 98.3718 133.062 98.4161 133.182C98.4605 133.303 98.4771 133.432 98.465 133.56ZM98.135 134.335V133.94H97.38C96.915 133.94 96.76 134.12 96.76 134.37C96.76 134.62 96.985 134.825 97.37 134.825C97.5331 134.836 97.6954 134.794 97.8331 134.706C97.9708 134.618 98.0766 134.488 98.135 134.335Z" fill="#263238"/>
<path d="M99.275 131.885C99.2757 131.854 99.2824 131.824 99.2948 131.796C99.3072 131.767 99.3251 131.742 99.3474 131.72C99.3696 131.699 99.3959 131.682 99.4247 131.671C99.4534 131.66 99.4841 131.654 99.515 131.655C99.5452 131.654 99.5752 131.66 99.6034 131.671C99.6316 131.682 99.6573 131.698 99.6791 131.719C99.7009 131.74 99.7184 131.765 99.7306 131.792C99.7428 131.82 99.7494 131.85 99.75 131.88C99.7507 131.911 99.7451 131.942 99.7336 131.972C99.7221 132.001 99.7048 132.027 99.683 132.049C99.6611 132.072 99.6349 132.09 99.6061 132.102C99.5773 132.114 99.5463 132.12 99.515 132.12C99.4837 132.121 99.4526 132.115 99.4235 132.104C99.3944 132.092 99.3679 132.075 99.3456 132.053C99.3232 132.031 99.3055 132.005 99.2934 131.976C99.2812 131.947 99.275 131.916 99.275 131.885ZM99.35 132.645H99.675V135.06H99.35V132.645Z" fill="#263238"/>
<path d="M100.58 131.655H100.905V135.06H100.58V131.655Z" fill="#263238"/>
</g>
<path d="M148.96 143.375H83.54V154.575H148.96V143.375Z" fill="white"/>
<g opacity="0.4">
<path d="M89.63 148.265C89.63 148.95 89.13 149.365 88.32 149.365H87.46V150.365H87.12V147.155H88.32C89.135 147.165 89.63 147.58 89.63 148.265ZM89.29 148.265C89.29 147.765 88.955 147.46 88.29 147.46H87.44V149.065H88.29C88.955 149.065 89.29 148.77 89.29 148.265Z" fill="#263238"/>
<path d="M92.095 148.88V150.38H91.78V150C91.6905 150.135 91.5662 150.244 91.4201 150.314C91.274 150.385 91.1115 150.414 90.95 150.4C90.405 150.4 90.07 150.115 90.07 149.695C90.07 149.275 90.31 149 91 149H91.765V148.85C91.765 148.44 91.53 148.215 91.08 148.215C90.7878 148.211 90.5039 148.312 90.28 148.5L90.13 148.255C90.4149 148.033 90.7689 147.918 91.13 147.93C91.2594 147.913 91.3909 147.926 91.5146 147.968C91.6383 148.009 91.7509 148.078 91.8438 148.17C91.9368 148.262 92.0077 148.373 92.0513 148.496C92.0948 148.619 92.1097 148.75 92.095 148.88ZM91.77 149.65V149.255H91C90.535 149.255 90.385 149.44 90.385 149.69C90.385 149.94 90.605 150.14 90.995 150.14C91.1596 150.152 91.3238 150.111 91.4634 150.023C91.6029 149.935 91.7104 149.804 91.77 149.65Z" fill="#263238"/>
<path d="M92.645 150.1L92.79 149.845C93.0422 150.021 93.3424 150.115 93.65 150.115C94.105 150.115 94.295 149.96 94.295 149.72C94.295 149.09 92.73 149.585 92.73 148.635C92.73 148.24 93.07 147.945 93.685 147.945C93.985 147.942 94.2802 148.02 94.54 148.17L94.395 148.43C94.1847 148.291 93.937 148.22 93.685 148.225C93.25 148.225 93.055 148.395 93.055 148.625C93.055 149.275 94.62 148.785 94.62 149.71C94.62 150.13 94.255 150.4 93.62 150.4C93.271 150.409 92.9286 150.304 92.645 150.1Z" fill="#263238"/>
<path d="M94.885 150.1L95.035 149.845C95.2843 150.023 95.5836 150.118 95.89 150.115C96.35 150.115 96.535 149.96 96.535 149.72C96.535 149.09 94.975 149.585 94.975 148.635C94.975 148.24 95.315 147.945 95.925 147.945C96.2251 147.941 96.5207 148.019 96.78 148.17L96.64 148.43C96.4276 148.292 96.1785 148.22 95.925 148.225C95.49 148.225 95.3 148.395 95.3 148.625C95.3 149.275 96.865 148.785 96.865 149.71C96.865 150.13 96.495 150.4 95.865 150.4C95.5145 150.408 95.1708 150.303 94.885 150.1Z" fill="#263238"/>
<path d="M100.955 147.965L100.045 150.375H99.74L99 148.4L98.24 150.375H97.935L97 147.965H97.31L98.07 150.015L98.845 147.965H99.125L99.895 150.015L100.66 147.965H100.955Z" fill="#263238"/>
<path d="M101.135 149.17C101.135 148.927 101.207 148.689 101.342 148.487C101.477 148.284 101.67 148.127 101.894 148.034C102.119 147.94 102.366 147.916 102.605 147.964C102.844 148.011 103.063 148.128 103.235 148.3C103.407 148.472 103.524 148.691 103.571 148.93C103.619 149.169 103.594 149.416 103.501 149.641C103.408 149.865 103.251 150.057 103.048 150.193C102.846 150.328 102.608 150.4 102.365 150.4C102.202 150.406 102.04 150.378 101.888 150.318C101.736 150.258 101.598 150.167 101.483 150.052C101.368 149.937 101.277 149.799 101.217 149.647C101.157 149.495 101.129 149.333 101.135 149.17ZM103.26 149.17C103.252 148.994 103.193 148.824 103.089 148.681C102.985 148.538 102.842 148.429 102.676 148.367C102.511 148.305 102.331 148.293 102.159 148.333C101.987 148.372 101.831 148.462 101.709 148.589C101.587 148.717 101.506 148.878 101.475 149.052C101.444 149.225 101.465 149.404 101.534 149.566C101.604 149.728 101.72 149.866 101.868 149.963C102.016 150.06 102.189 150.111 102.365 150.11C102.487 150.112 102.608 150.089 102.721 150.042C102.834 149.995 102.935 149.925 103.019 149.837C103.104 149.749 103.168 149.644 103.21 149.529C103.251 149.414 103.268 149.292 103.26 149.17Z" fill="#263238"/>
<path d="M105.47 147.945V148.26H105.39C105.276 148.254 105.161 148.274 105.056 148.318C104.95 148.362 104.855 148.428 104.777 148.512C104.7 148.597 104.642 148.697 104.608 148.807C104.574 148.916 104.564 149.032 104.58 149.145V150.375H104.255V147.965H104.565V148.435C104.649 148.272 104.781 148.138 104.942 148.051C105.103 147.963 105.287 147.926 105.47 147.945Z" fill="#263238"/>
<path d="M108.235 147V150.4H107.925V149.925C107.828 150.083 107.691 150.213 107.527 150.3C107.364 150.388 107.18 150.431 106.995 150.425C106.683 150.405 106.39 150.267 106.176 150.039C105.962 149.811 105.843 149.51 105.843 149.197C105.843 148.885 105.962 148.584 106.176 148.356C106.39 148.128 106.683 147.99 106.995 147.97C107.178 147.966 107.359 148.01 107.519 148.098C107.68 148.185 107.815 148.314 107.91 148.47V147H108.235ZM107.915 149.195C107.907 149.019 107.848 148.849 107.744 148.706C107.64 148.563 107.497 148.454 107.331 148.392C107.166 148.33 106.986 148.318 106.814 148.358C106.642 148.397 106.486 148.487 106.364 148.614C106.242 148.742 106.161 148.903 106.13 149.077C106.099 149.25 106.12 149.429 106.189 149.591C106.259 149.754 106.375 149.891 106.523 149.988C106.671 150.085 106.844 150.136 107.02 150.135C107.144 150.138 107.268 150.114 107.382 150.066C107.497 150.017 107.6 149.945 107.684 149.854C107.769 149.762 107.833 149.654 107.873 149.537C107.913 149.419 107.927 149.294 107.915 149.17V149.195Z" fill="#263238"/>
</g>
<path opacity="0.2" d="M148.96 166H83.54V177.2H148.96V166Z" fill="black"/>
<g opacity="0.5">
<path d="M99.45 160.855H98.38L98.15 161.355H97.94L98.815 159.44H99.015L99.89 161.355H99.68L99.45 160.855ZM99.375 160.69L98.915 159.66L98.455 160.69H99.375Z" fill="black"/>
<path d="M100.17 159.335H100.365V161.365H100.17V159.335Z" fill="black"/>
<path d="M101.635 159.915V160.105H101.585C101.515 160.099 101.445 160.109 101.379 160.134C101.314 160.159 101.255 160.198 101.207 160.249C101.159 160.3 101.123 160.361 101.102 160.428C101.081 160.495 101.075 160.566 101.085 160.635V161.37H100.89V159.93H101.08V160.21C101.13 160.109 101.211 160.026 101.31 159.973C101.41 159.921 101.523 159.9 101.635 159.915Z" fill="black"/>
<path d="M103.225 160.705H102C102.004 160.775 102.022 160.844 102.052 160.907C102.083 160.97 102.125 161.027 102.178 161.073C102.231 161.12 102.292 161.155 102.358 161.178C102.425 161.201 102.495 161.21 102.565 161.205C102.648 161.208 102.731 161.193 102.808 161.161C102.884 161.129 102.953 161.081 103.01 161.02L103.115 161.145C103.012 161.254 102.879 161.329 102.732 161.362C102.586 161.395 102.434 161.384 102.294 161.331C102.154 161.278 102.033 161.184 101.946 161.062C101.859 160.94 101.81 160.795 101.805 160.645C101.8 160.55 101.815 160.455 101.848 160.366C101.882 160.277 101.933 160.196 101.999 160.127C102.065 160.059 102.145 160.005 102.233 159.968C102.32 159.932 102.415 159.914 102.51 159.915C102.605 159.913 102.7 159.93 102.788 159.967C102.876 160.003 102.955 160.057 103.021 160.126C103.087 160.194 103.138 160.276 103.17 160.365C103.203 160.455 103.216 160.55 103.21 160.645C103.21 160.645 103.225 160.685 103.225 160.705ZM102.02 160.56H103.02C103.02 160.427 102.967 160.3 102.874 160.206C102.78 160.113 102.653 160.06 102.52 160.06C102.387 160.06 102.26 160.113 102.166 160.206C102.073 160.3 102.02 160.427 102.02 160.56Z" fill="black"/>
<path d="M104.67 160.5V161.39H104.5V161.165C104.447 161.247 104.372 161.313 104.284 161.356C104.196 161.398 104.097 161.415 104 161.405C103.675 161.405 103.5 161.235 103.5 160.985C103.5 160.735 103.64 160.575 104.055 160.575H104.5V160.49C104.5 160.245 104.36 160.11 104.09 160.11C103.908 160.103 103.73 160.164 103.59 160.28L103.505 160.135C103.671 160.003 103.878 159.934 104.09 159.94C104.167 159.927 104.247 159.932 104.322 159.955C104.397 159.978 104.465 160.019 104.522 160.073C104.578 160.128 104.621 160.195 104.647 160.269C104.673 160.343 104.681 160.422 104.67 160.5ZM104.48 160.96V160.72H104.025C103.745 160.72 103.655 160.83 103.655 160.98C103.655 161.13 103.79 161.25 104.02 161.25C104.124 161.258 104.227 161.231 104.314 161.174C104.401 161.117 104.466 161.033 104.5 160.935L104.48 160.96Z" fill="black"/>
<path d="M106.5 159.335V161.365H106.315V161.08C106.258 161.176 106.177 161.254 106.079 161.307C105.981 161.359 105.871 161.385 105.76 161.38C105.576 161.365 105.405 161.281 105.28 161.145C105.155 161.01 105.086 160.832 105.086 160.648C105.086 160.463 105.155 160.285 105.28 160.15C105.405 160.014 105.576 159.93 105.76 159.915C105.868 159.912 105.976 159.937 106.072 159.987C106.168 160.036 106.25 160.11 106.31 160.2V159.335H106.5ZM106.31 160.645C106.305 160.54 106.27 160.44 106.208 160.355C106.146 160.27 106.061 160.206 105.963 160.169C105.865 160.132 105.758 160.125 105.656 160.149C105.554 160.172 105.461 160.225 105.389 160.301C105.316 160.376 105.268 160.472 105.249 160.575C105.23 160.678 105.242 160.784 105.284 160.88C105.325 160.976 105.393 161.059 105.481 161.116C105.568 161.174 105.67 161.205 105.775 161.205C105.849 161.21 105.924 161.198 105.994 161.171C106.063 161.145 106.127 161.104 106.179 161.051C106.232 160.998 106.272 160.934 106.298 160.864C106.324 160.794 106.335 160.72 106.33 160.645H106.31Z" fill="black"/>
<path d="M108.275 159.925L107.555 161.54C107.435 161.82 107.28 161.91 107.055 161.91C106.926 161.914 106.801 161.867 106.705 161.78L106.795 161.635C106.865 161.705 106.961 161.745 107.06 161.745C107.19 161.745 107.275 161.685 107.36 161.5L107.42 161.365L106.775 159.925H107L107.545 161.15L108.085 159.925H108.275Z" fill="black"/>
<path d="M110.355 160.5V161.39H110.17V161.165C110.117 161.247 110.042 161.313 109.954 161.356C109.866 161.398 109.767 161.415 109.67 161.405C109.345 161.405 109.17 161.235 109.17 160.985C109.17 160.735 109.31 160.575 109.725 160.575H110.18V160.49C110.18 160.245 110.045 160.11 109.775 160.11C109.593 160.103 109.415 160.164 109.275 160.28L109.185 160.135C109.353 160.003 109.562 159.934 109.775 159.94C109.852 159.927 109.932 159.932 110.007 159.955C110.082 159.978 110.15 160.019 110.207 160.073C110.263 160.128 110.306 160.195 110.332 160.269C110.358 160.343 110.366 160.422 110.355 160.5ZM110.16 160.96V160.72H109.71C109.43 160.72 109.34 160.83 109.34 160.98C109.34 161.13 109.475 161.25 109.705 161.25C109.805 161.254 109.903 161.225 109.985 161.169C110.067 161.112 110.129 161.03 110.16 160.935V160.96Z" fill="black"/>
<path d="M114 160.53V161.365H113.81V160.55C113.81 160.245 113.655 160.09 113.395 160.09C113.328 160.085 113.261 160.094 113.198 160.117C113.135 160.141 113.077 160.177 113.03 160.225C112.982 160.272 112.946 160.33 112.922 160.393C112.899 160.456 112.89 160.523 112.895 160.59V161.345H112.705V160.55C112.705 160.245 112.55 160.09 112.285 160.09C112.218 160.085 112.151 160.094 112.088 160.117C112.025 160.141 111.967 160.177 111.92 160.225C111.872 160.272 111.836 160.33 111.812 160.393C111.789 160.456 111.78 160.523 111.785 160.59V161.345H111.59V159.905H111.775V160.17C111.83 160.08 111.909 160.008 112.002 159.959C112.095 159.911 112.2 159.888 112.305 159.895C112.41 159.887 112.515 159.912 112.604 159.967C112.694 160.021 112.764 160.103 112.805 160.2C112.863 160.102 112.947 160.022 113.048 159.968C113.148 159.914 113.261 159.889 113.375 159.895C113.461 159.88 113.55 159.885 113.634 159.912C113.717 159.939 113.793 159.985 113.855 160.048C113.916 160.11 113.962 160.187 113.987 160.271C114.012 160.355 114.017 160.444 114 160.53Z" fill="black"/>
<path d="M115.77 160.705H114.565C114.575 160.847 114.641 160.978 114.747 161.072C114.854 161.165 114.993 161.213 115.135 161.205C115.217 161.208 115.299 161.193 115.375 161.161C115.452 161.129 115.52 161.081 115.575 161.02L115.685 161.145C115.615 161.222 115.529 161.282 115.433 161.323C115.337 161.364 115.234 161.383 115.13 161.38C115.031 161.386 114.932 161.372 114.838 161.338C114.745 161.303 114.66 161.25 114.589 161.18C114.518 161.111 114.462 161.028 114.425 160.935C114.388 160.843 114.371 160.744 114.375 160.645C114.375 160.459 114.449 160.281 114.58 160.15C114.711 160.019 114.889 159.945 115.075 159.945C115.261 159.945 115.439 160.019 115.57 160.15C115.701 160.281 115.775 160.459 115.775 160.645C115.775 160.645 115.77 160.685 115.77 160.705ZM114.565 160.56H115.59C115.59 160.424 115.536 160.294 115.44 160.198C115.344 160.102 115.213 160.048 115.077 160.048C114.942 160.048 114.811 160.102 114.715 160.198C114.619 160.294 114.565 160.424 114.565 160.56Z" fill="black"/>
<path d="M118.55 160.53V161.365H118.355V160.55C118.355 160.245 118.205 160.09 117.945 160.09C117.878 160.084 117.81 160.093 117.747 160.116C117.683 160.138 117.626 160.175 117.578 160.223C117.53 160.271 117.493 160.328 117.471 160.392C117.448 160.455 117.439 160.523 117.445 160.59V161.345H117.25V160.55C117.25 160.245 117.1 160.09 116.835 160.09C116.768 160.084 116.7 160.093 116.637 160.116C116.573 160.138 116.516 160.175 116.468 160.223C116.42 160.271 116.383 160.328 116.361 160.392C116.338 160.455 116.329 160.523 116.335 160.59V161.345H116.14V159.905H116.325V160.17C116.38 160.08 116.458 160.007 116.552 159.958C116.645 159.91 116.75 159.888 116.855 159.895C116.96 159.887 117.065 159.912 117.154 159.967C117.244 160.021 117.314 160.103 117.355 160.2C117.413 160.102 117.497 160.022 117.598 159.968C117.698 159.914 117.811 159.889 117.925 159.895C118.011 159.88 118.1 159.885 118.184 159.912C118.267 159.939 118.343 159.985 118.405 160.048C118.466 160.11 118.512 160.187 118.537 160.271C118.562 160.355 118.567 160.444 118.55 160.53Z" fill="black"/>
<path d="M120.54 160.645C120.545 160.741 120.53 160.837 120.496 160.927C120.462 161.017 120.41 161.099 120.343 161.168C120.276 161.237 120.195 161.292 120.106 161.328C120.017 161.365 119.921 161.382 119.825 161.38C119.714 161.385 119.604 161.359 119.506 161.307C119.408 161.254 119.327 161.176 119.27 161.08V161.365H119.08V159.335H119.275V160.2C119.335 160.11 119.417 160.036 119.513 159.986C119.609 159.936 119.717 159.912 119.825 159.915C119.921 159.912 120.016 159.929 120.106 159.965C120.195 160.001 120.275 160.055 120.342 160.123C120.41 160.192 120.462 160.274 120.496 160.364C120.53 160.453 120.545 160.549 120.54 160.645ZM120.345 160.645C120.34 160.54 120.305 160.44 120.243 160.355C120.181 160.27 120.096 160.206 119.998 160.169C119.9 160.132 119.793 160.125 119.691 160.149C119.589 160.172 119.496 160.225 119.424 160.301C119.351 160.376 119.303 160.472 119.284 160.575C119.265 160.678 119.277 160.784 119.319 160.88C119.36 160.976 119.428 161.059 119.516 161.116C119.603 161.174 119.705 161.205 119.81 161.205C119.883 161.207 119.955 161.193 120.022 161.165C120.09 161.137 120.15 161.096 120.201 161.043C120.251 160.99 120.29 160.928 120.315 160.859C120.34 160.791 120.35 160.718 120.345 160.645Z" fill="black"/>
<path d="M122.195 160.705H121C121.004 160.775 121.022 160.844 121.052 160.907C121.083 160.97 121.125 161.027 121.178 161.073C121.231 161.12 121.292 161.155 121.358 161.178C121.425 161.201 121.495 161.21 121.565 161.205C121.648 161.205 121.73 161.187 121.805 161.151C121.881 161.116 121.947 161.064 122 161L122.11 161.125C122.007 161.234 121.874 161.309 121.727 161.342C121.581 161.375 121.429 161.364 121.289 161.311C121.149 161.258 121.028 161.164 120.941 161.042C120.854 160.92 120.805 160.775 120.8 160.625C120.795 160.53 120.81 160.435 120.843 160.346C120.877 160.257 120.928 160.176 120.994 160.107C121.06 160.039 121.14 159.985 121.228 159.948C121.315 159.912 121.41 159.894 121.505 159.895C121.6 159.893 121.694 159.91 121.782 159.947C121.87 159.983 121.949 160.037 122.014 160.106C122.08 160.175 122.13 160.256 122.162 160.346C122.194 160.435 122.207 160.53 122.2 160.625L122.195 160.705ZM120.99 160.56H121.99C121.99 160.427 121.937 160.3 121.844 160.207C121.75 160.113 121.623 160.06 121.49 160.06C121.357 160.06 121.23 160.113 121.136 160.207C121.043 160.3 120.99 160.427 120.99 160.56Z" fill="black"/>
<path d="M123.32 159.915V160.105H123.275C123.205 160.099 123.135 160.109 123.069 160.134C123.004 160.159 122.945 160.198 122.897 160.249C122.849 160.3 122.813 160.361 122.792 160.428C122.771 160.495 122.765 160.566 122.775 160.635V161.37H122.58V159.93H122.765V160.21C122.816 160.11 122.896 160.027 122.996 159.975C123.095 159.922 123.208 159.901 123.32 159.915Z" fill="black"/>
<path d="M124.58 159.94C124.58 159.74 124.42 159.605 124.14 159.605C124.042 159.6 123.943 159.616 123.852 159.655C123.761 159.693 123.68 159.751 123.615 159.825L123.47 159.715C123.555 159.619 123.661 159.543 123.78 159.494C123.898 159.445 124.027 159.423 124.155 159.43C124.54 159.43 124.785 159.615 124.785 159.93C124.785 160.395 124.285 160.43 124.285 160.81H124.08C124.08 160.34 124.58 160.295 124.58 159.94ZM124.04 161.235C124.046 161.202 124.064 161.172 124.09 161.15C124.116 161.129 124.149 161.117 124.183 161.117C124.216 161.117 124.249 161.129 124.275 161.15C124.301 161.172 124.319 161.202 124.325 161.235C124.329 161.256 124.328 161.278 124.323 161.298C124.318 161.319 124.308 161.338 124.294 161.354C124.28 161.371 124.263 161.384 124.244 161.393C124.225 161.402 124.204 161.407 124.183 161.407C124.161 161.407 124.14 161.402 124.121 161.393C124.102 161.384 124.084 161.371 124.071 161.354C124.057 161.338 124.047 161.319 124.042 161.298C124.037 161.278 124.036 161.256 124.04 161.235Z" fill="black"/>
<path d="M125.935 159.45H126.38V161H127.34V161.36H125.935V159.45Z" fill="black"/>
<path d="M127.44 160.63C127.43 160.468 127.469 160.307 127.552 160.167C127.634 160.028 127.757 159.916 127.904 159.847C128.051 159.778 128.215 159.755 128.375 159.78C128.535 159.805 128.684 159.878 128.803 159.989C128.921 160.1 129.003 160.244 129.039 160.403C129.074 160.561 129.061 160.726 129.002 160.877C128.942 161.028 128.839 161.158 128.705 161.249C128.571 161.341 128.412 161.39 128.25 161.39C128.146 161.397 128.042 161.382 127.944 161.347C127.846 161.312 127.756 161.257 127.68 161.186C127.604 161.115 127.544 161.029 127.502 160.933C127.461 160.837 127.44 160.734 127.44 160.63ZM128.625 160.63C128.619 160.557 128.592 160.488 128.548 160.43C128.503 160.373 128.443 160.33 128.374 160.306C128.305 160.282 128.231 160.279 128.16 160.296C128.09 160.314 128.026 160.352 127.976 160.405C127.927 160.459 127.894 160.525 127.882 160.597C127.869 160.669 127.878 160.743 127.907 160.81C127.936 160.876 127.984 160.933 128.045 160.973C128.106 161.013 128.177 161.035 128.25 161.035C128.302 161.036 128.354 161.026 128.402 161.005C128.45 160.985 128.493 160.955 128.528 160.916C128.564 160.878 128.59 160.833 128.607 160.784C128.624 160.734 128.63 160.682 128.625 160.63Z" fill="black"/>
<path d="M130.865 159.89V161.12C130.879 161.231 130.867 161.343 130.83 161.448C130.793 161.553 130.732 161.648 130.652 161.725C130.572 161.803 130.475 161.861 130.369 161.895C130.263 161.928 130.15 161.937 130.04 161.92C129.783 161.93 129.529 161.858 129.315 161.715L129.485 161.41C129.631 161.515 129.805 161.572 129.985 161.575C130.285 161.575 130.42 161.44 130.42 161.175V161.11C130.36 161.172 130.288 161.221 130.208 161.253C130.127 161.285 130.041 161.299 129.955 161.295C129.856 161.303 129.757 161.291 129.664 161.259C129.57 161.227 129.484 161.176 129.411 161.109C129.338 161.042 129.28 160.961 129.241 160.87C129.201 160.779 129.18 160.681 129.18 160.583C129.18 160.484 129.201 160.386 129.241 160.295C129.28 160.205 129.338 160.123 129.411 160.056C129.484 159.989 129.57 159.938 129.664 159.906C129.757 159.874 129.856 159.862 129.955 159.87C130.049 159.863 130.144 159.878 130.231 159.914C130.318 159.951 130.395 160.008 130.455 160.08V159.89H130.865ZM130.445 160.585C130.447 160.535 130.438 160.485 130.419 160.439C130.399 160.392 130.371 160.351 130.334 160.316C130.298 160.282 130.255 160.255 130.208 160.239C130.16 160.222 130.11 160.216 130.06 160.22C130.009 160.214 129.957 160.219 129.908 160.234C129.859 160.25 129.813 160.276 129.775 160.31C129.736 160.344 129.705 160.386 129.684 160.433C129.663 160.48 129.652 160.531 129.652 160.583C129.652 160.634 129.663 160.685 129.684 160.732C129.705 160.779 129.736 160.821 129.775 160.855C129.813 160.89 129.859 160.915 129.908 160.931C129.957 160.946 130.009 160.951 130.06 160.945C130.11 160.949 130.159 160.943 130.206 160.927C130.253 160.911 130.296 160.885 130.333 160.851C130.369 160.817 130.398 160.776 130.417 160.73C130.436 160.684 130.446 160.635 130.445 160.585Z" fill="black"/>
<path d="M132 159.45C132.001 159.417 132.008 159.384 132.022 159.353C132.036 159.322 132.056 159.295 132.081 159.273C132.105 159.25 132.135 159.233 132.166 159.222C132.198 159.211 132.232 159.207 132.265 159.21C132.298 159.207 132.331 159.21 132.362 159.22C132.394 159.23 132.423 159.246 132.447 159.267C132.472 159.289 132.492 159.316 132.507 159.345C132.521 159.375 132.529 159.407 132.53 159.44C132.53 159.51 132.502 159.578 132.452 159.627C132.403 159.677 132.335 159.705 132.265 159.705C132.195 159.705 132.127 159.677 132.078 159.627C132.028 159.578 132 159.51 132 159.44V159.45ZM132.05 159.89H132.475V161.39H132.05V159.89Z" fill="black"/>
<path d="M134.37 160.5V161.345H133.945V160.57C133.945 160.33 133.835 160.22 133.645 160.22C133.455 160.22 133.29 160.345 133.29 160.615V161.345H132.865V159.845H133.275V160.02C133.339 159.954 133.417 159.902 133.504 159.868C133.59 159.834 133.683 159.82 133.775 159.825C133.861 159.821 133.948 159.836 134.027 159.869C134.107 159.903 134.178 159.954 134.235 160.019C134.292 160.084 134.334 160.161 134.358 160.244C134.381 160.327 134.385 160.415 134.37 160.5Z" fill="black"/>
</g>
<path d="M148.96 165.315H83.54V176.515H148.96V165.315Z" fill="#28A228"/>
<path d="M107.8 172.655L107 171.5H106.76H105.81V172.665H105.26V168.83H106.76C107.76 168.83 108.355 169.33 108.355 170.17C108.368 170.436 108.292 170.699 108.14 170.918C107.988 171.136 107.769 171.299 107.515 171.38L108.425 172.665L107.8 172.655ZM107.8 170.155C107.8 169.605 107.435 169.295 106.73 169.295H105.8V171.02H106.73C107.42 171.025 107.785 170.705 107.785 170.16L107.8 170.155Z" fill="white"/>
<path d="M111.76 171.38H109.405C109.442 171.627 109.57 171.852 109.765 172.009C109.959 172.166 110.205 172.245 110.455 172.23C110.612 172.236 110.768 172.207 110.913 172.147C111.058 172.086 111.188 171.995 111.295 171.88L111.585 172.22C111.371 172.437 111.099 172.588 110.801 172.654C110.504 172.721 110.193 172.7 109.907 172.595C109.621 172.489 109.372 172.303 109.189 172.059C109.006 171.816 108.897 171.524 108.875 171.22C108.865 171.024 108.895 170.827 108.964 170.643C109.033 170.459 109.14 170.292 109.277 170.151C109.414 170.01 109.579 169.899 109.761 169.825C109.943 169.751 110.138 169.715 110.335 169.72C110.531 169.715 110.725 169.75 110.906 169.825C111.087 169.899 111.25 170.01 111.385 170.152C111.52 170.293 111.625 170.461 111.691 170.645C111.757 170.829 111.784 171.025 111.77 171.22C111.77 171.265 111.765 171.33 111.76 171.38ZM109.405 171H111.265C111.241 170.77 111.133 170.557 110.961 170.402C110.789 170.247 110.566 170.162 110.335 170.162C110.104 170.162 109.881 170.247 109.709 170.402C109.537 170.557 109.429 170.77 109.405 171Z" fill="white"/>
<path d="M115.28 169.755V172.255C115.28 173.28 114.755 173.755 113.78 173.755C113.282 173.776 112.793 173.624 112.395 173.325L112.645 172.92C112.965 173.168 113.36 173.301 113.765 173.295C114.45 173.295 114.765 172.98 114.765 172.32V172.09C114.636 172.238 114.475 172.356 114.294 172.434C114.113 172.512 113.917 172.548 113.72 172.54C113.347 172.54 112.99 172.392 112.727 172.128C112.463 171.865 112.315 171.508 112.315 171.135C112.315 170.762 112.463 170.405 112.727 170.141C112.99 169.878 113.347 169.73 113.72 169.73C113.926 169.724 114.13 169.766 114.317 169.853C114.503 169.939 114.667 170.069 114.795 170.23V169.78L115.28 169.755ZM114.78 171.13C114.791 170.93 114.742 170.732 114.639 170.56C114.536 170.389 114.384 170.252 114.202 170.168C114.021 170.084 113.818 170.056 113.621 170.088C113.423 170.12 113.24 170.211 113.095 170.348C112.949 170.486 112.848 170.663 112.805 170.859C112.762 171.054 112.778 171.258 112.852 171.444C112.926 171.63 113.054 171.789 113.219 171.902C113.385 172.014 113.58 172.075 113.78 172.075C113.908 172.083 114.036 172.064 114.156 172.019C114.277 171.975 114.386 171.906 114.479 171.818C114.571 171.729 114.645 171.622 114.694 171.504C114.743 171.385 114.767 171.258 114.765 171.13H114.78Z" fill="white"/>
<path d="M116.19 168.855C116.191 168.809 116.2 168.764 116.219 168.722C116.237 168.679 116.263 168.641 116.296 168.609C116.329 168.577 116.368 168.552 116.411 168.535C116.453 168.518 116.499 168.509 116.545 168.51C116.593 168.504 116.643 168.509 116.689 168.523C116.736 168.538 116.779 168.562 116.815 168.594C116.852 168.627 116.881 168.667 116.901 168.711C116.921 168.756 116.931 168.804 116.931 168.853C116.931 168.901 116.921 168.95 116.901 168.994C116.881 169.039 116.852 169.078 116.815 169.111C116.779 169.143 116.736 169.167 116.689 169.182C116.643 169.196 116.593 169.201 116.545 169.195C116.499 169.196 116.454 169.189 116.411 169.172C116.368 169.156 116.329 169.131 116.296 169.099C116.263 169.068 116.237 169.03 116.219 168.988C116.2 168.946 116.191 168.901 116.19 168.855ZM116.285 169.755H116.81V172.655H116.285V169.755Z" fill="white"/>
<path d="M117.445 172.35L117.665 171.935C117.963 172.128 118.31 172.233 118.665 172.235C119.165 172.235 119.355 172.085 119.355 171.84C119.355 171.19 117.52 171.755 117.52 170.595C117.52 170.095 117.985 169.725 118.73 169.725C119.099 169.719 119.463 169.811 119.785 169.99L119.56 170.405C119.31 170.248 119.02 170.168 118.725 170.175C118.265 170.175 118.04 170.345 118.04 170.575C118.04 171.26 119.88 170.7 119.88 171.83C119.88 172.33 119.38 172.69 118.625 172.69C118.207 172.696 117.796 172.578 117.445 172.35Z" fill="white"/>
<path d="M122.19 172.5C122.008 172.639 121.784 172.711 121.555 172.705C121.432 172.719 121.307 172.705 121.189 172.665C121.072 172.624 120.965 172.558 120.877 172.471C120.789 172.383 120.721 172.277 120.679 172.16C120.637 172.043 120.622 171.919 120.635 171.795V170.2H120.135V169.77H120.635V169.135H121.135V169.77H122V170.2H121.165V171.775C121.153 171.839 121.156 171.906 121.174 171.968C121.192 172.031 121.225 172.089 121.269 172.138C121.313 172.186 121.367 172.224 121.428 172.247C121.489 172.271 121.555 172.281 121.62 172.275C121.768 172.276 121.912 172.229 122.03 172.14L122.19 172.5Z" fill="white"/>
<path d="M125.34 171.38H123C123.037 171.628 123.166 171.854 123.362 172.011C123.557 172.168 123.805 172.247 124.055 172.23C124.211 172.236 124.367 172.208 124.511 172.147C124.655 172.087 124.785 171.996 124.89 171.88L125.18 172.22C124.967 172.438 124.695 172.589 124.397 172.656C124.1 172.723 123.79 172.702 123.504 172.596C123.218 172.491 122.968 172.304 122.786 172.06C122.603 171.816 122.495 171.524 122.475 171.22C122.465 171.024 122.495 170.827 122.564 170.643C122.633 170.459 122.74 170.292 122.877 170.151C123.014 170.01 123.179 169.899 123.361 169.825C123.543 169.751 123.738 169.715 123.935 169.72C124.13 169.715 124.324 169.752 124.505 169.826C124.685 169.901 124.848 170.012 124.983 170.153C125.119 170.295 125.223 170.462 125.289 170.646C125.356 170.83 125.383 171.025 125.37 171.22C125.365 171.274 125.355 171.328 125.34 171.38ZM123 171H124.865C124.836 170.773 124.726 170.564 124.554 170.413C124.382 170.262 124.161 170.179 123.933 170.179C123.704 170.179 123.483 170.262 123.311 170.413C123.139 170.564 123.029 170.773 123 171Z" fill="white"/>
<path d="M127.645 169.725V170.225H127.525C127.395 170.216 127.265 170.236 127.144 170.285C127.022 170.333 126.914 170.408 126.826 170.504C126.738 170.6 126.673 170.715 126.635 170.84C126.598 170.965 126.589 171.096 126.61 171.225V172.67H126.085V169.77H126.585V170.27C126.691 170.087 126.847 169.938 127.035 169.842C127.223 169.745 127.435 169.704 127.645 169.725Z" fill="white"/>
<g opacity="0.6">
<path d="M104.795 88.8051L105.02 88.3351C105.408 88.6603 105.899 88.8375 106.405 88.8351C107.13 88.8351 107.44 88.5551 107.44 88.1901C107.44 87.1901 104.9 87.8101 104.9 86.2551C104.9 85.6051 105.4 85.0551 106.505 85.0551C106.981 85.0473 107.449 85.1757 107.855 85.4251L107.655 85.9251C107.312 85.7052 106.913 85.5873 106.505 85.5851C105.79 85.5851 105.505 85.8851 105.505 86.2501C105.505 87.2501 108.05 86.6301 108.05 88.1751C108.05 88.8151 107.55 89.3651 106.425 89.3651C105.832 89.3775 105.255 89.1791 104.795 88.8051Z" fill="#263238"/>
<path d="M108.72 85.1201C108.721 85.0697 108.731 85.02 108.751 84.9738C108.771 84.9276 108.8 84.8859 108.837 84.851C108.873 84.8161 108.916 84.7888 108.963 84.7706C109.01 84.7524 109.06 84.7437 109.11 84.7451C109.16 84.7431 109.209 84.7509 109.256 84.7683C109.302 84.7856 109.345 84.812 109.381 84.846C109.418 84.8799 109.447 84.9208 109.467 84.9661C109.488 85.0114 109.499 85.0604 109.5 85.1101C109.5 85.2135 109.459 85.3127 109.386 85.3858C109.313 85.459 109.213 85.5001 109.11 85.5001C109.007 85.5001 108.907 85.459 108.834 85.3858C108.761 85.3127 108.72 85.2135 108.72 85.1101V85.1201ZM108.82 86.1201H109.4V89.3001H108.82V86.1201Z" fill="#263238"/>
<path d="M113.535 86.1051V88.8501C113.535 89.9751 112.965 90.4851 111.89 90.4851C111.35 90.5022 110.821 90.3346 110.39 90.0101L110.665 89.5651C111.013 89.8406 111.446 89.9872 111.89 89.9801C112.64 89.9801 112.98 89.6301 112.98 88.9101V88.6601C112.838 88.8235 112.662 88.9532 112.464 89.0397C112.266 89.1262 112.051 89.1674 111.835 89.1601C111.626 89.172 111.416 89.1411 111.219 89.0692C111.022 88.9974 110.842 88.8861 110.69 88.7421C110.537 88.5982 110.416 88.4246 110.333 88.2321C110.25 88.0396 110.207 87.8322 110.207 87.6226C110.207 87.413 110.25 87.2055 110.333 87.013C110.416 86.8205 110.537 86.647 110.69 86.5031C110.842 86.3591 111.022 86.2478 111.219 86.1759C111.416 86.1041 111.626 86.0731 111.835 86.0851C112.056 86.0736 112.277 86.1126 112.48 86.1993C112.684 86.2859 112.865 86.4179 113.01 86.5851V86.0851L113.535 86.1051ZM112.975 87.6051C112.986 87.3865 112.931 87.1696 112.818 86.9825C112.704 86.7953 112.537 86.6465 112.339 86.5551C112.14 86.4637 111.918 86.434 111.702 86.4699C111.486 86.5057 111.286 86.6054 111.127 86.7561C110.969 86.9068 110.859 87.1016 110.812 87.3154C110.765 87.5292 110.783 87.7521 110.864 87.9554C110.945 88.1587 111.085 88.3331 111.266 88.456C111.447 88.579 111.661 88.6448 111.88 88.6451C112.023 88.6576 112.167 88.6401 112.303 88.5937C112.439 88.5473 112.564 88.4729 112.669 88.3755C112.775 88.278 112.858 88.1596 112.915 88.0278C112.972 87.896 113.001 87.7537 113 87.6101L112.975 87.6051Z" fill="#263238"/>
<path d="M117.655 87.455V89.285H117.075V87.5C117.075 86.875 116.765 86.57 116.22 86.57C116.082 86.561 115.943 86.5825 115.814 86.6331C115.684 86.6838 115.568 86.7622 115.472 86.8629C115.377 86.9636 115.305 87.0841 115.261 87.2158C115.218 87.3475 115.204 87.4873 115.22 87.625V89.265H114.645V86.085H115.2V86.585C115.336 86.4156 115.512 86.2817 115.711 86.1946C115.911 86.1076 116.128 86.07 116.345 86.085C116.525 86.0729 116.706 86.1006 116.875 86.166C117.043 86.2314 117.195 86.3331 117.32 86.4637C117.445 86.5944 117.54 86.7509 117.598 86.9222C117.656 87.0935 117.675 87.2754 117.655 87.455Z" fill="#263238"/>
<path d="M123.3 86.1051V89.2851H122.755V88.7851C122.628 88.9487 122.464 89.0795 122.276 89.1665C122.088 89.2535 121.882 89.2942 121.675 89.2851C121.489 89.3042 121.301 89.2814 121.125 89.2184C120.949 89.1553 120.79 89.0536 120.658 88.9207C120.527 88.7878 120.427 88.6271 120.366 88.4505C120.305 88.2739 120.284 88.0858 120.305 87.9001V86.0701H120.88V87.8351C120.88 88.4551 121.195 88.7701 121.74 88.7701C121.879 88.78 122.018 88.7591 122.147 88.7088C122.277 88.6585 122.394 88.5801 122.49 88.4791C122.585 88.3782 122.657 88.2574 122.701 88.1252C122.744 87.9931 122.757 87.853 122.74 87.7151V86.0701L123.3 86.1051Z" fill="#263238"/>
<path d="M127.69 87.6951C127.701 87.9097 127.668 88.1244 127.591 88.3253C127.515 88.5263 127.397 88.7091 127.246 88.862C127.095 89.015 126.914 89.1347 126.714 89.2136C126.514 89.2924 126.3 89.3287 126.085 89.3201C125.874 89.3283 125.664 89.2874 125.471 89.2007C125.279 89.1139 125.109 88.9836 124.975 88.8201V90.4601H124.4V86.1201H124.95V86.6201C125.082 86.446 125.254 86.3064 125.452 86.2133C125.649 86.1201 125.867 86.0761 126.085 86.0851C126.299 86.0758 126.512 86.1112 126.711 86.1889C126.91 86.2666 127.091 86.3849 127.242 86.5364C127.393 86.6878 127.511 86.8691 127.588 87.0686C127.665 87.2681 127.7 87.4814 127.69 87.6951ZM127.11 87.6951C127.1 87.4861 127.029 87.2845 126.906 87.1154C126.783 86.9462 126.613 86.8168 126.417 86.7433C126.221 86.6698 126.008 86.6553 125.804 86.7017C125.6 86.748 125.414 86.8532 125.269 87.0041C125.124 87.1551 125.027 87.3452 124.989 87.551C124.951 87.7567 124.974 87.9691 125.056 88.1618C125.137 88.3545 125.273 88.5191 125.447 88.6352C125.621 88.7513 125.826 88.8139 126.035 88.8151C126.181 88.8181 126.326 88.7909 126.461 88.7351C126.595 88.6793 126.717 88.5961 126.818 88.4908C126.919 88.3856 126.997 88.2605 127.048 88.1236C127.098 87.9866 127.119 87.8407 127.11 87.6951Z" fill="#263238"/>
</g>
<path d="M148.96 112.77H83.54V123.97H148.96V112.77Z" fill="white"/>
<g opacity="0.4">
<path d="M87.12 116.545H87.46V119.46H89.255V119.755H87.12V116.545Z" fill="#263238"/>
<path d="M91.58 118.26V119.76H91.27V119.385C91.179 119.519 91.0544 119.626 90.9087 119.696C90.763 119.767 90.6013 119.797 90.44 119.785C89.895 119.785 89.56 119.5 89.56 119.08C89.56 118.66 89.795 118.4 90.49 118.4H91.255V118.255C91.255 117.84 91.02 117.615 90.57 117.615C90.2778 117.611 89.9939 117.712 89.77 117.9L89.62 117.655C89.9055 117.434 90.259 117.319 90.62 117.33C90.7472 117.315 90.8762 117.328 90.9976 117.369C91.119 117.41 91.2298 117.477 91.3218 117.566C91.4138 117.655 91.4847 117.764 91.5294 117.884C91.5741 118.004 91.5914 118.132 91.58 118.26ZM91.255 119.03V118.635H90.5C90.03 118.635 89.88 118.82 89.88 119.07C89.88 119.32 90.105 119.52 90.49 119.52C90.653 119.53 90.8149 119.488 90.9525 119.4C91.09 119.312 91.1959 119.182 91.255 119.03Z" fill="#263238"/>
<path d="M92.13 119.5L92.275 119.245C92.5272 119.421 92.8274 119.515 93.135 119.515C93.595 119.515 93.78 119.36 93.78 119.12C93.78 118.49 92.22 118.985 92.22 118.035C92.22 117.64 92.555 117.345 93.17 117.345C93.4701 117.341 93.7657 117.419 94.025 117.57L93.88 117.83C93.6697 117.691 93.422 117.62 93.17 117.625C92.735 117.625 92.545 117.795 92.545 118.025C92.545 118.675 94.105 118.185 94.105 119.11C94.105 119.53 93.74 119.8 93.105 119.8C92.7562 119.808 92.4142 119.702 92.13 119.5Z" fill="#263238"/>
<path d="M96 119.61C95.858 119.723 95.6813 119.783 95.5 119.78C95.4049 119.79 95.3087 119.779 95.2185 119.747C95.1283 119.716 95.0464 119.664 94.9788 119.596C94.9111 119.529 94.8595 119.447 94.8277 119.357C94.7959 119.266 94.7847 119.17 94.795 119.075V117.62H94.36V117.345H94.795V116.815H95.12V117.345H95.85V117.62H95.12V119.06C95.1115 119.118 95.1161 119.176 95.1335 119.232C95.151 119.288 95.1808 119.338 95.2207 119.381C95.2607 119.423 95.3097 119.456 95.3642 119.477C95.4186 119.497 95.477 119.505 95.535 119.5C95.6663 119.504 95.7944 119.46 95.895 119.375L96 119.61Z" fill="#263238"/>
<path d="M100.5 116.545V119.755H100.22L98.16 117.15V119.755H97.82V116.545H98.1L100.165 119.15V116.545H100.5Z" fill="#263238"/>
<path d="M103.32 118.26V119.76H103V119.385C102.91 119.52 102.785 119.628 102.639 119.698C102.493 119.768 102.331 119.798 102.17 119.785C101.625 119.785 101.29 119.5 101.29 119.08C101.29 118.66 101.53 118.4 102.225 118.4H103V118.255C103 117.84 102.765 117.615 102.315 117.615C102.023 117.611 101.739 117.712 101.515 117.9L101.365 117.655C101.65 117.433 102.004 117.318 102.365 117.33C102.492 117.316 102.62 117.329 102.741 117.371C102.862 117.412 102.972 117.479 103.063 117.568C103.155 117.657 103.225 117.766 103.27 117.885C103.314 118.005 103.331 118.133 103.32 118.26ZM102.995 119.03V118.635H102.235C101.77 118.635 101.62 118.82 101.62 119.07C101.62 119.32 101.845 119.52 102.23 119.52C102.394 119.531 102.557 119.49 102.695 119.401C102.834 119.313 102.941 119.183 103 119.03H102.995Z" fill="#263238"/>
<path d="M108.185 118.355V119.755H107.86V118.39C107.86 117.89 107.6 117.62 107.165 117.62C107.052 117.615 106.94 117.634 106.835 117.677C106.731 117.72 106.637 117.785 106.56 117.868C106.484 117.951 106.426 118.049 106.391 118.157C106.357 118.264 106.346 118.378 106.36 118.49V119.755H106.035V118.39C106.035 117.89 105.775 117.62 105.335 117.62C105.222 117.615 105.11 117.634 105.005 117.677C104.901 117.72 104.807 117.785 104.73 117.868C104.654 117.951 104.596 118.049 104.561 118.157C104.527 118.264 104.516 118.378 104.53 118.49V119.755H104.205V117.345H104.5V117.785C104.594 117.638 104.726 117.518 104.881 117.437C105.036 117.356 105.21 117.318 105.385 117.325C105.562 117.31 105.74 117.351 105.894 117.44C106.047 117.529 106.17 117.664 106.245 117.825C106.344 117.664 106.484 117.532 106.651 117.444C106.818 117.356 107.006 117.315 107.195 117.325C107.332 117.312 107.47 117.329 107.599 117.377C107.728 117.425 107.844 117.501 107.94 117.6C108.035 117.699 108.106 117.819 108.149 117.949C108.191 118.08 108.204 118.219 108.185 118.355Z" fill="#263238"/>
<path d="M111.18 118.65H109.18C109.187 118.768 109.217 118.883 109.269 118.989C109.32 119.095 109.392 119.189 109.481 119.267C109.569 119.345 109.672 119.405 109.783 119.443C109.895 119.482 110.012 119.497 110.13 119.49C110.269 119.495 110.407 119.469 110.535 119.414C110.663 119.36 110.777 119.278 110.87 119.175L111.05 119.385C110.877 119.566 110.654 119.692 110.41 119.747C110.165 119.802 109.91 119.784 109.676 119.695C109.442 119.606 109.239 119.45 109.093 119.246C108.947 119.043 108.864 118.8 108.855 118.55C108.847 118.391 108.871 118.232 108.927 118.082C108.983 117.933 109.069 117.797 109.179 117.682C109.29 117.567 109.423 117.476 109.57 117.415C109.717 117.353 109.876 117.323 110.035 117.325C110.194 117.322 110.352 117.352 110.499 117.413C110.646 117.474 110.779 117.565 110.889 117.681C110.999 117.796 111.084 117.932 111.138 118.082C111.193 118.232 111.215 118.391 111.205 118.55C111.185 118.58 111.18 118.615 111.18 118.65ZM109.18 118.41H110.89C110.89 118.183 110.8 117.966 110.64 117.805C110.479 117.645 110.262 117.555 110.035 117.555C109.808 117.555 109.591 117.645 109.43 117.805C109.27 117.966 109.18 118.183 109.18 118.41Z" fill="#263238"/>
</g>
<path d="M148.96 97.47H83.54V108.67H148.96V97.47Z" fill="white"/>
<g opacity="0.4">
<path d="M87.46 101.54V102.8H89.12V103.095H87.46V104.455H87.12V101.245H89.32V101.54H87.46Z" fill="#263238"/>
<path d="M89.835 101.28C89.834 101.232 89.8474 101.185 89.8734 101.145C89.8993 101.105 89.9368 101.073 89.9808 101.054C90.0249 101.036 90.0735 101.03 90.1206 101.039C90.1676 101.049 90.2108 101.072 90.2446 101.105C90.2785 101.139 90.3015 101.182 90.3106 101.229C90.3197 101.277 90.3145 101.325 90.2957 101.369C90.2769 101.413 90.2454 101.451 90.2052 101.477C90.165 101.503 90.1179 101.516 90.07 101.515C90.0077 101.515 89.9479 101.49 89.9038 101.446C89.8598 101.402 89.835 101.342 89.835 101.28ZM89.905 102.045H90.23V104.455H89.905V102.045Z" fill="#263238"/>
<path d="M92.355 102.025V102.34H92.275C92.1601 102.334 92.0454 102.354 91.9392 102.398C91.8329 102.442 91.7376 102.509 91.6602 102.594C91.5828 102.679 91.5252 102.78 91.4914 102.89C91.4577 103 91.4486 103.116 91.465 103.23V104.46H91.14V102.05H91.45V102.5C91.5365 102.34 91.6688 102.209 91.83 102.124C91.9912 102.04 92.174 102.005 92.355 102.025Z" fill="#263238"/>
<path d="M92.625 104.18L92.77 103.92C93.0199 104.101 93.3213 104.198 93.63 104.195C94.09 104.195 94.275 104.035 94.275 103.8C94.275 103.17 92.715 103.665 92.715 102.71C92.715 102.32 93.05 102.025 93.665 102.025C93.9654 102.019 94.2617 102.096 94.52 102.25L94.375 102.51C94.1647 102.371 93.917 102.3 93.665 102.305C93.23 102.305 93.04 102.475 93.04 102.705C93.04 103.355 94.6 102.865 94.6 103.79C94.6 104.205 94.235 104.475 93.6 104.475C93.2517 104.484 92.9098 104.381 92.625 104.18Z" fill="#263238"/>
<path d="M96.5 104.31C96.3564 104.419 96.1804 104.477 96 104.475C95.9052 104.486 95.8091 104.476 95.7188 104.445C95.6286 104.413 95.5465 104.362 95.4788 104.295C95.411 104.228 95.3593 104.146 95.3275 104.056C95.2957 103.966 95.2846 103.87 95.295 103.775V102.32H94.86V102.045H95.295V101.5H95.62V102.03H96.35V102.305H95.62V103.74C95.6116 103.798 95.6163 103.857 95.6337 103.913C95.6512 103.968 95.6809 104.019 95.7207 104.062C95.7606 104.105 95.8095 104.138 95.8639 104.159C95.9183 104.181 95.9768 104.189 96.035 104.185C96.1659 104.187 96.2933 104.143 96.395 104.06L96.5 104.31Z" fill="#263238"/>
<path d="M101 101.245V104.455H100.72L98.66 101.85V104.455H98.32V101.245H98.6L100.665 103.85V101.245H101Z" fill="#263238"/>
<path d="M103.815 102.96V104.46H103.5V104.085C103.41 104.219 103.287 104.326 103.141 104.395C102.996 104.465 102.835 104.494 102.675 104.48C102.125 104.48 101.79 104.2 101.79 103.78C101.79 103.36 102.03 103.1 102.725 103.1H103.5V102.95C103.5 102.54 103.265 102.315 102.815 102.315C102.523 102.311 102.239 102.412 102.015 102.6L101.865 102.355C102.15 102.133 102.504 102.018 102.865 102.03C102.992 102.015 103.12 102.029 103.24 102.07C103.361 102.112 103.471 102.179 103.562 102.268C103.653 102.357 103.723 102.466 103.767 102.586C103.811 102.705 103.827 102.833 103.815 102.96ZM103.49 103.73V103.335H102.73C102.265 103.335 102.115 103.52 102.115 103.765C102.115 104.01 102.34 104.22 102.725 104.22C102.89 104.231 103.053 104.19 103.193 104.102C103.332 104.014 103.44 103.884 103.5 103.73H103.49Z" fill="#263238"/>
<path d="M108.68 103.055V104.455H108.355V103.09C108.355 102.59 108.095 102.32 107.66 102.32C107.547 102.315 107.435 102.334 107.33 102.377C107.226 102.42 107.132 102.485 107.055 102.568C106.979 102.651 106.921 102.749 106.886 102.857C106.852 102.964 106.841 103.078 106.855 103.19V104.455H106.53V103.09C106.53 102.59 106.27 102.32 105.83 102.32C105.717 102.315 105.605 102.334 105.5 102.377C105.396 102.42 105.302 102.485 105.225 102.568C105.149 102.651 105.091 102.749 105.056 102.857C105.022 102.964 105.011 103.078 105.025 103.19V104.455H104.7V102.045H105V102.5C105.094 102.353 105.226 102.233 105.381 102.152C105.536 102.071 105.71 102.033 105.885 102.04C106.062 102.025 106.24 102.066 106.394 102.155C106.547 102.244 106.67 102.379 106.745 102.54C106.843 102.378 106.983 102.246 107.15 102.158C107.318 102.07 107.506 102.029 107.695 102.04C107.83 102.028 107.966 102.046 108.093 102.093C108.22 102.14 108.335 102.215 108.43 102.313C108.524 102.41 108.595 102.527 108.639 102.655C108.682 102.784 108.696 102.92 108.68 103.055Z" fill="#263238"/>
<path d="M111.675 103.35H109.675C109.682 103.468 109.712 103.583 109.764 103.689C109.815 103.795 109.887 103.889 109.976 103.967C110.064 104.045 110.167 104.105 110.278 104.143C110.39 104.182 110.507 104.198 110.625 104.19C110.764 104.195 110.903 104.168 111.031 104.113C111.159 104.058 111.273 103.975 111.365 103.87L111.545 104.085C111.372 104.266 111.149 104.392 110.905 104.447C110.66 104.502 110.405 104.484 110.171 104.395C109.937 104.306 109.734 104.15 109.588 103.946C109.442 103.743 109.359 103.5 109.35 103.25C109.342 103.091 109.366 102.932 109.422 102.782C109.478 102.633 109.564 102.497 109.674 102.382C109.785 102.267 109.918 102.176 110.065 102.115C110.212 102.053 110.371 102.023 110.53 102.025C110.689 102.022 110.847 102.052 110.994 102.113C111.141 102.174 111.274 102.265 111.384 102.381C111.494 102.496 111.579 102.632 111.633 102.782C111.688 102.932 111.71 103.091 111.7 103.25C111.68 103.275 111.675 103.31 111.675 103.35ZM109.675 103.105H111.385C111.385 102.878 111.295 102.661 111.135 102.5C110.974 102.34 110.757 102.25 110.53 102.25C110.303 102.25 110.086 102.34 109.925 102.5C109.765 102.661 109.675 102.878 109.675 103.105Z" fill="#263238"/>
</g>
<path d="M58.925 192.64H58.45C58.45 191.935 59.035 175.415 61.91 172.64C64.865 169.765 68.34 172.6 68.37 172.64L68.07 173C67.94 172.895 64.885 170.415 62.235 173C59.5 175.605 58.93 192.47 58.925 192.64Z" fill="#28A228"/>
<path d="M58.685 195.955L58.215 195.91C58.215 195.71 60.075 175.85 52.88 167.59L53.235 167.28C60.565 175.695 58.705 195.755 58.685 195.955Z" fill="#28A228"/>
<path d="M58.915 193.835C58.855 192.895 57.47 170.835 63 165.735L63.32 166.085C57.955 171.015 59.37 193.585 59.385 193.8L58.915 193.835Z" fill="#28A228"/>
<path d="M58.215 193.82C58.215 193.67 58.045 178.82 54.11 176.585C53.7755 176.364 53.3928 176.227 52.9943 176.186C52.5957 176.144 52.193 176.199 51.82 176.345C49.515 177.3 48.29 181.7 48.275 181.745L47.82 181.62C47.87 181.43 49.12 176.955 51.64 175.91C52.079 175.734 52.554 175.666 53.0249 175.712C53.4958 175.758 53.9486 175.917 54.345 176.175C58.51 178.56 58.685 193.175 58.69 193.815L58.215 193.82Z" fill="#28A228"/>
<path d="M59.835 193.83C59.805 193.33 59.2 182.11 62.385 177.945C63.235 176.84 64.175 176.315 65.195 176.39C67.46 176.545 69.195 179.615 69.29 179.745L68.88 179.98C68.88 179.95 67.17 176.98 65.16 176.86C64.315 176.795 63.505 177.26 62.76 178.235C59.68 182.235 60.3 193.69 60.305 193.805L59.835 193.83Z" fill="#28A228"/>
<path d="M59.2 195.385L58.73 195.35C58.73 195.08 60.73 168.29 57.43 163.82L57.81 163.54C61.22 168.15 59.285 194.275 59.2 195.385Z" fill="#28A228"/>
<path d="M50.725 178.575C50.725 178.575 52.765 179.33 52.16 181.105C51.555 182.88 45.095 185.805 45.095 185.805C45.095 185.805 42.39 183.33 44.875 179.305C47.36 175.28 50.67 177.305 50.725 178.575Z" fill="#28A228"/>
<path opacity="0.2" d="M50.725 178.575C50.725 178.575 52.765 179.33 52.16 181.105C51.555 182.88 45.095 185.805 45.095 185.805C45.095 185.805 42.39 183.33 44.875 179.305C47.36 175.28 50.67 177.305 50.725 178.575Z" fill="black"/>
<path d="M59.6 175.195C59.6 175.195 57.425 175.105 57.3 176.975C57.175 178.845 62 184.035 62 184.035C62 184.035 65.45 182.785 64.71 178.11C63.97 173.435 60.14 174.04 59.6 175.195Z" fill="#28A228"/>
<path opacity="0.2" d="M59.6 175.195C59.6 175.195 57.425 175.105 57.3 176.975C57.175 178.845 62 184.035 62 184.035C62 184.035 65.45 182.785 64.71 178.11C63.97 173.435 60.14 174.04 59.6 175.195Z" fill="black"/>
<path d="M61.44 166.225C61.44 166.225 59.99 166.07 60.105 165.19C60.22 164.31 65.74 162.035 68.995 165.69C68.995 165.69 66.91 169.27 63.9 169.32C60.89 169.37 61.44 166.225 61.44 166.225Z" fill="#28A228"/>
<path opacity="0.2" d="M61.44 166.225C61.44 166.225 59.99 166.07 60.105 165.19C60.22 164.31 65.74 162.035 68.995 165.69C68.995 165.69 66.91 169.27 63.9 169.32C60.89 169.37 61.44 166.225 61.44 166.225Z" fill="black"/>
<path d="M58.74 164.08C58.74 164.08 60.05 164.715 60.42 163.905C60.79 163.095 57.305 158.25 52.6 159.645C52.6 159.645 52.475 163.785 55.005 165.42C57.535 167.055 58.74 164.08 58.74 164.08Z" fill="#28A228"/>
<path opacity="0.2" d="M58.74 164.08C58.74 164.08 60.05 164.715 60.42 163.905C60.79 163.095 57.305 158.25 52.6 159.645C52.6 159.645 52.475 163.785 55.005 165.42C57.535 167.055 58.74 164.08 58.74 164.08Z" fill="black"/>
<path d="M65.6 177.865C65.6 177.865 64.6 177.055 65.68 176.66C66.76 176.265 72.055 176.38 72.11 181.625C72.11 181.625 65.94 182.65 65.18 180.65C64.42 178.65 65.6 177.865 65.6 177.865Z" fill="#28A228"/>
<path opacity="0.2" d="M65.6 177.865C65.6 177.865 64.6 177.055 65.68 176.66C66.76 176.265 72.055 176.38 72.11 181.625C72.11 181.625 65.94 182.65 65.18 180.65C64.42 178.65 65.6 177.865 65.6 177.865Z" fill="black"/>
<path d="M53 166.095C53 166.095 54 165.285 52.92 164.895C51.84 164.505 46.545 164.61 46.49 169.855C46.49 169.855 52.66 170.885 53.42 168.885C54.18 166.885 53 166.095 53 166.095Z" fill="#28A228"/>
<path opacity="0.2" d="M53 166.095C53 166.095 54 165.285 52.92 164.895C51.84 164.505 46.545 164.61 46.49 169.855C46.49 169.855 52.66 170.885 53.42 168.885C54.18 166.885 53 166.095 53 166.095Z" fill="black"/>
<path d="M56.28 170.32C56.28 170.32 56.37 169.32 55.575 169.725C54.78 170.13 52.025 173.09 54.885 175.915C54.885 175.915 58.74 173.06 58.045 171.575C57.35 170.09 56.28 170.32 56.28 170.32Z" fill="#28A228"/>
<path opacity="0.2" d="M56.28 170.32C56.28 170.32 56.37 169.32 55.575 169.725C54.78 170.13 52.025 173.09 54.885 175.915C54.885 175.915 58.74 173.06 58.045 171.575C57.35 170.09 56.28 170.32 56.28 170.32Z" fill="black"/>
<path d="M66.5 171.72C66.5 171.72 65.9 170.935 66.78 170.84C67.66 170.745 71.58 171.79 70.665 175.71C70.665 175.71 65.885 175.35 65.665 173.71C65.445 172.07 66.5 171.72 66.5 171.72Z" fill="#28A228"/>
<path opacity="0.2" d="M66.5 171.72C66.5 171.72 65.9 170.935 66.78 170.84C67.66 170.745 71.58 171.79 70.665 175.71C70.665 175.71 65.885 175.35 65.665 173.71C65.445 172.07 66.5 171.72 66.5 171.72Z" fill="black"/>
<path d="M51.08 208.36H66.535L68.59 193.33H49.025L51.08 208.36Z" fill="#263238"/>
<path opacity="0.2" d="M51.08 208.36H66.535L68.59 193.33H49.025L51.08 208.36Z" fill="white"/>
<path d="M70.53 192.11V193.54C70.53 193.999 70.3477 194.439 70.0233 194.763C69.6989 195.088 69.2588 195.27 68.8 195.27H48.625C48.1662 195.27 47.7261 195.088 47.4017 194.763C47.0773 194.439 46.895 193.999 46.895 193.54V192.11H70.53Z" fill="#263238"/>
<path d="M199.31 49.655H184.945C183.773 49.655 182.648 50.1207 181.82 50.9496C180.991 51.7785 180.525 52.9028 180.525 54.075V66.575C180.524 67.1559 180.638 67.7312 180.86 68.268C181.082 68.8048 181.407 69.2927 181.818 69.7037C182.228 70.1146 182.716 70.4406 183.252 70.6631C183.789 70.8855 184.364 71 184.945 71H189.14L188.14 74.945L192.14 71H199.335C200.509 71 201.634 70.5338 202.464 69.704C203.294 68.8741 203.76 67.7486 203.76 66.575V54.075C203.76 53.492 203.645 52.9148 203.421 52.3766C203.197 51.8384 202.868 51.3498 202.455 50.9389C202.041 50.5281 201.55 50.2032 201.011 49.9828C200.471 49.7625 199.893 49.6511 199.31 49.655Z" fill="#28A228"/>
<path opacity="0.7" d="M199.31 49.655H184.945C183.773 49.655 182.648 50.1207 181.82 50.9496C180.991 51.7785 180.525 52.9028 180.525 54.075V66.575C180.524 67.1559 180.638 67.7312 180.86 68.268C181.082 68.8048 181.407 69.2927 181.818 69.7037C182.228 70.1146 182.716 70.4406 183.252 70.6631C183.789 70.8855 184.364 71 184.945 71H189.14L188.14 74.945L192.14 71H199.335C200.509 71 201.634 70.5338 202.464 69.704C203.294 68.8741 203.76 67.7486 203.76 66.575V54.075C203.76 53.492 203.645 52.9148 203.421 52.3766C203.197 51.8384 202.868 51.3498 202.455 50.9389C202.041 50.5281 201.55 50.2032 201.011 49.9828C200.471 49.7625 199.893 49.6511 199.31 49.655Z" fill="white"/>
<path d="M192.13 65.85C195.209 65.85 197.705 63.354 197.705 60.275C197.705 57.196 195.209 54.7 192.13 54.7C189.051 54.7 186.555 57.196 186.555 60.275C186.555 63.354 189.051 65.85 192.13 65.85Z" fill="white"/>
<path d="M192.13 53.145C190.72 53.145 189.341 53.5632 188.169 54.3466C186.996 55.1301 186.082 56.2437 185.543 57.5465C185.003 58.8493 184.862 60.2829 185.137 61.666C185.412 63.0491 186.091 64.3195 187.088 65.3167C188.085 66.3138 189.356 66.9929 190.739 67.268C192.122 67.5431 193.556 67.4019 194.859 66.8623C196.161 66.3226 197.275 65.4088 198.058 64.2362C198.842 63.0637 199.26 61.6852 199.26 60.275C199.261 59.3385 199.077 58.4111 198.719 57.5457C198.361 56.6804 197.835 55.8941 197.173 55.2319C196.511 54.5697 195.725 54.0445 194.859 53.6864C193.994 53.3283 193.067 53.1444 192.13 53.145ZM196.175 58.145L191.88 63.205C191.819 63.2781 191.742 63.3367 191.656 63.3765C191.569 63.4163 191.475 63.4363 191.38 63.435C191.285 63.4356 191.191 63.4153 191.104 63.3756C191.018 63.3358 190.941 63.2776 190.88 63.205L188.085 59.91C188.026 59.8449 187.981 59.7685 187.952 59.6854C187.923 59.6024 187.911 59.5144 187.917 59.4266C187.923 59.3389 187.946 59.2532 187.986 59.1748C188.025 59.0963 188.08 59.0266 188.148 58.9698C188.215 58.9131 188.293 58.8704 188.377 58.8444C188.461 58.8184 188.549 58.8096 188.636 58.8185C188.724 58.8274 188.809 58.8538 188.886 58.8961C188.963 58.9385 189.031 58.9959 189.085 59.065L191.38 61.77L195.175 57.3C195.289 57.1742 195.447 57.0976 195.617 57.0864C195.786 57.0751 195.953 57.13 196.083 57.2396C196.213 57.3492 196.295 57.5048 196.312 57.6737C196.329 57.8426 196.28 58.0116 196.175 58.145Z" fill="#28A228"/>
<path d="M196.82 126.78C196.82 126.78 188.115 125.68 174.925 129.28C174.925 129.28 172.805 105.71 173.055 102.47C173.305 99.23 193.42 100.18 193.42 100.18C193.42 100.18 193.92 109.615 195.23 115.305C196.54 120.995 197.5 125.685 196.82 126.78Z" fill="#28A228"/>
<path opacity="0.2" d="M196.82 126.78C196.82 126.78 188.115 125.68 174.925 129.28C174.925 129.28 172.805 105.71 173.055 102.47C173.305 99.23 193.42 100.18 193.42 100.18C193.42 100.18 193.92 109.615 195.23 115.305C196.54 120.995 197.5 125.685 196.82 126.78Z" fill="black"/>
<path d="M168.565 204.81L172.115 205.815L172.96 200.29L173.415 197.335L169.865 196.33L169.26 200.29L168.565 204.81Z" fill="#E4897B"/>
<path d="M188.975 205.1L192.635 205.585L192.67 200.29L192.695 197L189.03 196.52L189.005 200.29L188.975 205.1Z" fill="#E4897B"/>
<path opacity="0.2" d="M189.03 196.52L189.005 200.29H192.67L192.695 197L189.03 196.52Z" fill="black"/>
<path opacity="0.2" d="M169.26 200.29H172.96L173.415 197.335L169.865 196.33L169.26 200.29Z" fill="black"/>
<path d="M152.805 104.405L149.28 103.365L149.925 107.39C149.925 107.39 153.125 108.125 153.425 106.46L152.805 104.405Z" fill="#E4897B"/>
<path d="M145.76 104.3L147.49 107.57L149.925 107.39L149.28 103.365L145.76 104.3Z" fill="#E4897B"/>
<path d="M157.67 105.435L151.88 104.14L151.355 106.95L156.61 108.23L157.67 105.435Z" fill="#E4897B"/>
<path d="M175.185 102.895L174.845 103.3C174.115 104.155 172.345 106.22 170.5 108C169 109.45 167.5 110.715 166.5 110.97C163.665 111.7 153.36 108.665 153.36 108.665L154.425 104.485C154.425 104.485 164.025 105.76 164.77 105.76C165.335 105.76 171.175 97.3 172.59 96.605L175.185 102.895Z" fill="#28A228"/>
<path opacity="0.2" d="M174.845 103.3C174.115 104.155 172.345 106.22 170.5 108C170.87 105.07 171.945 102.38 173.36 100.68C173.492 100.516 173.643 100.368 173.81 100.24L174.845 103.3Z" fill="black"/>
<path d="M168.61 204.255L172.64 204.15C172.713 204.148 172.784 204.17 172.842 204.214C172.9 204.258 172.942 204.32 172.96 204.39L173.81 207.635C173.83 207.713 173.833 207.794 173.817 207.873C173.802 207.952 173.769 208.026 173.721 208.09C173.673 208.155 173.611 208.207 173.54 208.245C173.469 208.282 173.39 208.302 173.31 208.305C171.855 208.305 169.75 208.305 167.925 208.34C165.785 208.4 164.425 208.295 161.925 208.34C160.425 208.38 159.925 206.87 160.565 206.715C163.43 206.005 165.305 206.145 167.745 204.545C168.003 204.373 168.301 204.273 168.61 204.255Z" fill="#263238"/>
<path d="M168.26 204.775C167.67 204.905 166.62 205.08 166.2 204.735C166.139 204.684 166.091 204.62 166.059 204.547C166.028 204.474 166.014 204.394 166.02 204.315C166.02 204.267 166.032 204.221 166.056 204.179C166.08 204.138 166.114 204.104 166.155 204.08C166.6 203.815 168.105 204.53 168.28 204.61C168.295 204.618 168.308 204.63 168.317 204.645C168.326 204.66 168.33 204.678 168.33 204.695C168.329 204.714 168.322 204.733 168.309 204.747C168.296 204.762 168.279 204.772 168.26 204.775ZM166.26 204.22H166.23C166.213 204.23 166.199 204.243 166.19 204.26C166.18 204.277 166.175 204.296 166.175 204.315C166.171 204.367 166.179 204.419 166.199 204.466C166.219 204.514 166.25 204.557 166.29 204.59C166.525 204.785 167.135 204.805 167.945 204.645C167.36 204.4 166.545 204.115 166.27 204.22H166.26Z" fill="#28A228"/>
<path d="M168.26 204.775H168.2C167.745 204.585 166.835 203.815 166.885 203.4C166.885 203.3 166.965 203.175 167.205 203.145C167.293 203.133 167.383 203.139 167.468 203.163C167.554 203.186 167.635 203.226 167.705 203.28C168.205 203.655 168.32 204.64 168.33 204.68C168.331 204.695 168.329 204.711 168.323 204.725C168.317 204.739 168.307 204.751 168.295 204.76L168.26 204.775ZM167.14 203.34C167.065 203.365 167.06 203.405 167.06 203.42C167.03 203.67 167.65 204.28 168.115 204.54C168.061 204.12 167.876 203.728 167.585 203.42C167.536 203.378 167.478 203.348 167.416 203.331C167.354 203.314 167.289 203.31 167.225 203.32C167.196 203.323 167.167 203.329 167.14 203.34Z" fill="#28A228"/>
<path d="M189.12 204.255L193.15 204.15C193.223 204.147 193.295 204.17 193.354 204.213C193.413 204.257 193.456 204.319 193.475 204.39L194.32 207.635C194.341 207.713 194.345 207.794 194.33 207.874C194.315 207.953 194.282 208.027 194.234 208.092C194.185 208.157 194.123 208.209 194.051 208.246C193.98 208.283 193.901 208.303 193.82 208.305C192.365 208.305 190.26 208.305 188.43 208.34C186.295 208.4 184.93 208.295 182.43 208.34C180.93 208.38 180.43 206.87 181.07 206.715C183.935 206.005 185.805 206.145 188.245 204.545C188.505 204.372 188.808 204.271 189.12 204.255Z" fill="#263238"/>
<path d="M188.775 204.775C188.185 204.905 187.13 205.08 186.715 204.735C186.654 204.684 186.606 204.62 186.574 204.547C186.543 204.474 186.529 204.394 186.535 204.315C186.535 204.267 186.547 204.221 186.571 204.179C186.595 204.138 186.629 204.104 186.67 204.08C187.11 203.815 188.62 204.53 188.79 204.61C188.807 204.617 188.821 204.628 188.83 204.644C188.839 204.659 188.842 204.677 188.84 204.695C188.839 204.713 188.832 204.731 188.82 204.745C188.808 204.759 188.793 204.77 188.775 204.775ZM186.775 204.22H186.745C186.728 204.229 186.715 204.243 186.706 204.26C186.697 204.277 186.693 204.296 186.695 204.315C186.69 204.367 186.698 204.419 186.718 204.467C186.738 204.515 186.77 204.557 186.81 204.59C187.045 204.785 187.65 204.805 188.465 204.645C187.87 204.4 187.055 204.115 186.78 204.22H186.775Z" fill="#28A228"/>
<path d="M188.775 204.775H188.71C188.26 204.585 187.345 203.815 187.4 203.4C187.4 203.3 187.475 203.175 187.715 203.145C187.803 203.133 187.893 203.139 187.979 203.162C188.065 203.185 188.145 203.225 188.215 203.28C188.565 203.67 188.783 204.159 188.84 204.68C188.843 204.695 188.841 204.711 188.834 204.725C188.828 204.739 188.818 204.752 188.805 204.76L188.775 204.775ZM187.65 203.34C187.58 203.365 187.575 203.405 187.575 203.42C187.54 203.67 188.165 204.28 188.63 204.54C188.573 204.121 188.388 203.73 188.1 203.42C188.051 203.379 187.993 203.349 187.931 203.331C187.869 203.314 187.804 203.31 187.74 203.32L187.65 203.34Z" fill="#28A228"/>
<path d="M196.525 124.63C198.465 133.035 195.135 199.16 195.135 199.16H188.705L185.955 144.055L175.83 199.16L168.955 198.66C173.455 155.97 177.42 130.485 177.42 130.485V127.265L196.525 124.63Z" fill="#263238"/>
<path opacity="0.4" d="M168.955 198.66L175.83 199.16L183.8 155.78L185.955 144.055L188.705 199.16H195.135C195.135 199.16 198.465 133.035 196.525 124.63L177.41 127.265V130.485C177.41 130.485 173.45 155.97 168.955 198.66Z" fill="white"/>
<path d="M193.06 93.5C192.863 97.5187 192.965 101.546 193.365 105.55C193.635 108.35 194.005 110.995 194.4 113.38C195.325 118.975 196.375 123.17 196.525 124.635L177.41 127.27C170.44 107.77 173.065 96.44 173.065 96.44C174.494 95.8499 175.959 95.3489 177.45 94.94C177.765 94.855 178.085 94.775 178.415 94.7C181.1 94.1717 183.812 93.7978 186.54 93.58C187.04 93.535 187.585 93.5 188.095 93.475C190.705 93.345 193.06 93.5 193.06 93.5Z" fill="#263238"/>
<path d="M182.83 84.725C182.97 87.4 183.255 92.42 185.48 93.695C185.48 93.695 184.095 96.33 181.1 96.6C178.835 96.8 178.985 94.565 178.985 94.565C180.295 93.59 179.985 91.935 178.985 90.065L182.83 84.725Z" fill="#E4897B"/>
<path opacity="0.2" d="M181.26 86.905L179 90.065C179.238 90.4972 179.439 90.9488 179.6 91.415C180.65 90.995 181.855 89.415 181.68 88.27C181.625 87.7931 181.483 87.3303 181.26 86.905Z" fill="black"/>
<path d="M173.08 79.34C172.645 80.73 172.885 83.58 174.82 82.655C176.755 81.73 173.83 76.955 173.08 79.34Z" fill="#263238"/>
<path d="M183.08 81.22C183.295 84.785 183.58 86.86 182.025 88.88C179.66 91.915 175.08 90.785 173.8 87.345C172.65 84.245 172.495 78.935 175.8 77.135C176.533 76.7365 177.354 76.5302 178.188 76.5357C179.022 76.5411 179.841 76.7581 180.569 77.1662C181.296 77.5743 181.908 78.1603 182.347 78.8693C182.786 79.5782 183.038 80.3871 183.08 81.22Z" fill="#E4897B"/>
<path d="M180.58 79.28V75.28C180.58 75.28 184.82 74.965 184.63 77.135C186.98 78.3 185.87 81.955 182.715 83.745C180.985 82.36 181.185 79.03 181.185 79.03C181 79.125 180.79 79.205 180.58 79.28Z" fill="#263238"/>
<path d="M184.805 84C184.723 84.4361 184.555 84.8514 184.31 85.2215C184.066 85.5917 183.749 85.909 183.38 86.155C182.38 86.81 181.515 86.005 181.48 84.88C181.45 83.88 181.925 82.3 183.075 82.1C183.327 82.0608 183.584 82.0845 183.824 82.1691C184.064 82.2537 184.28 82.3966 184.451 82.5848C184.622 82.773 184.744 83.0008 184.806 83.2478C184.868 83.4948 184.868 83.7532 184.805 84Z" fill="#E4897B"/>
<path d="M177.815 82.81C177.85 83.1 177.725 83.35 177.535 83.37C177.345 83.39 177.165 83.175 177.13 82.87C177.095 82.565 177.22 82.33 177.405 82.31C177.59 82.29 177.78 82.5 177.815 82.81Z" fill="#263238"/>
<path d="M174.545 83.175C174.58 83.465 174.455 83.715 174.265 83.735C174.075 83.755 173.895 83.54 173.86 83.235C173.825 82.93 173.95 82.695 174.14 82.675C174.33 82.655 174.5 82.885 174.545 83.175Z" fill="#263238"/>
<path d="M175.6 83.2C175.347 84.0941 174.972 84.9489 174.485 85.74C174.701 85.8508 174.937 85.9148 175.179 85.9277C175.422 85.9407 175.664 85.9023 175.89 85.815L175.6 83.2Z" fill="#DE5753"/>
<path d="M177.575 86.745C177.452 86.7765 177.326 86.7999 177.2 86.815C177.177 86.815 177.156 86.8061 177.14 86.7901C177.124 86.7742 177.115 86.7526 177.115 86.73C177.115 86.7075 177.124 86.6859 177.14 86.6699C177.156 86.654 177.177 86.645 177.2 86.645C177.559 86.6124 177.905 86.4959 178.211 86.3048C178.517 86.1137 178.773 85.8535 178.96 85.545C178.964 85.5349 178.971 85.5258 178.979 85.5182C178.987 85.5107 178.996 85.5048 179.006 85.5011C179.017 85.4973 179.028 85.4958 179.039 85.4964C179.05 85.4971 179.06 85.5 179.07 85.505C179.08 85.5098 179.089 85.5166 179.097 85.5251C179.105 85.5335 179.111 85.5434 179.114 85.5541C179.118 85.5648 179.12 85.5762 179.119 85.5875C179.118 85.5988 179.115 85.6099 179.11 85.62C178.946 85.904 178.726 86.1508 178.461 86.3445C178.197 86.5382 177.895 86.6746 177.575 86.745Z" fill="#263238"/>
<path d="M178.695 81.645C178.665 81.6521 178.633 81.6512 178.603 81.6424C178.574 81.6336 178.547 81.6173 178.525 81.595C178.38 81.4364 178.2 81.3136 178 81.2363C177.8 81.1591 177.584 81.1296 177.37 81.15C177.348 81.1551 177.325 81.1556 177.303 81.1515C177.281 81.1473 177.259 81.1387 177.241 81.126C177.222 81.1133 177.206 81.097 177.194 81.0779C177.182 81.0588 177.174 81.0374 177.17 81.015C177.166 80.993 177.166 80.9704 177.17 80.9484C177.175 80.9264 177.183 80.9055 177.196 80.8869C177.208 80.8683 177.225 80.8524 177.243 80.8401C177.262 80.8277 177.283 80.8192 177.305 80.815C177.575 80.7829 177.849 80.8156 178.103 80.9103C178.358 81.0051 178.587 81.1593 178.77 81.36C178.786 81.3755 178.799 81.3941 178.808 81.4147C178.817 81.4353 178.822 81.4576 178.822 81.48C178.822 81.5025 178.817 81.5247 178.808 81.5454C178.799 81.566 178.786 81.5846 178.77 81.6C178.749 81.6204 178.723 81.6357 178.695 81.645Z" fill="#263238"/>
<path d="M173 82.21C172.968 82.2223 172.932 82.2223 172.9 82.21C172.858 82.1952 172.823 82.1643 172.803 82.1241C172.784 82.0838 172.781 82.0374 172.795 81.995C172.878 81.7376 173.021 81.5041 173.214 81.3143C173.406 81.1245 173.642 80.984 173.9 80.905C173.944 80.8937 173.99 80.9003 174.029 80.9233C174.068 80.9462 174.096 80.9837 174.107 81.0275C174.119 81.0712 174.112 81.1177 174.089 81.1566C174.066 81.1955 174.029 81.2237 173.985 81.235C173.781 81.298 173.595 81.4103 173.444 81.562C173.293 81.7137 173.182 81.9002 173.12 82.105C173.11 82.1312 173.095 82.1546 173.074 82.1729C173.053 82.1913 173.027 82.204 173 82.21Z" fill="#263238"/>
<path d="M182.46 80.76C182.46 80.76 179.96 79.845 178.82 78.395C178.82 78.395 176.55 78.99 176.085 79.895C175.873 79.7133 175.736 79.4595 175.7 79.1825C175.663 78.9055 175.731 78.6249 175.89 78.395C175.89 78.395 174.19 78.755 173.855 79.895C173.579 79.7635 173.352 79.5468 173.208 79.2768C173.064 79.0068 173.01 78.6977 173.055 78.395C173.055 78.395 172.3 78.68 172.055 79.895C172.055 79.895 170.18 75.985 176.375 74.865C175.906 74.7059 175.415 74.6232 174.92 74.62C174.92 74.62 179.245 72.875 182.67 74.47C186.095 76.065 185.5 79.155 182.46 80.76Z" fill="#263238"/>
<path d="M198 128L192 128.8C192 128.8 189.525 111.505 188.435 105.92V94L191.57 93.175L194 94C194.666 96.3982 195.179 98.8365 195.535 101.3C195.83 103.17 196.095 105.17 196.33 107.195C196.655 109.955 196.925 112.765 197.155 115.395C197.515 119.64 197.755 123.395 197.885 125.69C197.96 127.13 198 128 198 128Z" fill="#28A228"/>
<path d="M188.44 105.91C188.44 105.91 188.94 97.495 191.575 93.155C191.575 93.155 191.51 91.915 190.985 91.715C190.46 91.515 188.44 92.715 188.44 92.715C188.44 92.715 187.185 91.855 186.91 92.255C186.635 92.655 185.965 95.315 188.44 105.91Z" fill="#28A228"/>
<path opacity="0.7" d="M188.44 105.91C188.44 105.91 188.94 97.495 191.575 93.155C191.575 93.155 191.51 91.915 190.985 91.715C190.46 91.515 188.44 92.715 188.44 92.715C188.44 92.715 187.185 91.855 186.91 92.255C186.635 92.655 185.965 95.315 188.44 105.91Z" fill="white"/>
<path d="M174.8 130.305L175.485 130.805C175.485 130.805 174.485 125.23 174.895 111.13C174.895 110.45 174.94 109.795 174.965 109.17C175.465 97.24 177.325 95.07 177.465 94.94L175.735 95.53L172.6 96.61C171.655 106.785 174.8 130.305 174.8 130.305Z" fill="#28A228"/>
<path d="M175.07 107.115C175.07 107.115 173.34 98.935 173.855 96.115C174.37 93.295 176.215 94.55 176.215 94.55C176.215 94.55 177.91 93.18 178.415 94.69C178.415 94.69 176.085 96.33 175.07 107.115Z" fill="#28A228"/>
<path opacity="0.7" d="M175.07 107.115C175.07 107.115 173.34 98.935 173.855 96.115C174.37 93.295 176.215 94.55 176.215 94.55C176.215 94.55 177.91 93.18 178.415 94.69C178.415 94.69 176.085 96.33 175.07 107.115Z" fill="white"/>
<path opacity="0.2" d="M196.32 107.175C193.76 105.74 193.42 101.995 193.42 101.995C193.575 101.935 194.525 101.61 195.525 101.28C195.82 103.15 196.085 105.15 196.32 107.175Z" fill="black"/>
<path opacity="0.2" d="M183.8 155.78L185.955 144.055L185.54 137.85C185.54 137.85 182.585 148.61 183.8 155.78Z" fill="black"/>
<path opacity="0.2" d="M197.875 125.67C196.265 125.56 194.875 125.455 194.875 125.455L194.57 118.91C195.072 118.596 195.674 118.485 196.255 118.6C196.651 117.554 196.95 116.475 197.15 115.375C197.5 119.62 197.745 123.38 197.875 125.67Z" fill="black"/>
<path d="M198.425 115.37L195.29 120.405L197.77 121.83L200.715 117.295L198.425 115.37Z" fill="#E4897B"/>
<path d="M193.865 93.92C195.975 94.15 204.945 106.46 205.34 110.17C205.735 113.88 200.07 120.285 200.07 120.285L196.29 118.06C196.29 118.06 200.13 112.155 200.33 110.56C200.53 108.965 193.305 102.52 193.305 102.52C192.759 101.035 192.458 99.4714 192.415 97.89C192.315 95.18 193.865 93.92 193.865 93.92Z" fill="#28A228"/>
<path d="M194.565 118.915C194.565 118.915 197.79 119.605 199.09 121.635C199.09 121.635 197.74 125.86 196.775 126.32C195.81 126.78 193.42 126.78 193.42 126.78C193.42 126.78 193.265 122.08 194.565 118.915Z" fill="#28A228"/>
</svg>
