<svg width="17" height="16" viewBox="0 0 17 16" fill="none" xmlns="http://www.w3.org/2000/svg">
<path d="M15.1667 6.73313C15.2333 6.3998 14.9667 5.9998 14.6333 5.9998L10.8333 5.46646L9.1 1.9998C9.03334 1.86646 8.96667 1.7998 8.83334 1.73313C8.5 1.53313 8.1 1.66646 7.9 1.9998L6.23334 5.46646L2.43334 5.9998C2.23334 5.9998 2.1 6.06646 2.03334 6.1998C1.76667 6.46646 1.76667 6.86646 2.03334 7.13313L4.76667 9.7998L4.1 13.5998C4.1 13.7331 4.1 13.8665 4.16667 13.9998C4.36667 14.3331 4.76667 14.4665 5.1 14.2665L8.5 12.4665L11.9 14.2665C11.9667 14.3331 12.1 14.3331 12.2333 14.3331C12.3 14.3331 12.3 14.3331 12.3667 14.3331C12.7 14.2665 12.9667 13.9331 12.9 13.5331L12.2333 9.73313L14.9667 7.06646C15.1 6.9998 15.1667 6.86646 15.1667 6.73313Z" fill="#28A228"/>
</svg>
