<svg width="180" height="72" viewBox="0 0 180 72" fill="none" xmlns="http://www.w3.org/2000/svg">
<g clip-path="url(#clip0_5_130)">
<path d="M43.1226 65.3817L44.9335 53.4293L36.3602 46.6305L39.5199 36.3422L54.8439 48.1279L43.1226 65.3817Z" fill="white"/>
<path d="M65.8109 7.03295C60.0451 14.5234 54.4708 17.0998 50.4025 18.0531C40.0827 20.4709 35.6649 13.3313 23.9736 16.1274C19.0093 17.314 12.8241 20.5921 7.60843 25.3731C1.259 31.1921 0 34.0638 0 34.0638L16.111 40.1389C16.111 40.1389 12.6943 32.8617 18.3721 28.1081C21.8677 25.1808 25.6365 24.4736 27.3484 24.2649C22.1255 40.1763 16.9016 56.0877 11.6786 72H23.9844L39.0307 26.2353C41.7002 26.7256 46.3504 27.1904 51.7259 25.6411C61.0063 22.9644 66.6087 14.9034 66.6087 14.9034L65.8109 7.03295Z" fill="white"/>
<path d="M35.6222 12.9759C39.1911 12.9759 42.0842 10.0712 42.0842 6.48796C42.0842 2.90476 39.1911 0 35.6222 0C32.0534 0 29.1602 2.90476 29.1602 6.48796C29.1602 10.0712 32.0534 12.9759 35.6222 12.9759Z" fill="white"/>
<path d="M81.9209 50.2969C81.5887 50.5439 81.1811 50.728 80.6973 50.851C80.2135 50.9741 79.7043 51.036 79.1705 51.036C77.7845 51.036 76.7125 50.6806 75.9545 49.9707C75.1966 49.2607 74.8172 48.2172 74.8172 46.8392V42.0336H73.0199V39.4244H74.8172V36.5764H78.1957V39.4244H81.0976V42.0336H78.1957V46.7955C78.1957 47.2885 78.3218 47.6686 78.5751 47.9374C78.8274 48.2063 79.1851 48.3393 79.6471 48.3393C80.1808 48.3393 80.6356 48.1944 81.0114 47.9046L81.9209 50.296V50.2969Z" fill="white"/>
<path d="M94.4055 40.2948C95.2933 41.1642 95.7372 42.4547 95.7372 44.1653V50.862H92.3587V44.6866C92.3587 43.7588 92.1562 43.0671 91.7523 42.6105C91.3484 42.1539 90.7629 41.9261 89.9986 41.9261C89.1463 41.9261 88.4682 42.1904 87.9626 42.7199C87.457 43.2494 87.2047 44.035 87.2047 45.0794V50.8629H83.8262V34.73H87.2047V40.3832C87.6522 39.9339 88.1932 39.5894 88.8286 39.3506C89.464 39.1118 90.1565 38.9915 90.9072 38.9915C92.3505 38.9915 93.5169 39.4262 94.4046 40.2957L94.4055 40.2948Z" fill="white"/>
<path d="M110.269 45.9698H101.455C101.614 46.6952 101.989 47.2676 102.581 47.6877C103.173 48.1088 103.909 48.3184 104.79 48.3184C105.396 48.3184 105.933 48.2281 106.403 48.0468C106.872 47.8654 107.309 47.5793 107.713 47.1883L109.51 49.145C108.412 50.4063 106.81 51.0369 104.703 51.0369C103.389 51.0369 102.226 50.7799 101.216 50.265C100.206 49.751 99.4261 49.0365 98.877 48.1233C98.3278 47.2102 98.0536 46.1739 98.0536 45.0138C98.0536 43.8536 98.3242 42.8356 98.8661 41.9152C99.4071 40.9947 100.15 40.2775 101.096 39.7625C102.042 39.2485 103.1 38.9906 104.269 38.9906C105.438 38.9906 106.442 39.2376 107.366 39.7297C108.29 40.2228 109.015 40.9291 109.543 41.8496C110.069 42.77 110.333 43.839 110.333 45.0566C110.333 45.1004 110.311 45.4048 110.268 45.9698H110.269ZM102.364 42.2086C101.844 42.6433 101.527 43.2375 101.411 43.9912H107.15C107.035 43.2521 106.717 42.6616 106.197 42.2196C105.677 41.7776 105.041 41.5561 104.291 41.5561C103.542 41.5561 102.884 41.7739 102.364 42.2086Z" fill="white"/>
<path d="M122.093 38.5122H117.242V35.6423H130.452V38.5122H125.601V50.862H122.093V38.5122Z" fill="white"/>
<path d="M136.699 39.4253C137.385 39.1355 138.175 38.9906 139.07 38.9906V42.1211C138.695 42.092 138.442 42.0774 138.312 42.0774C137.345 42.0774 136.587 42.349 136.039 42.8931C135.489 43.4362 135.215 44.2519 135.215 45.3391V50.862H131.837V39.1647H135.064V40.7085C135.468 40.1435 136.013 39.7161 136.699 39.4253H136.699Z" fill="white"/>
<path d="M149.877 40.2838C150.843 41.146 151.327 42.4474 151.327 44.1863V50.8611H148.166V49.4047C147.53 50.492 146.347 51.0351 144.614 51.0351C143.719 51.0351 142.943 50.8829 142.285 50.5785C141.628 50.2741 141.127 49.854 140.78 49.3172C140.434 48.7813 140.26 48.1725 140.26 47.4909C140.26 46.4036 140.668 45.5488 141.484 44.9254C142.299 44.302 143.559 43.9903 145.263 43.9903H147.948C147.948 43.2512 147.724 42.6825 147.276 42.2834C146.829 41.8851 146.157 41.6855 145.262 41.6855C144.641 41.6855 144.031 41.783 143.432 41.979C142.833 42.1749 142.324 42.4392 141.905 42.7728L140.692 40.4032C141.328 39.9539 142.089 39.6058 142.977 39.3597C143.865 39.1137 144.778 38.9897 145.717 38.9897C147.521 38.9897 148.907 39.4208 149.875 40.2838H149.877ZM146.997 48.3512C147.444 48.0832 147.762 47.6877 147.95 47.1664V45.9707H145.632C144.246 45.9707 143.554 46.4273 143.554 47.3405C143.554 47.7752 143.723 48.1197 144.063 48.373C144.401 48.6273 144.867 48.754 145.46 48.754C146.052 48.754 146.55 48.62 146.997 48.3521L146.997 48.3512Z" fill="white"/>
<path d="M156.796 50.2641C155.807 49.7501 155.034 49.0356 154.479 48.1224C153.923 47.2092 153.645 46.173 153.645 45.0129C153.645 43.8527 153.922 42.8165 154.479 41.9033C155.034 40.9901 155.807 40.2765 156.796 39.7616C157.785 39.2476 158.9 38.9897 160.142 38.9897C161.384 38.9897 162.441 39.2476 163.358 39.7616C164.275 40.2765 164.942 41.012 165.361 41.968L162.741 43.3815C162.134 42.3089 161.26 41.773 160.12 41.773C159.24 41.773 158.51 42.0628 157.933 42.6424C157.355 43.2221 157.067 44.0122 157.067 45.012C157.067 46.0117 157.355 46.8019 157.933 47.3815C158.51 47.9611 159.239 48.2509 160.12 48.2509C161.275 48.2509 162.148 47.715 162.741 46.6415L165.361 48.0769C164.942 49.0046 164.275 49.7291 163.358 50.2514C162.441 50.7736 161.369 51.0342 160.142 51.0342C158.915 51.0342 157.785 50.7772 156.796 50.2623V50.2641Z" fill="white"/>
<path d="M172.225 46.2742L170.602 47.8836V50.862H167.223V34.7291H170.602V43.8609L175.54 39.1647H179.568L174.717 44.1225L180.001 50.8629H175.908L172.226 46.2751L172.225 46.2742Z" fill="white"/>
<path d="M78.153 59.1735V63.1963H85.1696V66.0224H78.153V71.5671H74.6447V56.3474H86.1009V59.1745H78.153V59.1735Z" fill="white"/>
<path d="M88.2014 57.6953C87.812 57.3335 87.6168 56.8833 87.6168 56.3474C87.6168 55.8116 87.812 55.3622 88.2014 54.9995C88.5908 54.6377 89.0964 54.4564 89.7173 54.4564C90.3381 54.4564 90.8437 54.6304 91.2331 54.9786C91.6226 55.3267 91.8177 55.7614 91.8177 56.2827C91.8177 56.8478 91.6226 57.3153 91.2331 57.6853C90.8437 58.0553 90.3381 58.2394 89.7173 58.2394C89.0964 58.2394 88.5908 58.058 88.2014 57.6962V57.6953ZM88.028 59.8698H91.4065V71.5671H88.028V59.8698Z" fill="white"/>
<path d="M102.061 71.0021C101.729 71.249 101.321 71.4331 100.838 71.5562C100.354 71.6792 99.8445 71.7412 99.3108 71.7412C97.9247 71.7412 96.8527 71.3857 96.0948 70.6758C95.3369 69.9658 94.9574 68.9223 94.9574 67.5444V62.7388H93.1602V60.1296H94.9574V57.2816H98.3359V60.1296H101.238V62.7388H98.3359V67.5006C98.3359 67.9937 98.4621 68.3737 98.7154 68.6426C98.9677 68.9114 99.3253 69.0445 99.7874 69.0445C100.321 69.0445 100.776 68.8996 101.152 68.6097L102.061 71.0011V71.0021Z" fill="white"/>
</g>
<defs>
<clipPath id="clip0_5_130">
<rect width="180" height="72" fill="white"/>
</clipPath>
</defs>
</svg>
